<?xml version="1.0" standalone="no"?>
<!DOCTYPE svg PUBLIC "-//W3C//DTD SVG 1.1//EN" "http://www.w3.org/Graphics/SVG/1.1/DTD/svg11.dtd" >
<svg xmlns="http://www.w3.org/2000/svg" xmlns:xlink="http://www.w3.org/1999/xlink" version="1.1">
<metadata>
Created by FontForge 20170731 at Wed Sep 20 00:59:26 2017
 By Aleksey,,,
Copyright 2015 Google Inc. All Rights Reserved.
</metadata>
<defs>
<font id="NotoSans-SemiCondensedBlack" horiz-adv-x="0" >
  <font-face 
    font-family="Noto Sans SemCond Blk"
    font-weight="900"
    font-stretch="semi-condensed"
    units-per-em="1000"
    panose-1="2 11 10 2 4 5 4 2 2 4"
    ascent="800"
    descent="-200"
    x-height="553"
    cap-height="714"
    bbox="-668 -389 2805 1121"
    underline-thickness="50"
    underline-position="-175"
    unicode-range="U+000D-FFFD"
  />
<missing-glyph horiz-adv-x="582" 
d="M85 0v714h411v-714h-411zM136 51h309v612h-309v-612z" />
    <glyph glyph-name=".notdef" horiz-adv-x="582" 
d="M85 0v714h411v-714h-411zM136 51h309v612h-309v-612z" />
    <glyph glyph-name=".null" 
 />
    <glyph glyph-name="nonmarkingreturn" horiz-adv-x="333" 
 />
    <glyph glyph-name="NULL" 
 />
    <glyph glyph-name="NULL" 
 />
    <glyph glyph-name="CR" unicode="&#xd;" horiz-adv-x="229" 
 />
    <glyph glyph-name="space" unicode=" " horiz-adv-x="229" 
 />
    <glyph glyph-name="exclam" unicode="!" horiz-adv-x="283" 
d="M219 252h-154l-24 462h202zM42 81q0 49 28 71.5t72 22.5q42 0 69.5 -22.5t27.5 -71.5q0 -47 -28 -70t-69 -23q-43 0 -71.5 23t-28.5 70z" />
    <glyph glyph-name="quotedbl" unicode="&#x22;" horiz-adv-x="509" 
d="M226 714l-20 -258h-134l-20 258h174zM458 714l-20 -258h-134l-20 258h174z" />
    <glyph glyph-name="numbersign" unicode="#" horiz-adv-x="619" 
d="M480 401l-15 -90h109v-120h-129l-33 -191h-126l33 191h-75l-32 -191h-124l32 191h-101v120h122l15 90h-107v123h128l32 190h126l-33 -190h74l32 190h126l-34 -190h103v-123h-123zM266 311h74l15 90h-75z" />
    <glyph glyph-name="dollar" unicode="$" horiz-adv-x="547" 
d="M233 -58v84q-55 2 -101 13t-87 29v149q43 -22 94 -37t94 -18v135q-60 19 -105 45t-70 65t-25 98q0 88 55 133t145 53v69h84v-68q52 -3 97.5 -16t84.5 -30l-39 -130q-34 16 -71 26t-72 14v-129q65 -21 109.5 -45t67 -60t22.5 -91q0 -79 -49 -134t-150 -68v-87h-84z
M233 455v100q-50 -7 -50 -47q0 -18 11.5 -30t38.5 -23zM317 167q50 11 50 50q0 19 -11 31t-39 23v-104z" />
    <glyph glyph-name="percent" unicode="%" horiz-adv-x="908" 
d="M193 724q80 0 128.5 -59.5t48.5 -163.5q0 -107 -46 -166t-131 -59q-79 0 -126 60t-47 165q0 107 45 165t128 58zM699 714l-358 -714h-136l358 714h136zM195 608q-19 0 -27.5 -28.5t-8.5 -80.5t8.5 -80.5t27.5 -28.5t27.5 28t8.5 81t-8.5 81t-27.5 28zM711 440
q80 0 128 -59.5t48 -163.5q0 -107 -45.5 -166t-130.5 -59q-79 0 -126 60t-47 165q0 107 45 165t128 58zM713 324q-19 0 -27.5 -28.5t-8.5 -80.5t8.5 -80.5t27.5 -28.5q20 0 28 30t8 79q0 50 -8 79.5t-28 29.5z" />
    <glyph glyph-name="ampersand" unicode="&#x26;" horiz-adv-x="742" 
d="M310 723q97 0 151.5 -45.5t54.5 -124.5q0 -59 -33.5 -104t-88.5 -80l86 -89q30 50 43 121h188q-13 -70 -41.5 -135.5t-65.5 -115.5l143 -150h-233l-41 47q-27 -17 -54 -30t-62.5 -20t-87.5 -7q-77 0 -130.5 27t-81 74t-27.5 107q0 128 129 196q-30 34 -46 72.5t-16 86.5
q0 74 55.5 122t157.5 48zM308 601q-19 0 -33 -12.5t-14 -38.5q0 -21 11.5 -40.5t28.5 -37.5q25 16 38.5 38.5t13.5 45.5t-13 34t-32 11zM253 291q-37 -31 -37 -80q0 -30 20 -51t54 -21q26 0 45 7t32 17z" />
    <glyph glyph-name="quotesingle" unicode="'" horiz-adv-x="277" 
d="M226 714l-20 -258h-134l-20 258h174z" />
    <glyph glyph-name="parenleft" unicode="(" horiz-adv-x="347" 
d="M39 284q0 130 33.5 246t101.5 204h155q-66 -95 -97 -210.5t-31 -238.5q0 -120 31.5 -233t95.5 -210h-154q-70 87 -102.5 200.5t-32.5 241.5z" />
    <glyph glyph-name="parenright" unicode=")" horiz-adv-x="347" 
d="M308 284q0 -128 -33 -241.5t-103 -200.5h-154q65 97 96 210t31 233q0 123 -30.5 238.5t-96.5 210.5h154q69 -88 102.5 -204t33.5 -246z" />
    <glyph glyph-name="asterisk" unicode="*" horiz-adv-x="514" 
d="M331 761l-19 -164l160 51l25 -142l-148 -13l102 -127l-124 -74l-71 137l-64 -136l-128 73l102 127l-148 14l27 141l158 -51l-19 164h147z" />
    <glyph glyph-name="plus" unicode="+" horiz-adv-x="554" 
d="M343 418h170v-131h-170v-176h-132v176h-170v131h170v179h132v-179z" />
    <glyph glyph-name="comma" unicode="," horiz-adv-x="296" 
d="M236 146l7 -11q-9 -43 -21 -92.5t-27 -97t-31 -84.5h-135q9 43 17.5 94.5t16 101.5t10.5 89h163z" />
    <glyph glyph-name="hyphen" unicode="-" horiz-adv-x="321" 
d="M24 192v152h273v-152h-273z" />
    <glyph glyph-name="period" unicode="." horiz-adv-x="283" 
d="M43 81q0 49 28.5 71.5t71.5 22.5q42 0 69 -22.5t27 -71.5q0 -47 -27.5 -70t-68.5 -23q-43 0 -71.5 23t-28.5 70z" />
    <glyph glyph-name="slash" unicode="/" horiz-adv-x="436" 
d="M434 724l-271 -734h-159l271 734h159z" />
    <glyph glyph-name="zero" unicode="0" horiz-adv-x="553" 
d="M518 356q0 -111 -22.5 -193t-75 -127.5t-144.5 -45.5q-124 0 -182.5 95t-58.5 271q0 179 55.5 273.5t185.5 94.5q124 0 183 -95.5t59 -272.5zM218 356q0 -109 11 -162t47 -53t47.5 53t11.5 162q0 108 -11.5 162.5t-47.5 54.5q-35 0 -46.5 -54.5t-11.5 -162.5z" />
    <glyph glyph-name="one" unicode="1" horiz-adv-x="553" 
d="M438 0h-185v361v39.5t0.5 52t1.5 50.5q-19 -25 -41 -45l-74 -67l-100 113l233 210h165v-714z" />
    <glyph glyph-name="two" unicode="2" horiz-adv-x="553" 
d="M509 0h-480v124l159 178q51 58 78.5 94t37.5 60.5t10 49.5q0 31 -18 46.5t-46 15.5q-31 0 -61.5 -18t-70.5 -58l-97 118q32 34 67 59.5t79 40t104 14.5q67 0 118 -25.5t79.5 -70t28.5 -101.5q0 -55 -18 -100t-56.5 -93t-100.5 -109l-63 -66v-5h250v-154z" />
    <glyph glyph-name="three" unicode="3" horiz-adv-x="553" 
d="M492 551q0 -68 -41.5 -112t-103.5 -63v-3q79 -12 121.5 -53.5t42.5 -115.5q0 -62 -31 -110t-92.5 -76t-155.5 -28q-62 0 -107 9t-92 29v158q43 -24 88 -35.5t83 -11.5q63 0 88 19.5t25 55.5q0 40 -29.5 60t-112.5 20h-41v143h42q74 0 106 21t32 58q0 29 -20.5 43
t-56.5 14q-40 0 -74.5 -15.5t-55.5 -30.5l-73 127q45 32 99 51t136 19q103 0 163 -45t60 -128z" />
    <glyph glyph-name="four" unicode="4" horiz-adv-x="553" 
d="M538 138h-75v-138h-181v138h-265v139l274 437h172v-435h75v-141zM282 279v89q0 9 0.5 25.5t1 34.5t1.5 31t1 14h-5q-8 -22 -16 -37.5t-19 -33.5l-75 -123h111z" />
    <glyph glyph-name="five" unicode="5" horiz-adv-x="553" 
d="M308 468q56 0 101.5 -27.5t72 -79t26.5 -123.5q0 -120 -67.5 -184t-206.5 -64q-111 0 -187 38v156q37 -18 85 -31.5t88 -13.5q49 0 75.5 23.5t26.5 69.5q0 42 -27 66t-82 24q-24 0 -47 -5t-43 -12l-65 35l25 374h381v-156h-225l-9 -99q18 4 34.5 6.5t43.5 2.5z" />
    <glyph glyph-name="six" unicode="6" horiz-adv-x="553" 
d="M33 302q0 63 8.5 124t30.5 115t61 95t99.5 64.5t146.5 23.5q23 0 51 -2.5t51 -5.5v-147q-20 4 -44 6.5t-55 2.5q-98 0 -138 -47t-44 -138h6q18 37 49 60t81 23q87 0 136.5 -61t49.5 -171q0 -118 -63 -186t-174 -68q-73 0 -130 35t-89.5 104t-32.5 173zM281 140
q28 0 45 24t17 76q0 44 -14.5 67t-45.5 23t-48.5 -24t-17.5 -55q0 -43 16 -77t48 -34z" />
    <glyph glyph-name="seven" unicode="7" horiz-adv-x="553" 
d="M96 0l230 559h-288v155h481v-114l-232 -600h-191z" />
    <glyph glyph-name="eight" unicode="8" horiz-adv-x="553" 
d="M278 724q102 0 162.5 -44t60.5 -130q0 -62 -30.5 -104t-82.5 -70q55 -34 94 -78t39 -108q0 -89 -61 -144.5t-184 -55.5q-124 0 -184 53.5t-60 144.5q0 68 32.5 111t89.5 74q-46 33 -74 76t-28 102q0 85 62.5 129t163.5 44zM277 588q-23 0 -38 -14.5t-15 -38.5
q0 -23 14 -42t37 -34q23 16 38.5 33t15.5 43q0 24 -15.5 38.5t-36.5 14.5zM202 194q0 -31 19 -49.5t53 -18.5q40 0 58.5 17t18.5 47q0 29 -20.5 52.5t-44.5 40.5l-12 8q-32 -19 -52 -42.5t-20 -54.5z" />
    <glyph glyph-name="nine" unicode="9" horiz-adv-x="553" 
d="M519 405q0 -122 -33.5 -215.5t-109.5 -146.5t-201 -53q-24 0 -51.5 1.5t-49.5 4.5v149q21 -5 42.5 -7t46.5 -2q70 0 110.5 22t58.5 63t20 100h-5q-19 -38 -49.5 -60.5t-83.5 -22.5q-85 0 -134 61t-49 172q0 119 63 186t174 67q72 0 129 -35t89.5 -106t32.5 -178zM272 574
q-29 0 -45.5 -24t-16.5 -77q0 -43 15 -66.5t45 -23.5q32 0 49 26.5t17 53.5q0 22 -6 48t-20 44.5t-38 18.5z" />
    <glyph glyph-name="colon" unicode=":" horiz-adv-x="286" 
d="M45 467q0 49 28 71t72 22q41 0 68 -22t27 -71q0 -48 -27 -71t-68 -23q-43 0 -71.5 23t-28.5 71zM45 81q0 49 28 71.5t72 22.5q41 0 68 -22.5t27 -71.5q0 -47 -27 -70t-68 -23q-43 0 -71.5 23t-28.5 70z" />
    <glyph glyph-name="semicolon" unicode=";" horiz-adv-x="291" 
d="M46 467q0 49 28 71t72 22q41 0 68.5 -22t27.5 -71q0 -48 -27.5 -71t-68.5 -23q-44 0 -72 23t-28 71zM236 146l7 -11q-9 -43 -21 -92.5t-27 -97t-31 -84.5h-135q9 43 17.5 94.5t15.5 101t11 89.5h163z" />
    <glyph glyph-name="less" unicode="&#x3c;" horiz-adv-x="554" 
d="M512 96l-473 215v84l473 232v-145l-282 -125l282 -117v-144z" />
    <glyph glyph-name="equal" unicode="=" horiz-adv-x="554" 
d="M41 398v131h473v-131h-473zM41 175v132h473v-132h-473z" />
    <glyph glyph-name="greater" unicode="&#x3e;" horiz-adv-x="554" 
d="M41 240l282 117l-282 125v145l473 -232v-84l-473 -215v144z" />
    <glyph glyph-name="question" unicode="?" horiz-adv-x="467" 
d="M130 252v42q0 46 17.5 79t64.5 66q42 30 54.5 49.5t12.5 42.5q0 21 -17 33t-47 12q-64 0 -153 -52l-62 131q52 32 109 50.5t121 18.5q106 0 163.5 -48.5t57.5 -129.5q0 -60 -26.5 -102t-81.5 -82q-42 -31 -55 -46.5t-13 -38.5v-25h-145zM108 81q0 49 28 71.5t72 22.5
q42 0 69.5 -22.5t27.5 -71.5q0 -47 -28 -70t-69 -23q-43 0 -71.5 23t-28.5 70z" />
    <glyph glyph-name="at" unicode="@" horiz-adv-x="849" 
d="M812 369q0 -67 -21.5 -125t-61 -94t-93.5 -36q-38 0 -68 15.5t-46 46.5h-7q-22 -28 -51.5 -45t-66.5 -17q-85 0 -128 53.5t-43 144.5q0 66 27 118.5t78 83t125 30.5q43 0 86.5 -9t75.5 -21l-9 -206q-1 -8 -1.5 -22t-0.5 -28q0 -42 25 -42q26 0 41 41t15 113
q0 112 -60.5 180.5t-181.5 68.5q-92 0 -154.5 -40.5t-95 -113t-32.5 -167.5q0 -124 65 -196t193 -72q52 0 115.5 13t119.5 35v-109q-49 -21 -107.5 -32.5t-121.5 -11.5q-124 0 -211 45t-133 128.5t-46 199.5q0 93 29 170.5t82.5 134.5t128.5 88.5t167 31.5
q110 0 192.5 -43.5t128.5 -122.5t46 -188zM357 312q0 -50 15.5 -73t41.5 -23q34 0 49 32t19 111l4 79q-16 3 -29 3q-50 0 -75 -36.5t-25 -92.5z" />
    <glyph glyph-name="A" unicode="A" horiz-adv-x="670" 
d="M470 0l-32 136h-204l-32 -136h-202l211 716h245l214 -716h-200zM403 289l-30 133q-5 22 -12.5 54t-14 64t-10.5 55q-4 -23 -10.5 -53.5t-13 -62t-12.5 -56.5l-31 -134h134z" />
    <glyph glyph-name="B" unicode="B" horiz-adv-x="631" 
d="M70 714h234q142 0 205.5 -45t63.5 -133q0 -66 -32.5 -106t-72.5 -51v-5q32 -9 59 -28t43 -52t16 -85q0 -97 -69 -153t-187 -56h-260v714zM255 439h50q42 0 61 19.5t19 50.5q0 62 -83 62h-47v-132zM255 300v-154h59q44 0 63 21t19 57q0 32 -19 54t-66 22h-56z" />
    <glyph glyph-name="C" unicode="C" horiz-adv-x="597" 
d="M368 570q-62 0 -96.5 -57.5t-34.5 -158.5q0 -210 140 -210q43 0 83 13t80 32v-159q-43 -21 -88.5 -30.5t-97.5 -9.5q-105 0 -173 44.5t-101 126.5t-33 194q0 109 37 192t107.5 130t171.5 47q50 0 102.5 -12t102.5 -38l-53 -148q-35 20 -71 32t-76 12z" />
    <glyph glyph-name="D" unicode="D" horiz-adv-x="680" 
d="M634 372q0 -123 -42.5 -205.5t-121 -124.5t-186.5 -42h-214v714h229q161 0 248 -88t87 -254zM442 365q0 101 -35.5 148.5t-107.5 47.5h-44v-407h32q80 0 117.5 52t37.5 159z" />
    <glyph glyph-name="E" unicode="E" horiz-adv-x="510" 
d="M465 0h-395v714h395v-151h-210v-118h195v-151h-195v-141h210v-153z" />
    <glyph glyph-name="F" unicode="F" horiz-adv-x="501" 
d="M253 0h-183v714h393v-151h-210v-142h194v-151h-194v-270z" />
    <glyph glyph-name="G" unicode="G" horiz-adv-x="686" 
d="M339 418h286v-385q-55 -19 -121.5 -31t-137.5 -12q-146 0 -232.5 92.5t-86.5 276.5q0 113 40.5 195t118.5 126t191 44q63 0 118.5 -13t96.5 -32l-56 -147q-71 38 -156 38q-58 0 -93.5 -28t-52 -76.5t-16.5 -111.5q0 -102 36.5 -155.5t105.5 -53.5q16 0 36 2t33 6v119
h-110v146z" />
    <glyph glyph-name="H" unicode="H" horiz-adv-x="708" 
d="M638 0h-185v294h-197v-294h-186v714h186v-267h197v267h185v-714z" />
    <glyph glyph-name="I" unicode="I" horiz-adv-x="408" 
d="M378 0h-347v103l81 34v440l-81 34v103h347v-103l-81 -34v-440l81 -34v-103z" />
    <glyph glyph-name="J" unicode="J" horiz-adv-x="329" 
d="M21 -224q-29 0 -52 3t-41 7v148q14 -4 30 -7t35 -3q47 0 64 30t17 97v663h185v-650q0 -108 -29.5 -171t-83 -90t-125.5 -27z" />
    <glyph glyph-name="K" unicode="K" horiz-adv-x="638" 
d="M641 0h-207l-128 270l-50 -31v-239h-186v714h186v-310q9 22 23 45l28 46l137 219h200l-205 -320z" />
    <glyph glyph-name="L" unicode="L" horiz-adv-x="526" 
d="M70 0v714h185v-562h242v-152h-427z" />
    <glyph glyph-name="M" unicode="M" horiz-adv-x="908" 
d="M369 0l-137 502h-4q2 -38 5.5 -91t3.5 -101v-310h-167v714h249l135 -478h3l133 478h248v-714h-172v313q0 47 2.5 99.5t4.5 88.5h-4l-137 -501h-163z" />
    <glyph glyph-name="N" unicode="N" horiz-adv-x="769" 
d="M698 0h-232l-234 481h-4q1 -15 3 -46t4 -67.5t2 -67.5v-300h-167v714h232l233 -473h3q0 13 -2 43.5t-3.5 65.5t-1.5 64v300h167v-714z" />
    <glyph glyph-name="O" unicode="O" horiz-adv-x="732" 
d="M685 358q0 -114 -34 -196.5t-104.5 -127t-180.5 -44.5q-162 0 -240.5 98.5t-78.5 270.5q0 171 78.5 268.5t241.5 97.5q165 0 241.5 -97.5t76.5 -269.5zM240 358q0 -101 30 -156t96 -55q68 0 97 54t29 157t-29 158t-96 55t-97 -55.5t-30 -157.5z" />
    <glyph glyph-name="P" unicode="P" horiz-adv-x="591" 
d="M305 714q126 0 189 -59t63 -168q0 -67 -25 -124t-81.5 -91.5t-149.5 -34.5h-46v-237h-185v714h235zM296 562h-41v-173h30q36 0 62 21t26 73q0 37 -19 58t-58 21z" />
    <glyph glyph-name="Q" unicode="Q" horiz-adv-x="732" 
d="M685 358q0 -116 -34.5 -200t-108.5 -127l155 -201h-222l-108 160h-7q-106 0 -175.5 46t-103.5 129t-34 194q0 171 78.5 268.5t241.5 97.5q165 0 241.5 -97.5t76.5 -269.5zM240 358q0 -101 30 -156t96 -55q68 0 97 54t29 157t-29 158t-96 55t-97 -55.5t-30 -157.5z" />
    <glyph glyph-name="R" unicode="R" horiz-adv-x="629" 
d="M289 714q275 0 275 -211q0 -65 -29.5 -112.5t-82.5 -79.5l186 -311h-207l-137 263h-39v-263h-185v714h219zM286 569h-31v-166h29q42 0 67 20.5t25 70.5q0 36 -21.5 55.5t-68.5 19.5z" />
    <glyph glyph-name="S" unicode="S" horiz-adv-x="532" 
d="M502 217q0 -61 -29 -113t-86.5 -83t-144.5 -31q-63 0 -108.5 10t-95.5 35v172q52 -29 106 -44.5t97 -15.5q39 0 57 15t18 38q0 18 -10 31t-35 28t-68 37q-49 26 -85 53.5t-55.5 66.5t-19.5 99q0 101 67.5 155t182.5 54q60 0 112 -14.5t97 -36.5l-54 -149q-43 22 -82.5 34
t-74.5 12q-34 0 -49 -13t-15 -33q0 -17 10.5 -30.5t37.5 -29t75 -39.5q73 -37 112.5 -83t39.5 -125z" />
    <glyph glyph-name="T" unicode="T" horiz-adv-x="543" 
d="M364 0h-184v560h-158v154h499v-154h-157v-560z" />
    <glyph glyph-name="U" unicode="U" horiz-adv-x="695" 
d="M629 714v-445q0 -131 -71.5 -205t-212.5 -74q-135 0 -206.5 71t-71.5 204v449h185v-437q0 -70 24 -100t72 -30q50 0 73 30.5t23 100.5v436h185z" />
    <glyph glyph-name="V" unicode="V" horiz-adv-x="645" 
d="M645 714l-215 -714h-216l-214 714h203l88 -358q5 -22 11.5 -55t12 -65t7.5 -53q2 21 7.5 53t12 64t11.5 54l90 360h202z" />
    <glyph glyph-name="W" unicode="W" horiz-adv-x="955" 
d="M946 714l-161 -714h-216l-61 295q-4 19 -10 51t-12 68t-8 63q-2 -25 -7.5 -61t-12 -69.5t-9.5 -51.5l-62 -295h-215l-162 714h178l68 -341q4 -20 10.5 -55.5t13 -73.5t9.5 -65q5 39 13 87t17 92t15 70l63 286h163l60 -286q6 -27 15 -72t17 -92.5t12 -84.5q3 25 9 61.5
t12.5 72t10.5 59.5l69 342h181z" />
    <glyph glyph-name="X" unicode="X" horiz-adv-x="649" 
d="M647 0h-208l-117 217l-118 -217h-203l209 362l-197 352h200l107 -213l103 213h205l-197 -359z" />
    <glyph glyph-name="Y" unicode="Y" horiz-adv-x="613" 
d="M307 451l110 263h196l-214 -437v-277h-185v271l-214 443h198z" />
    <glyph glyph-name="Z" unicode="Z" horiz-adv-x="560" 
d="M536 0h-509v119l283 443h-277v152h496v-119l-283 -443h290v-152z" />
    <glyph glyph-name="bracketleft" unicode="[" horiz-adv-x="316" 
d="M296 -168h-245v902h245v-124h-92v-654h92v-124z" />
    <glyph glyph-name="backslash" unicode="\" horiz-adv-x="436" 
d="M162 724l270 -734h-159l-270 734h159z" />
    <glyph glyph-name="bracketright" unicode="]" horiz-adv-x="316" 
d="M21 -44h91v654h-91v124h244v-902h-244v124z" />
    <glyph glyph-name="asciicircum" unicode="^" horiz-adv-x="531" 
d="M-3 244l218 472h83l239 -472h-145l-132 271l-121 -271h-142z" />
    <glyph glyph-name="underscore" unicode="_" horiz-adv-x="500" 
d="M502 -185h-504v120h504v-120z" />
    <glyph glyph-name="grave" unicode="`" horiz-adv-x="389" 
d="M240 766q14 -22 34.5 -49.5t41 -53.5t33.5 -43v-14h-124q-17 12 -42.5 32t-52.5 42t-51 42t-39 34v10h200z" />
    <glyph glyph-name="a" unicode="a" horiz-adv-x="576" 
d="M310 563q97 0 152 -51t55 -149v-363h-126l-34 73h-3q-32 -43 -68.5 -63t-99.5 -20q-71 0 -112.5 48t-41.5 131q0 89 56.5 132t163.5 48l85 3v10q0 36 -16.5 52t-45.5 16q-30 0 -66 -11t-75 -30l-50 124q91 50 226 50zM337 247l-38 -2q-46 -2 -65.5 -18.5t-19.5 -47.5
q0 -29 13 -42.5t36 -13.5q31 0 52.5 22t21.5 57v45z" />
    <glyph glyph-name="b" unicode="b" horiz-adv-x="599" 
d="M240 760v-172q0 -49 -6 -106h6q22 37 55 59t83 22q81 0 131.5 -74.5t50.5 -210.5q0 -139 -51 -213.5t-137 -74.5q-50 0 -78.5 18t-53.5 46h-10l-28 -54h-142v760h180zM312 417q-38 0 -55 -28.5t-17 -90.5v-29q0 -68 16.5 -100t56.5 -32q64 0 64 143q0 137 -65 137z" />
    <glyph glyph-name="c" unicode="c" horiz-adv-x="500" 
d="M295 -10q-121 0 -189 68t-68 216q0 140 72 214.5t195 74.5q49 0 91.5 -11t79.5 -31l-51 -137q-31 16 -59 24.5t-57 8.5q-40 0 -64 -35.5t-24 -106.5q0 -73 24.5 -105.5t65.5 -32.5q78 0 148 49v-147q-33 -23 -73 -36t-91 -13z" />
    <glyph glyph-name="d" unicode="d" horiz-adv-x="599" 
d="M223 -10q-83 0 -134 74.5t-51 212.5t51.5 212t136.5 74q49 0 81 -21.5t54 -59.5h5q-3 27 -5.5 60t-2.5 61v157h181v-760h-139l-34 64h-8q-22 -34 -53 -54t-82 -20zM292 135q41 0 58 30.5t18 95.5v21q0 66 -17 99t-60 33q-31 0 -50.5 -34t-19.5 -104q0 -73 19.5 -107
t51.5 -34z" />
    <glyph glyph-name="e" unicode="e" horiz-adv-x="568" 
d="M290 563q112 0 177 -64.5t65 -188.5v-85h-313q1 -48 28.5 -75t82.5 -27q46 0 86 10.5t83 32.5v-135q-39 -21 -84 -31t-108 -10q-124 0 -196.5 69.5t-72.5 213.5q0 145 68 217.5t184 72.5zM296 434q-31 0 -51.5 -21t-23.5 -70h146q-1 43 -19 67t-52 24z" />
    <glyph glyph-name="f" unicode="f" horiz-adv-x="381" 
d="M373 414h-108v-414h-180v414h-69v91l72 46v9q0 108 41.5 156.5t134.5 48.5q39 0 70.5 -6.5t69.5 -19.5l-37 -122q-14 4 -30 7t-33 3q-39 0 -39 -57v-17h108v-139z" />
    <glyph glyph-name="g" unicode="g" horiz-adv-x="599" 
d="M226 563q51 0 83.5 -20.5t54.5 -57.5h6l13 68h156v-536q0 -125 -68 -191t-212 -66q-60 0 -107 8t-90 28v151q48 -22 90.5 -32t97.5 -10q52 0 80.5 20.5t28.5 64.5v9q0 31 5 71h-5q-21 -36 -53 -58t-84 -22q-83 0 -133.5 74t-50.5 211q0 138 51.5 213t136.5 75zM291 418
q-70 0 -70 -146q0 -71 18 -104t54 -33q41 0 58 29.5t17 91.5v25q0 68 -16.5 102.5t-60.5 34.5z" />
    <glyph glyph-name="h" unicode="h" horiz-adv-x="618" 
d="M240 760v-119q0 -52 -2.5 -91t-6.5 -65h9q23 41 57.5 59.5t82.5 18.5q78 0 129 -49.5t51 -153.5v-360h-181v304q0 111 -58 111q-47 0 -64 -42.5t-17 -125.5v-247h-180v760h180z" />
    <glyph glyph-name="i" unicode="i" horiz-adv-x="303" 
d="M152 776q42 0 69 -18.5t27 -66.5q0 -47 -27.5 -65.5t-68.5 -18.5q-43 0 -69.5 18.5t-26.5 65.5q0 48 26 66.5t70 18.5zM242 553v-553h-181v553h181z" />
    <glyph glyph-name="j" unicode="j" horiz-adv-x="302" 
d="M56 691q0 48 26 66.5t69 18.5t69.5 -18.5t26.5 -66.5q0 -47 -27 -65.5t-69 -18.5t-68.5 18.5t-26.5 65.5zM50 -240q-22 0 -49 3t-47 9v145q28 -9 54 -9q22 0 37 16.5t15 60.5v568h181v-598q0 -56 -20 -100t-62 -69.5t-109 -25.5z" />
    <glyph glyph-name="k" unicode="k" horiz-adv-x="608" 
d="M241 760v-300q0 -35 -2.5 -75.5t-6.5 -74.5h3q3 6 11.5 20.5t20 32t21.5 31.5l114 159h198l-176 -235l186 -318h-203l-109 199l-57 -44v-155h-181v760h181z" />
    <glyph glyph-name="l" unicode="l" horiz-adv-x="301" 
d="M240 0h-180v760h180v-760z" />
    <glyph glyph-name="m" unicode="m" horiz-adv-x="923" 
d="M686 563q87 0 132.5 -49t45.5 -154v-360h-180v303q0 61 -15 86.5t-44 25.5q-42 0 -57.5 -39.5t-15.5 -115.5v-260h-180v303q0 59 -14 85.5t-43 26.5q-43 0 -59 -42.5t-16 -128.5v-244h-180v553h138l24 -68h7q19 35 58.5 56.5t95.5 21.5t92 -20.5t56 -55.5h8
q23 36 60.5 56t86.5 20z" />
    <glyph glyph-name="n" unicode="n" horiz-adv-x="618" 
d="M381 563q81 0 130 -50t49 -153v-360h-181v304q0 55 -13 83t-47 28q-47 0 -63 -41t-16 -128v-246h-180v553h138l23 -71h8q23 39 61 60t91 21z" />
    <glyph glyph-name="o" unicode="o" horiz-adv-x="593" 
d="M553 278q0 -84 -29 -149t-86.5 -102t-142.5 -37q-79 0 -137 36.5t-89 101t-31 150.5q0 130 66.5 207.5t193.5 77.5q74 0 132 -33t90.5 -96.5t32.5 -155.5zM221 277q0 -72 17.5 -110t58.5 -38q40 0 56.5 37.5t16.5 111.5q0 73 -17 109.5t-57 36.5q-75 0 -75 -147z" />
    <glyph glyph-name="p" unicode="p" horiz-adv-x="599" 
d="M376 563q86 0 135 -74.5t49 -211.5q0 -139 -52 -213t-134 -74q-51 0 -82.5 20t-51.5 50h-5q2 -26 3.5 -49t1.5 -48v-203h-180v793h146l26 -70h8q23 39 54.5 59.5t81.5 20.5zM311 418q-39 0 -54 -31t-17 -95v-21q0 -66 15.5 -99.5t55.5 -33.5q33 0 49.5 33t16.5 106
q0 75 -17 108t-49 33z" />
    <glyph glyph-name="q" unicode="q" horiz-adv-x="599" 
d="M359 -240v220q0 19 1.5 41.5t3.5 48.5h-5q-21 -36 -54 -58t-83 -22q-83 0 -133.5 74t-50.5 211q0 138 51.5 213t136.5 75q51 0 83.5 -20.5t54.5 -57.5h6l13 68h156v-793h-180zM293 135q41 0 58 29.5t17 91.5v25q0 68 -16.5 102.5t-60.5 34.5q-70 0 -70 -146
q0 -71 18 -104t54 -33z" />
    <glyph glyph-name="r" unicode="r" horiz-adv-x="435" 
d="M371 563q13 0 28 -2t26 -4l-16 -178q-10 3 -23.5 4.5t-35.5 1.5q-27 0 -52 -9t-41 -33t-16 -69v-274h-181v553h136l27 -88h9q20 38 57 68t82 30z" />
    <glyph glyph-name="s" unicode="s" horiz-adv-x="473" 
d="M438 170q0 -82 -52 -131t-165 -49q-53 0 -96.5 6.5t-87.5 24.5v153q44 -22 91.5 -33.5t81.5 -11.5q55 0 55 29q0 11 -8 20t-30.5 20.5t-66.5 30.5q-62 28 -93 67.5t-31 103.5q0 80 56.5 121.5t153.5 41.5q50 0 95 -12t92 -35l-48 -123q-35 18 -72 29.5t-63 11.5
q-42 0 -42 -24q0 -10 7 -17.5t28.5 -18t63.5 -29.5q64 -29 97.5 -67t33.5 -108z" />
    <glyph glyph-name="t" unicode="t" horiz-adv-x="421" 
d="M311 137q21 0 41 5.5t43 13.5v-135q-30 -14 -62.5 -22.5t-79.5 -8.5q-82 0 -126.5 42.5t-44.5 149.5v232h-63v81l80 53l45 116h119v-111h124v-139h-124v-223q0 -54 48 -54z" />
    <glyph glyph-name="u" unicode="u" horiz-adv-x="618" 
d="M558 553v-553h-137l-22 69h-10q-24 -41 -63.5 -60t-88.5 -19q-78 0 -128 50t-50 153v360h181v-304q0 -55 13 -83t44 -28q50 0 65.5 42.5t15.5 119.5v253h180z" />
    <glyph glyph-name="v" unicode="v" horiz-adv-x="567" 
d="M192 0l-191 553h187l80 -306q4 -13 7.5 -34.5t4.5 -42.5h3q1 20 4.5 40t7.5 36l84 307h187l-191 -553h-183z" />
    <glyph glyph-name="w" unicode="w" horiz-adv-x="846" 
d="M501 0l-52 243q-5 25 -10 55.5t-9 59.5t-7 47h-3q-2 -19 -7 -48.5t-10 -61t-11 -56.5l-50 -239h-195l-138 553h179l39 -198q7 -37 14 -89.5t9 -95.5h3q2 26 6.5 59.5t10 64.5t9.5 50l44 209h202l41 -212q8 -37 15.5 -86t11.5 -85h3q3 43 9.5 95.5t14.5 89.5l42 198h175
l-139 -553h-197z" />
    <glyph glyph-name="x" unicode="x" horiz-adv-x="573" 
d="M165 282l-153 271h202l73 -151l73 151h202l-155 -271l161 -282h-202l-81 164l-79 -164h-201z" />
    <glyph glyph-name="y" unicode="y" horiz-adv-x="566" 
d="M0 553h190l81 -289q4 -16 7 -36t4 -36h4q2 19 6 36.5t8 34.5l81 290h185l-200 -588q-36 -106 -90 -155.5t-151 -49.5q-23 0 -41.5 2.5t-33.5 5.5v147q10 -2 24 -4t28 -2q41 0 60 23.5t35 68.5l2 7z" />
    <glyph glyph-name="z" unicode="z" horiz-adv-x="467" 
d="M445 0h-424v105l209 306h-197v142h402v-114l-200 -297h210v-142z" />
    <glyph glyph-name="braceleft" unicode="{" horiz-adv-x="409" 
d="M381 -168q-97 0 -149.5 16t-73.5 53t-21 99v124q0 43 -33 63t-80 20v141q49 0 81 20t32 63v127q0 58 19 95t71.5 54t153.5 17v-133q-21 -1 -41.5 -4t-33.5 -13.5t-13 -34.5v-135q0 -58 -27.5 -87t-79.5 -36v-6q53 -9 80 -37t27 -83v-137q0 -34 26 -43t62 -10v-133z" />
    <glyph glyph-name="bar" unicode="|" horiz-adv-x="476" 
d="M171 764h134v-986h-134v986z" />
    <glyph glyph-name="braceright" unicode="}" horiz-adv-x="409" 
d="M28 -168v133q35 1 61.5 10t26.5 43v137q0 55 26.5 83t80.5 37v6q-53 7 -80 36t-27 87v135q0 25 -13.5 35.5t-34 13t-40.5 3.5v133q98 0 151 -16.5t73 -53t20 -96.5v-127q0 -43 32 -63t81 -20v-141q-47 0 -80 -20t-33 -63v-124q0 -60 -19.5 -97t-72 -54t-152.5 -17z" />
    <glyph glyph-name="asciitilde" unicode="~" horiz-adv-x="554" 
d="M259 289q-34 15 -61 21t-50 6q-27 0 -55 -16.5t-54 -42.5v137q50 53 124 53q30 0 60 -7t72 -24q34 -15 61.5 -21t49.5 -6q26 0 55 16.5t54 42.5v-137q-50 -53 -124 -53q-30 0 -59.5 7t-72.5 24z" />
    <glyph glyph-name="uni00A0" unicode="&#xa0;" horiz-adv-x="229" 
 />
    <glyph glyph-name="exclamdown" unicode="&#xa1;" horiz-adv-x="283" 
d="M242 470q0 -50 -28 -72t-72 -22q-42 0 -69.5 22t-27.5 72q0 47 28 70t69 23q43 0 71.5 -23t28.5 -70zM65 299h154l24 -468h-202z" />
    <glyph glyph-name="cent" unicode="&#xa2;" horiz-adv-x="553" 
d="M353 724v-75q38 -3 75.5 -13.5t68.5 -27.5l-51 -137q-30 16 -58.5 24.5t-55.5 8.5q-41 0 -65 -33.5t-24 -108.5q0 -76 23.5 -107t64.5 -31q37 0 76 13t73 36v-147q-26 -18 -58 -30t-69 -17v-89h-95v91q-96 13 -147 83.5t-51 196.5q0 123 53 195t145 88v80h95z" />
    <glyph glyph-name="sterling" unicode="&#xa3;" horiz-adv-x="553" 
d="M332 725q48 0 94 -10.5t87 -29.5l-49 -139q-34 14 -62.5 20.5t-50.5 6.5q-23 0 -36.5 -14.5t-13.5 -52.5v-62h154v-131h-154v-48q0 -43 -22.5 -69.5t-50.5 -41.5h301v-154h-481v148q25 16 41.5 29.5t24.5 33.5t8 53v49h-74v131h74v66q0 110 57.5 162.5t152.5 52.5z" />
    <glyph glyph-name="currency" unicode="&#xa4;" horiz-adv-x="558" 
d="M83 353q0 24 6.5 46.5t16.5 43.5l-62 60l82 83l61 -61q42 22 89 22q46 0 90 -24l61 63l84 -80l-63 -62q22 -41 22 -91t-22 -91l60 -59l-81 -81l-61 59q-20 -10 -43 -15.5t-47 -5.5q-52 0 -91 20l-59 -57l-81 81l61 60q-23 39 -23 89zM200 353q0 -31 22.5 -53.5
t53.5 -22.5q32 0 55.5 22.5t23.5 53.5q0 32 -23.5 54.5t-55.5 22.5q-31 0 -53.5 -22.5t-22.5 -54.5z" />
    <glyph glyph-name="yen" unicode="&#xa5;" horiz-adv-x="553" 
d="M276 468l86 246h188l-163 -348h96v-103h-120v-57h120v-102h-120v-104h-173v104h-121v102h121v57h-121v103h94l-160 348h187z" />
    <glyph glyph-name="brokenbar" unicode="&#xa6;" horiz-adv-x="476" 
d="M171 759h134v-405h-134v405zM171 182h134v-404h-134v404z" />
    <glyph glyph-name="section" unicode="&#xa7;" horiz-adv-x="477" 
d="M47 388q0 38 22.5 67t54.5 49q-66 48 -66 119q0 65 50.5 104.5t139.5 39.5q47 0 91.5 -11.5t81.5 -30.5l-45 -109q-32 18 -65 30t-61 12q-51 0 -51 -36q0 -17 18 -33.5t63 -35.5q81 -35 116.5 -73.5t35.5 -88.5q0 -47 -20 -76t-49 -52q27 -21 42.5 -51t15.5 -67
q0 -70 -52.5 -114.5t-151.5 -44.5q-96 0 -165 42v120q38 -22 85 -37.5t79 -15.5q34 0 49 12t15 33q0 14 -6 24t-23 21t-50 27q-49 24 -83.5 47t-52.5 54t-18 75zM183 405q0 -24 17.5 -42t58.5 -40l18 -10q7 8 13 21t6 30q0 28 -19 49t-67 42q-11 -7 -19 -19t-8 -31z" />
    <glyph glyph-name="dieresis" unicode="&#xa8;" horiz-adv-x="550" 
d="M91 690q0 39 22.5 58t56.5 19t57 -19.5t23 -57.5t-23 -57t-57 -19t-56.5 19t-22.5 57zM310 690q0 39 22.5 58t57.5 19q34 0 57 -19.5t23 -57.5t-23 -57t-57 -19q-35 0 -57.5 19t-22.5 57z" />
    <glyph glyph-name="copyright" unicode="&#xa9;" horiz-adv-x="824" 
d="M412 -10q-82 0 -149 27.5t-116 77.5t-75.5 117t-26.5 146q0 80 27.5 147t76.5 116t116 76t147 27t147 -27t116.5 -76.5t76.5 -117t27 -147.5t-27 -147t-76 -116t-116 -76t-148 -27zM413 68q83 0 145.5 37t97.5 102.5t35 149.5q0 85 -36 150.5t-99.5 102t-144.5 36.5
q-83 0 -146 -37.5t-98 -103t-35 -149.5q0 -86 36 -150.5t99.5 -101t145.5 -36.5zM414 128q-106 0 -161.5 62t-55.5 169q0 103 54 164.5t158 61.5q43 0 81.5 -10t75.5 -28l-45 -96q-53 27 -102 27q-42 0 -66 -31t-24 -92q0 -63 22.5 -91.5t70.5 -28.5q31 0 63 8.5t62 24.5
v-109q-61 -31 -133 -31z" />
    <glyph glyph-name="ordfeminine" unicode="&#xaa;" horiz-adv-x="379" 
d="M203 722q62 0 100 -35.5t38 -105.5v-219h-79l-21 60q-18 -32 -43.5 -49t-67.5 -17q-48 0 -77.5 31t-29.5 85q0 64 43 87.5t117 27.5l39 2v3q0 38 -46 38q-26 0 -48 -7t-50 -21l-36 81q36 18 72 28.5t89 10.5zM222 522l-36 -3q-26 -2 -35 -13.5t-9 -27.5q0 -33 32 -33
q23 0 35.5 20t12.5 46v11z" />
    <glyph glyph-name="guillemotleft" unicode="&#xab;" horiz-adv-x="637" 
d="M31 287l177 235l130 -69l-122 -172l122 -173l-130 -68l-177 234v13zM296 287l177 235l130 -69l-121 -172l121 -173l-130 -68l-177 234v13z" />
    <glyph glyph-name="logicalnot" unicode="&#xac;" horiz-adv-x="554" 
d="M511 418v-302h-133v171h-337v131h470z" />
    <glyph glyph-name="uni00AD" unicode="&#xad;" horiz-adv-x="321" 
d="M24 192v152h273v-152h-273z" />
    <glyph glyph-name="registered" unicode="&#xae;" horiz-adv-x="824" 
d="M412 -10q-82 0 -149 27.5t-116 77.5t-75.5 117t-26.5 146q0 80 27.5 147t76.5 116t116 76t147 27t147 -27t116.5 -76.5t76.5 -117t27 -147.5t-27 -147t-76 -116t-116 -76t-148 -27zM413 68q83 0 145.5 37t97.5 102.5t35 149.5q0 85 -36 150.5t-99.5 102t-144.5 36.5
q-83 0 -146 -37.5t-98 -103t-35 -149.5q0 -86 36 -150.5t99.5 -101t145.5 -36.5zM252 153v427h140q99 0 143.5 -34t44.5 -98q0 -48 -19 -75.5t-50 -42.5l91 -177h-134l-68 156h-20v-156h-128zM380 395h9q29 0 45 10.5t16 37.5q0 25 -15 33.5t-45 8.5h-10v-90z" />
    <glyph glyph-name="overscore" unicode="&#xaf;" horiz-adv-x="498" 
d="M501 760h-504v120h504v-120z" />
    <glyph glyph-name="degree" unicode="&#xb0;" horiz-adv-x="399" 
d="M199 384q-49 0 -88 21.5t-61.5 60t-22.5 88.5t22.5 88t61.5 60t88 22q50 0 89 -22t61.5 -60t22.5 -88t-22.5 -88.5t-61.5 -60t-89 -21.5zM199 492q29 0 46 17t17 45t-17 45.5t-46 17.5t-45.5 -17.5t-16.5 -45.5t16.5 -45t45.5 -17z" />
    <glyph glyph-name="plusminus" unicode="&#xb1;" horiz-adv-x="554" 
d="M343 467h170v-131h-170v-176h-132v176h-170v131h170v179h132v-179zM41 0v131h472v-131h-472z" />
    <glyph glyph-name="uni00B2" unicode="&#xb2;" horiz-adv-x="380" 
d="M346 416h-311v101l100 104q39 42 53.5 64t14.5 39q0 29 -33 29q-17 0 -36 -9t-43 -34l-63 79q27 29 67.5 47.5t98.5 18.5q69 0 105 -32.5t36 -83.5q0 -38 -16 -69t-45.5 -61.5t-69.5 -68.5l-21 -18h163v-106z" />
    <glyph glyph-name="uni00B3" unicode="&#xb3;" horiz-adv-x="380" 
d="M186 853q68 0 108 -28.5t40 -76.5q0 -38 -17.5 -64.5t-56.5 -42.5v-4q87 -24 87 -105q0 -59 -47 -91.5t-126 -32.5q-85 0 -140 34v112q28 -21 63 -30.5t72 -9.5q25 0 39 8t14 25t-12 27.5t-50 10.5h-49v93h37q38 0 51.5 11t13.5 28q0 14 -9.5 24.5t-32.5 10.5t-43.5 -8
t-44.5 -28l-53 80q30 26 69 41.5t87 15.5z" />
    <glyph glyph-name="acute" unicode="&#xb4;" horiz-adv-x="389" 
d="M349 766v-10q-20 -18 -53.5 -46t-69.5 -56t-62 -48h-124v14q25 32 57 72t53 74h199z" />
    <glyph glyph-name="uni00B5" unicode="&#xb5;" horiz-adv-x="620" 
d="M559 553v-553h-136l-24 72h-7q-14 -40 -39 -61t-53 -21q-24 0 -37.5 10t-25.5 31h-2q2 -21 3.5 -53t1.5 -62v-156h-180v793h180v-303q0 -56 14 -84t47 -28q47 0 62 46t15 123v246h181z" />
    <glyph glyph-name="paragraph" unicode="&#xb6;" horiz-adv-x="594" 
d="M536 -127h-90v787h-70v-787h-90v400q-13 -5 -25 -7t-31 -2q-88 0 -137.5 56.5t-49.5 188.5q0 137 53.5 194t147.5 57h292v-887z" />
    <glyph glyph-name="periodcentered" unicode="&#xb7;" horiz-adv-x="283" 
d="M43 353q0 49 28.5 71.5t71.5 22.5q42 0 69 -22.5t27 -71.5q0 -47 -27.5 -70t-68.5 -23q-43 0 -71.5 23t-28.5 70z" />
    <glyph glyph-name="cedilla" unicode="&#xb8;" horiz-adv-x="235" 
d="M233 -124q0 -53 -35.5 -84.5t-96.5 -31.5q-31 0 -56.5 4t-43.5 10v93q31 -10 61 -10q39 0 39 28q0 32 -69 41l31 74h88l-11 -31q35 -7 64 -28t29 -65z" />
    <glyph glyph-name="uni00B9" unicode="&#xb9;" horiz-adv-x="380" 
d="M290 844v-428h-131v174q0 13 0.5 34t1.5 41.5t3 32.5q-14 -19 -28 -30l-41 -36l-66 81l158 131h103z" />
    <glyph glyph-name="ordmasculine" unicode="&#xba;" horiz-adv-x="374" 
d="M351 539q0 -86 -44.5 -134.5t-120.5 -48.5q-73 0 -118 49.5t-45 133.5q0 87 44 135t120 48q71 0 117.5 -48.5t46.5 -134.5zM142 539q0 -86 45 -86q44 0 44 86q0 87 -44 87q-45 0 -45 -87z" />
    <glyph glyph-name="guillemotright" unicode="&#xbb;" horiz-adv-x="637" 
d="M606 274l-177 -234l-131 68l122 173l-122 172l131 69l177 -235v-13zM340 274l-176 -234l-131 68l121 173l-121 172l131 69l176 -235v-13z" />
    <glyph glyph-name="onequarter" unicode="&#xbc;" horiz-adv-x="873" 
d="M183 0l360 714h139l-359 -714h-140zM137 286v174q0 19 1 49.5t4 58.5q-4 -6 -11 -14t-15 -15l-43 -37l-65 81l158 131h102v-428h-131zM679 0v68h-173v90l161 272h139v-266h58v-96h-58v-68h-127zM605 164h74v82q0 34 3 66q-10 -25 -17 -41t-12 -24z" />
    <glyph glyph-name="onehalf" unicode="&#xbd;" horiz-adv-x="898" 
d="M185 0l359 714h140l-360 -714h-139zM137 286v174q0 10 1 32.5t2 44.5t2 31q-4 -6 -12 -14.5t-16 -15.5l-41 -36l-65 81l158 131h102v-428h-131zM553 0v101l99 103q40 40 54.5 61.5t14.5 40.5q0 31 -33 31q-37 0 -79 -43l-63 79q31 32 72 49t94 17q68 0 104.5 -31.5
t36.5 -84.5q0 -45 -20 -77.5t-46 -58.5l-86 -81h163v-106h-311z" />
    <glyph glyph-name="threequarters" unicode="&#xbe;" horiz-adv-x="896" 
d="M180 278q-84 0 -140 34v112q54 -40 135 -40q53 0 53 33q0 21 -15 29.5t-47 8.5h-48v93h37q65 0 65 39q0 14 -10 24.5t-33 10.5t-43 -8t-44 -28l-54 80q69 57 156 57q68 0 108.5 -28t40.5 -77q0 -38 -17.5 -64.5t-56.5 -42.5v-4q86 -24 86 -105q0 -59 -46.5 -91.5
t-126.5 -32.5zM215 0l359 714h140l-359 -714h-140zM701 0v68h-173v90l161 272h139v-266h58v-96h-58v-68h-127zM627 164h74v82q0 34 3 66q-9 -25 -16.5 -41t-12.5 -24z" />
    <glyph glyph-name="questiondown" unicode="&#xbf;" horiz-adv-x="467" 
d="M337 299v-42q0 -46 -17.5 -79t-64.5 -66q-42 -30 -54.5 -49.5t-12.5 -42.5q0 -21 17 -33t47 -12q64 0 153 52l62 -131q-52 -32 -109 -50.5t-121 -18.5q-106 0 -163.5 48.5t-57.5 129.5q0 60 26.5 102t81.5 82q42 31 55 46.5t13 38.5v25h145zM359 470q0 -49 -28 -71.5
t-72 -22.5q-42 0 -69.5 22.5t-27.5 71.5q0 47 28 70t69 23q43 0 71.5 -23t28.5 -70z" />
    <glyph glyph-name="Agrave" unicode="&#xc0;" horiz-adv-x="670" 
d="M470 0l-32 136h-204l-32 -136h-202l211 716h245l214 -716h-200zM403 289l-30 133q-5 22 -12.5 54t-14 64t-10.5 55q-4 -23 -10.5 -53.5t-13 -62t-12.5 -56.5l-31 -134h134zM341 927q14 -22 34.5 -49.5t41 -53.5t33.5 -43v-14h-124q-17 12 -42.5 32t-52.5 42t-51 42
t-39 34v10h200z" />
    <glyph glyph-name="Aacute" unicode="&#xc1;" horiz-adv-x="670" 
d="M470 0l-32 136h-204l-32 -136h-202l211 716h245l214 -716h-200zM403 289l-30 133q-5 22 -12.5 54t-14 64t-10.5 55q-4 -23 -10.5 -53.5t-13 -62t-12.5 -56.5l-31 -134h134zM550 927v-10q-20 -18 -53.5 -46t-69.5 -56t-62 -48h-124v14q25 32 57 72t53 74h199z" />
    <glyph glyph-name="Acircumflex" unicode="&#xc2;" horiz-adv-x="670" 
d="M470 0l-32 136h-204l-32 -136h-202l211 716h245l214 -716h-200zM403 289l-30 133q-5 22 -12.5 54t-14 64t-10.5 55q-4 -23 -10.5 -53.5t-13 -62t-12.5 -56.5l-31 -134h134zM424 927q22 -34 54.5 -74.5t59.5 -71.5v-14h-114q-22 14 -43 32t-45 41q-24 -23 -44 -41t-41 -32
h-117v14q17 18 39 44t42.5 53.5t33.5 48.5h175z" />
    <glyph glyph-name="Atilde" unicode="&#xc3;" horiz-adv-x="670" 
d="M470 0l-32 136h-204l-32 -136h-202l211 716h245l214 -716h-200zM403 289l-30 133q-5 22 -12.5 54t-14 64t-10.5 55q-4 -23 -10.5 -53.5t-13 -62t-12.5 -56.5l-31 -134h134zM141 765q4 75 29.5 121t81.5 46q26 0 53 -11.5t53.5 -23.5t50.5 -12q10 0 19 10t13 38h88
q-4 -87 -35 -127t-75 -40q-28 0 -56.5 11.5t-55 23.5t-47.5 12q-8 0 -17.5 -9t-14.5 -39h-87z" />
    <glyph glyph-name="Adieresis" unicode="&#xc4;" horiz-adv-x="670" 
d="M470 0l-32 136h-204l-32 -136h-202l211 716h245l214 -716h-200zM403 289l-30 133q-5 22 -12.5 54t-14 64t-10.5 55q-4 -23 -10.5 -53.5t-13 -62t-12.5 -56.5l-31 -134h134zM146 851q0 39 22.5 58t56.5 19t57 -19.5t23 -57.5t-23 -57t-57 -19t-56.5 19t-22.5 57zM365 851
q0 39 22.5 58t57.5 19q34 0 57 -19.5t23 -57.5t-23 -57t-57 -19q-35 0 -57.5 19t-22.5 57z" />
    <glyph glyph-name="Aring" unicode="&#xc5;" horiz-adv-x="670" 
d="M470 0l-32 136h-204l-32 -136h-202l211 716h245l214 -716h-200zM403 289l-30 133q-5 22 -12.5 54t-14 64t-10.5 55q-4 -23 -10.5 -53.5t-13 -62t-12.5 -56.5l-31 -134h134zM333 635q-57 0 -92 34t-35 89q0 56 35 90t92 34q55 0 92.5 -34t37.5 -89q0 -56 -37.5 -90
t-92.5 -34zM333 717q17 0 29 11.5t12 29.5q0 19 -12 30t-29 11t-29 -11t-12 -30q0 -18 10.5 -29.5t30.5 -11.5z" />
    <glyph glyph-name="AE" unicode="&#xc6;" horiz-adv-x="871" 
d="M826 0h-395v136h-186l-45 -136h-205l275 714h556v-151h-211v-118h195v-151h-195v-141h211v-153zM297 291h134v267h-43z" />
    <glyph glyph-name="Ccedilla" unicode="&#xc7;" horiz-adv-x="597" 
d="M368 570q-62 0 -96.5 -57.5t-34.5 -158.5q0 -210 140 -210q43 0 83 13t80 32v-159q-43 -21 -88.5 -30.5t-97.5 -9.5q-105 0 -173 44.5t-101 126.5t-33 194q0 109 37 192t107.5 130t171.5 47q50 0 102.5 -12t102.5 -38l-53 -148q-35 20 -71 32t-76 12zM456 -124
q0 -53 -35.5 -84.5t-96.5 -31.5q-31 0 -56.5 4t-43.5 10v93q31 -10 61 -10q39 0 39 28q0 32 -69 41l31 74h88l-11 -31q35 -7 64 -28t29 -65z" />
    <glyph glyph-name="Egrave" unicode="&#xc8;" horiz-adv-x="510" 
d="M465 0h-395v714h395v-151h-210v-118h195v-151h-195v-141h210v-153zM273 927q14 -22 34.5 -49.5t41 -53.5t33.5 -43v-14h-124q-17 12 -42.5 32t-52.5 42t-51 42t-39 34v10h200z" />
    <glyph glyph-name="Eacute" unicode="&#xc9;" horiz-adv-x="510" 
d="M465 0h-395v714h395v-151h-210v-118h195v-151h-195v-141h210v-153zM482 927v-10q-20 -18 -53.5 -46t-69.5 -56t-62 -48h-124v14q25 32 57 72t53 74h199z" />
    <glyph glyph-name="Ecircumflex" unicode="&#xca;" horiz-adv-x="510" 
d="M465 0h-395v714h395v-151h-210v-118h195v-151h-195v-141h210v-153zM356 927q22 -34 54.5 -74.5t59.5 -71.5v-14h-114q-22 14 -43 32t-45 41q-24 -23 -44 -41t-41 -32h-117v14q17 18 39 44t42.5 53.5t33.5 48.5h175z" />
    <glyph glyph-name="Edieresis" unicode="&#xcb;" horiz-adv-x="510" 
d="M465 0h-395v714h395v-151h-210v-118h195v-151h-195v-141h210v-153zM77 851q0 39 22.5 58t56.5 19t57 -19.5t23 -57.5t-23 -57t-57 -19t-56.5 19t-22.5 57zM296 851q0 39 22.5 58t57.5 19q34 0 57 -19.5t23 -57.5t-23 -57t-57 -19q-35 0 -57.5 19t-22.5 57z" />
    <glyph glyph-name="Igrave" unicode="&#xcc;" horiz-adv-x="408" 
d="M378 0h-347v103l81 34v440l-81 34v103h347v-103l-81 -34v-440l81 -34v-103zM210 927q14 -22 34.5 -49.5t41 -53.5t33.5 -43v-14h-124q-17 12 -42.5 32t-52.5 42t-51 42t-39 34v10h200z" />
    <glyph glyph-name="Iacute" unicode="&#xcd;" horiz-adv-x="408" 
d="M378 0h-347v103l81 34v440l-81 34v103h347v-103l-81 -34v-440l81 -34v-103zM419 927v-10q-20 -18 -53.5 -46t-69.5 -56t-62 -48h-124v14q25 32 57 72t53 74h199z" />
    <glyph glyph-name="Icircumflex" unicode="&#xce;" horiz-adv-x="408" 
d="M378 0h-347v103l81 34v440l-81 34v103h347v-103l-81 -34v-440l81 -34v-103zM293 927q22 -34 54.5 -74.5t59.5 -71.5v-14h-114q-22 14 -43 32t-45 41q-24 -23 -44 -41t-41 -32h-117v14q17 18 39 44t42.5 53.5t33.5 48.5h175z" />
    <glyph glyph-name="Idieresis" unicode="&#xcf;" horiz-adv-x="408" 
d="M378 0h-347v103l81 34v440l-81 34v103h347v-103l-81 -34v-440l81 -34v-103zM15 851q0 39 22.5 58t56.5 19t57 -19.5t23 -57.5t-23 -57t-57 -19t-56.5 19t-22.5 57zM234 851q0 39 22.5 58t57.5 19q34 0 57 -19.5t23 -57.5t-23 -57t-57 -19q-35 0 -57.5 19t-22.5 57z" />
    <glyph glyph-name="Eth" unicode="&#xd0;" horiz-adv-x="680" 
d="M299 714q161 0 248 -88t87 -254q0 -123 -42.5 -205.5t-121 -124.5t-186.5 -42h-214v287h-60v145h60v282h229zM299 561h-44v-129h90v-145h-90v-133h32q80 0 117.5 52t37.5 159q0 101 -35.5 148.5t-107.5 47.5z" />
    <glyph glyph-name="Ntilde" unicode="&#xd1;" horiz-adv-x="769" 
d="M698 0h-232l-234 481h-4q1 -15 3 -46t4 -67.5t2 -67.5v-300h-167v714h232l233 -473h3q0 13 -2 43.5t-3.5 65.5t-1.5 64v300h167v-714zM189 765q4 75 29.5 121t81.5 46q26 0 53 -11.5t53.5 -23.5t50.5 -12q10 0 19 10t13 38h88q-4 -87 -35 -127t-75 -40q-28 0 -56.5 11.5
t-55 23.5t-47.5 12q-8 0 -17.5 -9t-14.5 -39h-87z" />
    <glyph glyph-name="Ograve" unicode="&#xd2;" horiz-adv-x="732" 
d="M685 358q0 -114 -34 -196.5t-104.5 -127t-180.5 -44.5q-162 0 -240.5 98.5t-78.5 270.5q0 171 78.5 268.5t241.5 97.5q165 0 241.5 -97.5t76.5 -269.5zM240 358q0 -101 30 -156t96 -55q68 0 97 54t29 157t-29 158t-96 55t-97 -55.5t-30 -157.5zM373 927
q14 -22 34.5 -49.5t41 -53.5t33.5 -43v-14h-124q-17 12 -42.5 32t-52.5 42t-51 42t-39 34v10h200z" />
    <glyph glyph-name="Oacute" unicode="&#xd3;" horiz-adv-x="732" 
d="M685 358q0 -114 -34 -196.5t-104.5 -127t-180.5 -44.5q-162 0 -240.5 98.5t-78.5 270.5q0 171 78.5 268.5t241.5 97.5q165 0 241.5 -97.5t76.5 -269.5zM240 358q0 -101 30 -156t96 -55q68 0 97 54t29 157t-29 158t-96 55t-97 -55.5t-30 -157.5zM582 927v-10
q-20 -18 -53.5 -46t-69.5 -56t-62 -48h-124v14q25 32 57 72t53 74h199z" />
    <glyph glyph-name="Ocircumflex" unicode="&#xd4;" horiz-adv-x="732" 
d="M685 358q0 -114 -34 -196.5t-104.5 -127t-180.5 -44.5q-162 0 -240.5 98.5t-78.5 270.5q0 171 78.5 268.5t241.5 97.5q165 0 241.5 -97.5t76.5 -269.5zM240 358q0 -101 30 -156t96 -55q68 0 97 54t29 157t-29 158t-96 55t-97 -55.5t-30 -157.5zM455 927
q22 -34 54.5 -74.5t59.5 -71.5v-14h-114q-22 14 -43 32t-45 41q-24 -23 -44 -41t-41 -32h-117v14q17 18 39 44t42.5 53.5t33.5 48.5h175z" />
    <glyph glyph-name="Otilde" unicode="&#xd5;" horiz-adv-x="732" 
d="M685 358q0 -114 -34 -196.5t-104.5 -127t-180.5 -44.5q-162 0 -240.5 98.5t-78.5 270.5q0 171 78.5 268.5t241.5 97.5q165 0 241.5 -97.5t76.5 -269.5zM240 358q0 -101 30 -156t96 -55q68 0 97 54t29 157t-29 158t-96 55t-97 -55.5t-30 -157.5zM172 765q4 75 29.5 121
t81.5 46q26 0 53 -11.5t53.5 -23.5t50.5 -12q10 0 19 10t13 38h88q-4 -87 -35 -127t-75 -40q-28 0 -56.5 11.5t-55 23.5t-47.5 12q-8 0 -17.5 -9t-14.5 -39h-87z" />
    <glyph glyph-name="Odieresis" unicode="&#xd6;" horiz-adv-x="732" 
d="M685 358q0 -114 -34 -196.5t-104.5 -127t-180.5 -44.5q-162 0 -240.5 98.5t-78.5 270.5q0 171 78.5 268.5t241.5 97.5q165 0 241.5 -97.5t76.5 -269.5zM240 358q0 -101 30 -156t96 -55q68 0 97 54t29 157t-29 158t-96 55t-97 -55.5t-30 -157.5zM177 851q0 39 22.5 58
t56.5 19t57 -19.5t23 -57.5t-23 -57t-57 -19t-56.5 19t-22.5 57zM396 851q0 39 22.5 58t57.5 19q34 0 57 -19.5t23 -57.5t-23 -57t-57 -19q-35 0 -57.5 19t-22.5 57z" />
    <glyph glyph-name="multiply" unicode="&#xd7;" horiz-adv-x="554" 
d="M405 572l92 -89l-130 -130l128 -129l-90 -90l-130 128l-129 -127l-88 91l126 127l-127 127l89 92l129 -126z" />
    <glyph glyph-name="Oslash" unicode="&#xd8;" horiz-adv-x="732" 
d="M685 358q0 -114 -34 -196.5t-104.5 -127t-180.5 -44.5q-79 0 -138 22l-38 -65l-88 52l41 69q-51 52 -73.5 125.5t-22.5 165.5q0 171 78.5 268.5t241.5 97.5q86 0 146 -27l34 58l88 -49l-39 -66q46 -47 67.5 -119t21.5 -164zM238 358q0 -33 2.5 -61.5t9.5 -51.5l179 309
q-27 19 -62 19q-68 0 -98.5 -56t-30.5 -159zM494 358q0 29 -2 54t-6 46l-176 -301q22 -13 56 -13q68 0 98 55.5t30 158.5z" />
    <glyph glyph-name="Ugrave" unicode="&#xd9;" horiz-adv-x="695" 
d="M629 714v-445q0 -131 -71.5 -205t-212.5 -74q-135 0 -206.5 71t-71.5 204v449h185v-437q0 -70 24 -100t72 -30q50 0 73 30.5t23 100.5v436h185zM354 927q14 -22 34.5 -49.5t41 -53.5t33.5 -43v-14h-124q-17 12 -42.5 32t-52.5 42t-51 42t-39 34v10h200z" />
    <glyph glyph-name="Uacute" unicode="&#xda;" horiz-adv-x="695" 
d="M629 714v-445q0 -131 -71.5 -205t-212.5 -74q-135 0 -206.5 71t-71.5 204v449h185v-437q0 -70 24 -100t72 -30q50 0 73 30.5t23 100.5v436h185zM563 927v-10q-20 -18 -53.5 -46t-69.5 -56t-62 -48h-124v14q25 32 57 72t53 74h199z" />
    <glyph glyph-name="Ucircumflex" unicode="&#xdb;" horiz-adv-x="695" 
d="M629 714v-445q0 -131 -71.5 -205t-212.5 -74q-135 0 -206.5 71t-71.5 204v449h185v-437q0 -70 24 -100t72 -30q50 0 73 30.5t23 100.5v436h185zM437 927q22 -34 54.5 -74.5t59.5 -71.5v-14h-114q-22 14 -43 32t-45 41q-24 -23 -44 -41t-41 -32h-117v14q17 18 39 44
t42.5 53.5t33.5 48.5h175z" />
    <glyph glyph-name="Udieresis" unicode="&#xdc;" horiz-adv-x="695" 
d="M629 714v-445q0 -131 -71.5 -205t-212.5 -74q-135 0 -206.5 71t-71.5 204v449h185v-437q0 -70 24 -100t72 -30q50 0 73 30.5t23 100.5v436h185zM158 851q0 39 22.5 58t56.5 19t57 -19.5t23 -57.5t-23 -57t-57 -19t-56.5 19t-22.5 57zM377 851q0 39 22.5 58t57.5 19
q34 0 57 -19.5t23 -57.5t-23 -57t-57 -19q-35 0 -57.5 19t-22.5 57z" />
    <glyph glyph-name="Yacute" unicode="&#xdd;" horiz-adv-x="613" 
d="M307 451l110 263h196l-214 -437v-277h-185v271l-214 443h198zM522 927v-10q-20 -18 -53.5 -46t-69.5 -56t-62 -48h-124v14q25 32 57 72t53 74h199z" />
    <glyph glyph-name="Thorn" unicode="&#xde;" horiz-adv-x="580" 
d="M554 383q0 -67 -24.5 -123.5t-80 -91.5t-147.5 -35h-47v-133h-185v714h185v-104h49q125 0 187.5 -59t62.5 -168zM255 285h29q34 0 59 22.5t25 74.5q0 76 -71 76h-42v-173z" />
    <glyph glyph-name="germandbls" unicode="&#xdf;" horiz-adv-x="690" 
d="M603 582q0 -44 -18 -74t-41.5 -50t-41.5 -34.5t-18 -28.5q0 -16 20.5 -29.5t62.5 -41.5q47 -32 71.5 -66.5t24.5 -91.5q0 -86 -53.5 -131t-153.5 -45q-54 0 -92 6t-70 23v145q26 -16 61.5 -27.5t63.5 -11.5q25 0 41.5 9.5t16.5 26.5q0 12 -5.5 21.5t-23 22.5t-53.5 33
q-58 34 -78.5 66t-20.5 69q0 31 12.5 52t31 37.5t36.5 31t30.5 31.5t12.5 40q0 24 -21.5 41t-61.5 17q-96 0 -96 -106v-517h-180v537q0 72 35 123t97.5 78t143.5 27q78 0 138 -21t94.5 -61.5t34.5 -100.5z" />
    <glyph glyph-name="agrave" unicode="&#xe0;" horiz-adv-x="576" 
d="M310 563q97 0 152 -51t55 -149v-363h-126l-34 73h-3q-32 -43 -68.5 -63t-99.5 -20q-71 0 -112.5 48t-41.5 131q0 89 56.5 132t163.5 48l85 3v10q0 36 -16.5 52t-45.5 16q-30 0 -66 -11t-75 -30l-50 124q91 50 226 50zM337 247l-38 -2q-46 -2 -65.5 -18.5t-19.5 -47.5
q0 -29 13 -42.5t36 -13.5q31 0 52.5 22t21.5 57v45zM298 766q14 -22 34.5 -49.5t41 -53.5t33.5 -43v-14h-124q-17 12 -42.5 32t-52.5 42t-51 42t-39 34v10h200z" />
    <glyph glyph-name="aacute" unicode="&#xe1;" horiz-adv-x="576" 
d="M310 563q97 0 152 -51t55 -149v-363h-126l-34 73h-3q-32 -43 -68.5 -63t-99.5 -20q-71 0 -112.5 48t-41.5 131q0 89 56.5 132t163.5 48l85 3v10q0 36 -16.5 52t-45.5 16q-30 0 -66 -11t-75 -30l-50 124q91 50 226 50zM337 247l-38 -2q-46 -2 -65.5 -18.5t-19.5 -47.5
q0 -29 13 -42.5t36 -13.5q31 0 52.5 22t21.5 57v45zM507 766v-10q-20 -18 -53.5 -46t-69.5 -56t-62 -48h-124v14q25 32 57 72t53 74h199z" />
    <glyph glyph-name="acircumflex" unicode="&#xe2;" horiz-adv-x="576" 
d="M310 563q97 0 152 -51t55 -149v-363h-126l-34 73h-3q-32 -43 -68.5 -63t-99.5 -20q-71 0 -112.5 48t-41.5 131q0 89 56.5 132t163.5 48l85 3v10q0 36 -16.5 52t-45.5 16q-30 0 -66 -11t-75 -30l-50 124q91 50 226 50zM337 247l-38 -2q-46 -2 -65.5 -18.5t-19.5 -47.5
q0 -29 13 -42.5t36 -13.5q31 0 52.5 22t21.5 57v45zM381 766q22 -34 54.5 -74.5t59.5 -71.5v-14h-114q-22 14 -43 32t-45 41q-24 -23 -44 -41t-41 -32h-117v14q17 18 39 44t42.5 53.5t33.5 48.5h175z" />
    <glyph glyph-name="atilde" unicode="&#xe3;" horiz-adv-x="576" 
d="M310 563q97 0 152 -51t55 -149v-363h-126l-34 73h-3q-32 -43 -68.5 -63t-99.5 -20q-71 0 -112.5 48t-41.5 131q0 89 56.5 132t163.5 48l85 3v10q0 36 -16.5 52t-45.5 16q-30 0 -66 -11t-75 -30l-50 124q91 50 226 50zM337 247l-38 -2q-46 -2 -65.5 -18.5t-19.5 -47.5
q0 -29 13 -42.5t36 -13.5q31 0 52.5 22t21.5 57v45zM97 604q4 75 29.5 121t81.5 46q26 0 53 -11.5t53.5 -23.5t50.5 -12q10 0 19 10t13 38h88q-4 -87 -35 -127t-75 -40q-28 0 -56.5 11.5t-55 23.5t-47.5 12q-8 0 -17.5 -9t-14.5 -39h-87z" />
    <glyph glyph-name="adieresis" unicode="&#xe4;" horiz-adv-x="576" 
d="M310 563q97 0 152 -51t55 -149v-363h-126l-34 73h-3q-32 -43 -68.5 -63t-99.5 -20q-71 0 -112.5 48t-41.5 131q0 89 56.5 132t163.5 48l85 3v10q0 36 -16.5 52t-45.5 16q-30 0 -66 -11t-75 -30l-50 124q91 50 226 50zM337 247l-38 -2q-46 -2 -65.5 -18.5t-19.5 -47.5
q0 -29 13 -42.5t36 -13.5q31 0 52.5 22t21.5 57v45zM102 690q0 39 22.5 58t56.5 19t57 -19.5t23 -57.5t-23 -57t-57 -19t-56.5 19t-22.5 57zM321 690q0 39 22.5 58t57.5 19q34 0 57 -19.5t23 -57.5t-23 -57t-57 -19q-35 0 -57.5 19t-22.5 57z" />
    <glyph glyph-name="aring" unicode="&#xe5;" horiz-adv-x="576" 
d="M310 563q97 0 152 -51t55 -149v-363h-126l-34 73h-3q-32 -43 -68.5 -63t-99.5 -20q-71 0 -112.5 48t-41.5 131q0 89 56.5 132t163.5 48l85 3v10q0 36 -16.5 52t-45.5 16q-30 0 -66 -11t-75 -30l-50 124q91 50 226 50zM337 247l-38 -2q-46 -2 -65.5 -18.5t-19.5 -47.5
q0 -29 13 -42.5t36 -13.5q31 0 52.5 22t21.5 57v45zM292 604q-57 0 -92 34t-35 89q0 56 35 90t92 34q55 0 92.5 -34t37.5 -89q0 -56 -37.5 -90t-92.5 -34zM292 686q17 0 29 11.5t12 29.5q0 19 -12 30t-29 11t-29 -11t-12 -30q0 -18 10.5 -29.5t30.5 -11.5z" />
    <glyph glyph-name="ae" unicode="&#xe6;" horiz-adv-x="858" 
d="M594 563q103 0 165 -64.5t62 -189.5v-84h-312q1 -46 29.5 -74t85.5 -28q38 0 79.5 9.5t85.5 33.5v-135q-39 -21 -82 -31t-106 -10q-60 0 -112.5 22t-86.5 68q-29 -32 -57 -52t-63.5 -29t-84.5 -9q-72 0 -118.5 48.5t-46.5 132.5q0 91 59.5 132.5t162.5 45.5l83 3v11
q0 37 -17.5 52t-43.5 15q-63 0 -141 -40l-50 124q44 25 97.5 37t108.5 12q92 0 148 -47q31 24 67.5 35.5t87.5 11.5zM587 434q-31 0 -52.5 -20.5t-23.5 -70.5h147q0 42 -18.5 66.5t-52.5 24.5zM337 247l-37 -2q-47 -1 -66 -20t-19 -50q0 -28 13.5 -40t35.5 -12q30 0 51.5 22
t21.5 57v45z" />
    <glyph glyph-name="ccedilla" unicode="&#xe7;" horiz-adv-x="500" 
d="M295 -10q-121 0 -189 68t-68 216q0 140 72 214.5t195 74.5q49 0 91.5 -11t79.5 -31l-51 -137q-31 16 -59 24.5t-57 8.5q-40 0 -64 -35.5t-24 -106.5q0 -73 24.5 -105.5t65.5 -32.5q78 0 148 49v-147q-33 -23 -73 -36t-91 -13zM405 -124q0 -53 -35.5 -84.5t-96.5 -31.5
q-31 0 -56.5 4t-43.5 10v93q31 -10 61 -10q39 0 39 28q0 32 -69 41l31 74h88l-11 -31q35 -7 64 -28t29 -65z" />
    <glyph glyph-name="egrave" unicode="&#xe8;" horiz-adv-x="568" 
d="M290 563q112 0 177 -64.5t65 -188.5v-85h-313q1 -48 28.5 -75t82.5 -27q46 0 86 10.5t83 32.5v-135q-39 -21 -84 -31t-108 -10q-124 0 -196.5 69.5t-72.5 213.5q0 145 68 217.5t184 72.5zM296 434q-31 0 -51.5 -21t-23.5 -70h146q-1 43 -19 67t-52 24zM292 766
q14 -22 34.5 -49.5t41 -53.5t33.5 -43v-14h-124q-17 12 -42.5 32t-52.5 42t-51 42t-39 34v10h200z" />
    <glyph glyph-name="eacute" unicode="&#xe9;" horiz-adv-x="568" 
d="M290 563q112 0 177 -64.5t65 -188.5v-85h-313q1 -48 28.5 -75t82.5 -27q46 0 86 10.5t83 32.5v-135q-39 -21 -84 -31t-108 -10q-124 0 -196.5 69.5t-72.5 213.5q0 145 68 217.5t184 72.5zM296 434q-31 0 -51.5 -21t-23.5 -70h146q-1 43 -19 67t-52 24zM501 766v-10
q-20 -18 -53.5 -46t-69.5 -56t-62 -48h-124v14q25 32 57 72t53 74h199z" />
    <glyph glyph-name="ecircumflex" unicode="&#xea;" horiz-adv-x="568" 
d="M290 563q112 0 177 -64.5t65 -188.5v-85h-313q1 -48 28.5 -75t82.5 -27q46 0 86 10.5t83 32.5v-135q-39 -21 -84 -31t-108 -10q-124 0 -196.5 69.5t-72.5 213.5q0 145 68 217.5t184 72.5zM296 434q-31 0 -51.5 -21t-23.5 -70h146q-1 43 -19 67t-52 24zM375 766
q22 -34 54.5 -74.5t59.5 -71.5v-14h-114q-22 14 -43 32t-45 41q-24 -23 -44 -41t-41 -32h-117v14q17 18 39 44t42.5 53.5t33.5 48.5h175z" />
    <glyph glyph-name="edieresis" unicode="&#xeb;" horiz-adv-x="568" 
d="M290 563q112 0 177 -64.5t65 -188.5v-85h-313q1 -48 28.5 -75t82.5 -27q46 0 86 10.5t83 32.5v-135q-39 -21 -84 -31t-108 -10q-124 0 -196.5 69.5t-72.5 213.5q0 145 68 217.5t184 72.5zM296 434q-31 0 -51.5 -21t-23.5 -70h146q-1 43 -19 67t-52 24zM96 690
q0 39 22.5 58t56.5 19t57 -19.5t23 -57.5t-23 -57t-57 -19t-56.5 19t-22.5 57zM315 690q0 39 22.5 58t57.5 19q34 0 57 -19.5t23 -57.5t-23 -57t-57 -19q-35 0 -57.5 19t-22.5 57z" />
    <glyph glyph-name="igrave" unicode="&#xec;" horiz-adv-x="303" 
d="M242 0h-181v553h181v-553zM158 766q14 -22 34.5 -49.5t41 -53.5t33.5 -43v-14h-124q-17 12 -42.5 32t-52.5 42t-51 42t-39 34v10h200z" />
    <glyph glyph-name="iacute" unicode="&#xed;" horiz-adv-x="303" 
d="M242 0h-181v553h181v-553zM367 766v-10q-20 -18 -53.5 -46t-69.5 -56t-62 -48h-124v14q25 32 57 72t53 74h199z" />
    <glyph glyph-name="icircumflex" unicode="&#xee;" horiz-adv-x="303" 
d="M242 0h-181v553h181v-553zM240 766q22 -34 54.5 -74.5t59.5 -71.5v-14h-114q-22 14 -43 32t-45 41q-24 -23 -44 -41t-41 -32h-117v14q17 18 39 44t42.5 53.5t33.5 48.5h175z" />
    <glyph glyph-name="idieresis" unicode="&#xef;" horiz-adv-x="303" 
d="M242 0h-181v553h181v-553zM-38 690q0 39 22.5 58t56.5 19t57 -19.5t23 -57.5t-23 -57t-57 -19t-56.5 19t-22.5 57zM181 690q0 39 22.5 58t57.5 19q34 0 57 -19.5t23 -57.5t-23 -57t-57 -19q-35 0 -57.5 19t-22.5 57z" />
    <glyph glyph-name="eth" unicode="&#xf0;" horiz-adv-x="595" 
d="M224 768q32 -14 60 -29t53 -32l88 62l58 -84l-65 -47q65 -68 100 -150.5t35 -206.5q0 -90 -31 -155.5t-89 -100.5t-138 -35q-75 0 -133 29.5t-90.5 86t-32.5 137.5t29.5 137.5t79.5 85.5t112 29q38 0 61 -7.5t36 -22.5l3 2q-10 23 -24 46t-34 45l-78 -55l-58 84l66 47
q-14 10 -32 22t-35 23zM297 358q-41 0 -57.5 -27.5t-16.5 -87.5q0 -55 17 -86t57 -31t56.5 32.5t16.5 99.5q0 43 -17.5 71.5t-55.5 28.5z" />
    <glyph glyph-name="ntilde" unicode="&#xf1;" horiz-adv-x="618" 
d="M381 563q81 0 130 -50t49 -153v-360h-181v304q0 55 -13 83t-47 28q-47 0 -63 -41t-16 -128v-246h-180v553h138l23 -71h8q23 39 61 60t91 21zM118 604q4 75 29.5 121t81.5 46q26 0 53 -11.5t53.5 -23.5t50.5 -12q10 0 19 10t13 38h88q-4 -87 -35 -127t-75 -40
q-28 0 -56.5 11.5t-55 23.5t-47.5 12q-8 0 -17.5 -9t-14.5 -39h-87z" />
    <glyph glyph-name="ograve" unicode="&#xf2;" horiz-adv-x="593" 
d="M553 278q0 -84 -29 -149t-86.5 -102t-142.5 -37q-79 0 -137 36.5t-89 101t-31 150.5q0 130 66.5 207.5t193.5 77.5q74 0 132 -33t90.5 -96.5t32.5 -155.5zM221 277q0 -72 17.5 -110t58.5 -38q40 0 56.5 37.5t16.5 111.5q0 73 -17 109.5t-57 36.5q-75 0 -75 -147zM302 766
q14 -22 34.5 -49.5t41 -53.5t33.5 -43v-14h-124q-17 12 -42.5 32t-52.5 42t-51 42t-39 34v10h200z" />
    <glyph glyph-name="oacute" unicode="&#xf3;" horiz-adv-x="593" 
d="M553 278q0 -84 -29 -149t-86.5 -102t-142.5 -37q-79 0 -137 36.5t-89 101t-31 150.5q0 130 66.5 207.5t193.5 77.5q74 0 132 -33t90.5 -96.5t32.5 -155.5zM221 277q0 -72 17.5 -110t58.5 -38q40 0 56.5 37.5t16.5 111.5q0 73 -17 109.5t-57 36.5q-75 0 -75 -147zM511 766
v-10q-20 -18 -53.5 -46t-69.5 -56t-62 -48h-124v14q25 32 57 72t53 74h199z" />
    <glyph glyph-name="ocircumflex" unicode="&#xf4;" horiz-adv-x="593" 
d="M553 278q0 -84 -29 -149t-86.5 -102t-142.5 -37q-79 0 -137 36.5t-89 101t-31 150.5q0 130 66.5 207.5t193.5 77.5q74 0 132 -33t90.5 -96.5t32.5 -155.5zM221 277q0 -72 17.5 -110t58.5 -38q40 0 56.5 37.5t16.5 111.5q0 73 -17 109.5t-57 36.5q-75 0 -75 -147zM385 766
q22 -34 54.5 -74.5t59.5 -71.5v-14h-114q-22 14 -43 32t-45 41q-24 -23 -44 -41t-41 -32h-117v14q17 18 39 44t42.5 53.5t33.5 48.5h175z" />
    <glyph glyph-name="otilde" unicode="&#xf5;" horiz-adv-x="593" 
d="M553 278q0 -84 -29 -149t-86.5 -102t-142.5 -37q-79 0 -137 36.5t-89 101t-31 150.5q0 130 66.5 207.5t193.5 77.5q74 0 132 -33t90.5 -96.5t32.5 -155.5zM221 277q0 -72 17.5 -110t58.5 -38q40 0 56.5 37.5t16.5 111.5q0 73 -17 109.5t-57 36.5q-75 0 -75 -147zM102 604
q4 75 29.5 121t81.5 46q26 0 53 -11.5t53.5 -23.5t50.5 -12q10 0 19 10t13 38h88q-4 -87 -35 -127t-75 -40q-28 0 -56.5 11.5t-55 23.5t-47.5 12q-8 0 -17.5 -9t-14.5 -39h-87z" />
    <glyph glyph-name="odieresis" unicode="&#xf6;" horiz-adv-x="593" 
d="M553 278q0 -84 -29 -149t-86.5 -102t-142.5 -37q-79 0 -137 36.5t-89 101t-31 150.5q0 130 66.5 207.5t193.5 77.5q74 0 132 -33t90.5 -96.5t32.5 -155.5zM221 277q0 -72 17.5 -110t58.5 -38q40 0 56.5 37.5t16.5 111.5q0 73 -17 109.5t-57 36.5q-75 0 -75 -147zM107 690
q0 39 22.5 58t56.5 19t57 -19.5t23 -57.5t-23 -57t-57 -19t-56.5 19t-22.5 57zM326 690q0 39 22.5 58t57.5 19q34 0 57 -19.5t23 -57.5t-23 -57t-57 -19q-35 0 -57.5 19t-22.5 57z" />
    <glyph glyph-name="divide" unicode="&#xf7;" horiz-adv-x="554" 
d="M277 461q-33 0 -55 21t-22 64q0 44 21.5 64t55.5 20q33 0 55 -20t22 -64q0 -43 -22.5 -64t-54.5 -21zM41 287v131h472v-131h-472zM277 75q-33 0 -55 21t-22 63q0 45 21.5 65t55.5 20q33 0 55 -20t22 -65q0 -42 -22.5 -63t-54.5 -21z" />
    <glyph glyph-name="oslash" unicode="&#xf8;" horiz-adv-x="610" 
d="M571 278q0 -137 -71 -212.5t-196 -75.5q-55 0 -103 17l-37 -64l-81 46l39 67q-41 40 -62.5 95.5t-21.5 126.5q0 136 71.5 210.5t196.5 74.5q28 0 54.5 -5t49.5 -14l32 54l80 -45l-33 -57q39 -37 60.5 -92.5t21.5 -125.5zM211 277q0 -19 1 -35.5t4 -31.5l127 215
q-15 8 -38 8q-52 0 -73 -39t-21 -117zM399 278q0 17 -1 32.5t-3 28.5l-125 -213q8 -3 17 -5t19 -2q52 0 72.5 40.5t20.5 118.5z" />
    <glyph glyph-name="ugrave" unicode="&#xf9;" horiz-adv-x="618" 
d="M558 553v-553h-137l-22 69h-10q-24 -41 -63.5 -60t-88.5 -19q-78 0 -128 50t-50 153v360h181v-304q0 -55 13 -83t44 -28q50 0 65.5 42.5t15.5 119.5v253h180zM315 766q14 -22 34.5 -49.5t41 -53.5t33.5 -43v-14h-124q-17 12 -42.5 32t-52.5 42t-51 42t-39 34v10h200z" />
    <glyph glyph-name="uacute" unicode="&#xfa;" horiz-adv-x="618" 
d="M558 553v-553h-137l-22 69h-10q-24 -41 -63.5 -60t-88.5 -19q-78 0 -128 50t-50 153v360h181v-304q0 -55 13 -83t44 -28q50 0 65.5 42.5t15.5 119.5v253h180zM524 766v-10q-20 -18 -53.5 -46t-69.5 -56t-62 -48h-124v14q25 32 57 72t53 74h199z" />
    <glyph glyph-name="ucircumflex" unicode="&#xfb;" horiz-adv-x="618" 
d="M558 553v-553h-137l-22 69h-10q-24 -41 -63.5 -60t-88.5 -19q-78 0 -128 50t-50 153v360h181v-304q0 -55 13 -83t44 -28q50 0 65.5 42.5t15.5 119.5v253h180zM398 766q22 -34 54.5 -74.5t59.5 -71.5v-14h-114q-22 14 -43 32t-45 41q-24 -23 -44 -41t-41 -32h-117v14
q17 18 39 44t42.5 53.5t33.5 48.5h175z" />
    <glyph glyph-name="udieresis" unicode="&#xfc;" horiz-adv-x="618" 
d="M558 553v-553h-137l-22 69h-10q-24 -41 -63.5 -60t-88.5 -19q-78 0 -128 50t-50 153v360h181v-304q0 -55 13 -83t44 -28q50 0 65.5 42.5t15.5 119.5v253h180zM120 690q0 39 22.5 58t56.5 19t57 -19.5t23 -57.5t-23 -57t-57 -19t-56.5 19t-22.5 57zM339 690q0 39 22.5 58
t57.5 19q34 0 57 -19.5t23 -57.5t-23 -57t-57 -19q-35 0 -57.5 19t-22.5 57z" />
    <glyph glyph-name="yacute" unicode="&#xfd;" horiz-adv-x="566" 
d="M0 553h190l81 -289q4 -16 7 -36t4 -36h4q2 19 6 36.5t8 34.5l81 290h185l-200 -588q-36 -106 -90 -155.5t-151 -49.5q-23 0 -41.5 2.5t-33.5 5.5v147q10 -2 24 -4t28 -2q41 0 60 23.5t35 68.5l2 7zM498 766v-10q-20 -18 -53.5 -46t-69.5 -56t-62 -48h-124v14q25 32 57 72
t53 74h199z" />
    <glyph glyph-name="thorn" unicode="&#xfe;" horiz-adv-x="599" 
d="M560 277q0 -139 -52 -213t-135 -74q-47 0 -79 19t-54 51h-6q3 -23 4.5 -46.5t1.5 -39.5v-214h-180v1000h180v-167q0 -36 -2 -63.5t-5 -47.5h7q22 40 55 60.5t81 20.5q83 0 133.5 -74t50.5 -212zM377 277q0 71 -15.5 106t-50.5 35q-38 0 -53.5 -31t-17.5 -96v-20
q0 -66 16.5 -99.5t56.5 -33.5q35 0 49.5 35.5t14.5 103.5z" />
    <glyph glyph-name="ydieresis" unicode="&#xff;" horiz-adv-x="566" 
d="M0 553h190l81 -289q4 -16 7 -36t4 -36h4q2 19 6 36.5t8 34.5l81 290h185l-200 -588q-36 -106 -90 -155.5t-151 -49.5q-23 0 -41.5 2.5t-33.5 5.5v147q10 -2 24 -4t28 -2q41 0 60 23.5t35 68.5l2 7zM94 690q0 39 22.5 58t56.5 19t57 -19.5t23 -57.5t-23 -57t-57 -19
t-56.5 19t-22.5 57zM313 690q0 39 22.5 58t57.5 19q34 0 57 -19.5t23 -57.5t-23 -57t-57 -19q-35 0 -57.5 19t-22.5 57z" />
    <glyph glyph-name="Amacron" unicode="&#x100;" horiz-adv-x="670" 
d="M470 0l-32 136h-204l-32 -136h-202l211 716h245l214 -716h-200zM403 289l-30 133q-5 22 -12.5 54t-14 64t-10.5 55q-4 -23 -10.5 -53.5t-13 -62t-12.5 -56.5l-31 -134h134zM505 887v-114h-334v114h334z" />
    <glyph glyph-name="amacron" unicode="&#x101;" horiz-adv-x="576" 
d="M310 563q97 0 152 -51t55 -149v-363h-126l-34 73h-3q-32 -43 -68.5 -63t-99.5 -20q-71 0 -112.5 48t-41.5 131q0 89 56.5 132t163.5 48l85 3v10q0 36 -16.5 52t-45.5 16q-30 0 -66 -11t-75 -30l-50 124q91 50 226 50zM337 247l-38 -2q-46 -2 -65.5 -18.5t-19.5 -47.5
q0 -29 13 -42.5t36 -13.5q31 0 52.5 22t21.5 57v45zM461 726v-114h-334v114h334z" />
    <glyph glyph-name="Abreve" unicode="&#x102;" horiz-adv-x="670" 
d="M470 0l-32 136h-204l-32 -136h-202l211 716h245l214 -716h-200zM403 289l-30 133q-5 22 -12.5 54t-14 64t-10.5 55q-4 -23 -10.5 -53.5t-13 -62t-12.5 -56.5l-31 -134h134zM521 948q-4 -83 -53.5 -132t-131.5 -49q-86 0 -133 47.5t-49 133.5h100q8 -40 26 -53t56 -13
q32 0 53.5 13.5t28.5 52.5h103z" />
    <glyph glyph-name="abreve" unicode="&#x103;" horiz-adv-x="576" 
d="M310 563q97 0 152 -51t55 -149v-363h-126l-34 73h-3q-32 -43 -68.5 -63t-99.5 -20q-71 0 -112.5 48t-41.5 131q0 89 56.5 132t163.5 48l85 3v10q0 36 -16.5 52t-45.5 16q-30 0 -66 -11t-75 -30l-50 124q91 50 226 50zM337 247l-38 -2q-46 -2 -65.5 -18.5t-19.5 -47.5
q0 -29 13 -42.5t36 -13.5q31 0 52.5 22t21.5 57v45zM477 787q-4 -83 -53.5 -132t-131.5 -49q-86 0 -133 47.5t-49 133.5h100q8 -40 26 -53t56 -13q32 0 53.5 13.5t28.5 52.5h103z" />
    <glyph glyph-name="Aogonek" unicode="&#x104;" horiz-adv-x="670" 
d="M470 0l-32 136h-204l-32 -136h-202l211 716h245l214 -716h-200zM403 289l-30 133q-5 22 -12.5 54t-14 64t-10.5 55q-4 -23 -10.5 -53.5t-13 -62t-12.5 -56.5l-31 -134h134zM553 -96q0 -35 39 -35q14 0 28 3.5t23 7.5v-106q-14 -5 -34.5 -9.5t-46.5 -4.5q-59 0 -95.5 30
t-36.5 82q0 34 22 71t83 79l78 -22q-33 -32 -46.5 -53t-13.5 -43z" />
    <glyph glyph-name="aogonek" unicode="&#x105;" horiz-adv-x="576" 
d="M310 563q97 0 152 -51t55 -149v-363h-126l-34 73h-3q-32 -43 -68.5 -63t-99.5 -20q-71 0 -112.5 48t-41.5 131q0 89 56.5 132t163.5 48l85 3v10q0 36 -16.5 52t-45.5 16q-30 0 -66 -11t-75 -30l-50 124q91 50 226 50zM337 247l-38 -2q-46 -2 -65.5 -18.5t-19.5 -47.5
q0 -29 13 -42.5t36 -13.5q31 0 52.5 22t21.5 57v45zM435 -96q0 -35 39 -35q14 0 28 3.5t23 7.5v-106q-14 -5 -34.5 -9.5t-46.5 -4.5q-59 0 -95.5 30t-36.5 82q0 34 22 71t83 79l78 -22q-33 -32 -46.5 -53t-13.5 -43z" />
    <glyph glyph-name="Cacute" unicode="&#x106;" horiz-adv-x="597" 
d="M368 570q-62 0 -96.5 -57.5t-34.5 -158.5q0 -210 140 -210q43 0 83 13t80 32v-159q-43 -21 -88.5 -30.5t-97.5 -9.5q-105 0 -173 44.5t-101 126.5t-33 194q0 109 37 192t107.5 130t171.5 47q50 0 102.5 -12t102.5 -38l-53 -148q-35 20 -71 32t-76 12zM553 927v-10
q-20 -18 -53.5 -46t-69.5 -56t-62 -48h-124v14q25 32 57 72t53 74h199z" />
    <glyph glyph-name="cacute" unicode="&#x107;" horiz-adv-x="500" 
d="M295 -10q-121 0 -189 68t-68 216q0 140 72 214.5t195 74.5q49 0 91.5 -11t79.5 -31l-51 -137q-31 16 -59 24.5t-57 8.5q-40 0 -64 -35.5t-24 -106.5q0 -73 24.5 -105.5t65.5 -32.5q78 0 148 49v-147q-33 -23 -73 -36t-91 -13zM491 766v-10q-20 -18 -53.5 -46t-69.5 -56
t-62 -48h-124v14q25 32 57 72t53 74h199z" />
    <glyph glyph-name="Ccircumflex" unicode="&#x108;" horiz-adv-x="597" 
d="M368 570q-62 0 -96.5 -57.5t-34.5 -158.5q0 -210 140 -210q43 0 83 13t80 32v-159q-43 -21 -88.5 -30.5t-97.5 -9.5q-105 0 -173 44.5t-101 126.5t-33 194q0 109 37 192t107.5 130t171.5 47q50 0 102.5 -12t102.5 -38l-53 -148q-35 20 -71 32t-76 12zM427 927
q22 -34 54.5 -74.5t59.5 -71.5v-14h-114q-22 14 -43 32t-45 41q-24 -23 -44 -41t-41 -32h-117v14q17 18 39 44t42.5 53.5t33.5 48.5h175z" />
    <glyph glyph-name="ccircumflex" unicode="&#x109;" horiz-adv-x="500" 
d="M295 -10q-121 0 -189 68t-68 216q0 140 72 214.5t195 74.5q49 0 91.5 -11t79.5 -31l-51 -137q-31 16 -59 24.5t-57 8.5q-40 0 -64 -35.5t-24 -106.5q0 -73 24.5 -105.5t65.5 -32.5q78 0 148 49v-147q-33 -23 -73 -36t-91 -13zM365 766q22 -34 54.5 -74.5t59.5 -71.5v-14
h-114q-22 14 -43 32t-45 41q-24 -23 -44 -41t-41 -32h-117v14q17 18 39 44t42.5 53.5t33.5 48.5h175z" />
    <glyph glyph-name="Cdot" unicode="&#x10a;" horiz-adv-x="597" 
d="M368 570q-62 0 -96.5 -57.5t-34.5 -158.5q0 -210 140 -210q43 0 83 13t80 32v-159q-43 -21 -88.5 -30.5t-97.5 -9.5q-105 0 -173 44.5t-101 126.5t-33 194q0 109 37 192t107.5 130t171.5 47q50 0 102.5 -12t102.5 -38l-53 -148q-35 20 -71 32t-76 12zM343 937
q42 0 69 -18.5t27 -66.5q0 -47 -27.5 -65.5t-68.5 -18.5q-43 0 -69.5 18.5t-26.5 65.5q0 48 26 66.5t70 18.5z" />
    <glyph glyph-name="cdot" unicode="&#x10b;" horiz-adv-x="500" 
d="M295 -10q-121 0 -189 68t-68 216q0 140 72 214.5t195 74.5q49 0 91.5 -11t79.5 -31l-51 -137q-31 16 -59 24.5t-57 8.5q-40 0 -64 -35.5t-24 -106.5q0 -73 24.5 -105.5t65.5 -32.5q78 0 148 49v-147q-33 -23 -73 -36t-91 -13zM280 776q42 0 69 -18.5t27 -66.5
q0 -47 -27.5 -65.5t-68.5 -18.5q-43 0 -69.5 18.5t-26.5 65.5q0 48 26 66.5t70 18.5z" />
    <glyph glyph-name="Ccaron" unicode="&#x10c;" horiz-adv-x="597" 
d="M368 570q-62 0 -96.5 -57.5t-34.5 -158.5q0 -210 140 -210q43 0 83 13t80 32v-159q-43 -21 -88.5 -30.5t-97.5 -9.5q-105 0 -173 44.5t-101 126.5t-33 194q0 109 37 192t107.5 130t171.5 47q50 0 102.5 -12t102.5 -38l-53 -148q-35 20 -71 32t-76 12zM252 767
q-13 21 -33.5 48.5t-42.5 53.5t-39 44v14h117q22 -15 41.5 -32.5t43.5 -40.5q24 23 45 41t43 32h114v-14q-16 -18 -37 -44t-42 -53t-35 -49h-175z" />
    <glyph glyph-name="ccaron" unicode="&#x10d;" horiz-adv-x="500" 
d="M295 -10q-121 0 -189 68t-68 216q0 140 72 214.5t195 74.5q49 0 91.5 -11t79.5 -31l-51 -137q-31 16 -59 24.5t-57 8.5q-40 0 -64 -35.5t-24 -106.5q0 -73 24.5 -105.5t65.5 -32.5q78 0 148 49v-147q-33 -23 -73 -36t-91 -13zM190 606q-13 21 -33.5 48.5t-42.5 53.5
t-39 44v14h117q22 -15 41.5 -32.5t43.5 -40.5q24 23 45 41t43 32h114v-14q-16 -18 -37 -44t-42 -53t-35 -49h-175z" />
    <glyph glyph-name="Dcaron" unicode="&#x10e;" horiz-adv-x="680" 
d="M634 372q0 -123 -42.5 -205.5t-121 -124.5t-186.5 -42h-214v714h229q161 0 248 -88t87 -254zM442 365q0 101 -35.5 148.5t-107.5 47.5h-44v-407h32q80 0 117.5 52t37.5 159zM252 767q-13 21 -33.5 48.5t-42.5 53.5t-39 44v14h117q22 -15 41.5 -32.5t43.5 -40.5
q24 23 45 41t43 32h114v-14q-16 -18 -37 -44t-42 -53t-35 -49h-175z" />
    <glyph glyph-name="dcaron" unicode="&#x10f;" horiz-adv-x="599" 
d="M223 -10q-83 0 -134 74.5t-51 212.5t51.5 212t136.5 74q49 0 81 -21.5t54 -59.5h5q-3 27 -5.5 60t-2.5 61v157h181v-760h-139l-34 64h-8q-22 -34 -53 -54t-82 -20zM292 135q41 0 58 30.5t18 95.5v21q0 66 -17 99t-60 33q-31 0 -50.5 -34t-19.5 -104q0 -73 19.5 -107
t51.5 -34zM763 760v-11q-18 -38 -35.5 -73.5t-43.5 -75.5h-112v14q4 18 9.5 44.5t9.5 53.5t6 48h166z" />
    <glyph glyph-name="Dcroat" unicode="&#x110;" horiz-adv-x="680" 
d="M299 714q161 0 248 -88t87 -254q0 -123 -42.5 -205.5t-121 -124.5t-186.5 -42h-214v287h-60v145h60v282h229zM299 561h-44v-129h90v-145h-90v-133h32q80 0 117.5 52t37.5 159q0 101 -35.5 148.5t-107.5 47.5z" />
    <glyph glyph-name="dcroat" unicode="&#x111;" horiz-adv-x="612" 
d="M218 -10q-81 0 -130.5 70t-49.5 197q0 132 52.5 199.5t136.5 67.5q50 0 83 -22t55 -59h5q-3 22 -7.5 54.5t-4.5 67.5v6h-100v117h100v72h181v-72h70v-117h-70v-571h-146l-36 64h-8q-23 -34 -53 -54t-78 -20zM298 135q38 0 53.5 26.5t16.5 82.5v18q0 56 -18.5 84.5
t-52.5 28.5q-29 0 -47 -27.5t-18 -91.5q0 -53 16 -87t50 -34z" />
    <glyph glyph-name="Emacron" unicode="&#x112;" horiz-adv-x="510" 
d="M465 0h-395v714h395v-151h-210v-118h195v-151h-195v-141h210v-153zM436 887v-114h-334v114h334z" />
    <glyph glyph-name="emacron" unicode="&#x113;" horiz-adv-x="568" 
d="M290 563q112 0 177 -64.5t65 -188.5v-85h-313q1 -48 28.5 -75t82.5 -27q46 0 86 10.5t83 32.5v-135q-39 -21 -84 -31t-108 -10q-124 0 -196.5 69.5t-72.5 213.5q0 145 68 217.5t184 72.5zM296 434q-31 0 -51.5 -21t-23.5 -70h146q-1 43 -19 67t-52 24zM455 726v-114h-334
v114h334z" />
    <glyph glyph-name="Ebreve" unicode="&#x114;" horiz-adv-x="510" 
d="M465 0h-395v714h395v-151h-210v-118h195v-151h-195v-141h210v-153zM452 948q-4 -83 -53.5 -132t-131.5 -49q-86 0 -133 47.5t-49 133.5h100q8 -40 26 -53t56 -13q32 0 53.5 13.5t28.5 52.5h103z" />
    <glyph glyph-name="ebreve" unicode="&#x115;" horiz-adv-x="568" 
d="M290 563q112 0 177 -64.5t65 -188.5v-85h-313q1 -48 28.5 -75t82.5 -27q46 0 86 10.5t83 32.5v-135q-39 -21 -84 -31t-108 -10q-124 0 -196.5 69.5t-72.5 213.5q0 145 68 217.5t184 72.5zM296 434q-31 0 -51.5 -21t-23.5 -70h146q-1 43 -19 67t-52 24zM471 787
q-4 -83 -53.5 -132t-131.5 -49q-86 0 -133 47.5t-49 133.5h100q8 -40 26 -53t56 -13q32 0 53.5 13.5t28.5 52.5h103z" />
    <glyph glyph-name="Edotaccent" unicode="&#x116;" horiz-adv-x="510" 
d="M465 0h-395v714h395v-151h-210v-118h195v-151h-195v-141h210v-153zM271 937q42 0 69 -18.5t27 -66.5q0 -47 -27.5 -65.5t-68.5 -18.5q-43 0 -69.5 18.5t-26.5 65.5q0 48 26 66.5t70 18.5z" />
    <glyph glyph-name="edotaccent" unicode="&#x117;" horiz-adv-x="568" 
d="M290 563q112 0 177 -64.5t65 -188.5v-85h-313q1 -48 28.5 -75t82.5 -27q46 0 86 10.5t83 32.5v-135q-39 -21 -84 -31t-108 -10q-124 0 -196.5 69.5t-72.5 213.5q0 145 68 217.5t184 72.5zM296 434q-31 0 -51.5 -21t-23.5 -70h146q-1 43 -19 67t-52 24zM290 776
q42 0 69 -18.5t27 -66.5q0 -47 -27.5 -65.5t-68.5 -18.5q-43 0 -69.5 18.5t-26.5 65.5q0 48 26 66.5t70 18.5z" />
    <glyph glyph-name="Eogonek" unicode="&#x118;" horiz-adv-x="510" 
d="M465 0h-395v714h395v-151h-210v-118h195v-151h-195v-141h210v-153zM379 -96q0 -35 39 -35q14 0 28 3.5t23 7.5v-106q-14 -5 -34.5 -9.5t-46.5 -4.5q-59 0 -95.5 30t-36.5 82q0 34 22 71t83 79l78 -22q-33 -32 -46.5 -53t-13.5 -43z" />
    <glyph glyph-name="eogonek" unicode="&#x119;" horiz-adv-x="568" 
d="M412 -93q0 -18 11 -27.5t28 -9.5q30 0 52 11v-108q-36 -13 -85 -13q-59 0 -94 30t-35 83q0 29 14.5 57.5t53.5 61.5q-23 -2 -50 -2q-124 0 -196.5 69.5t-72.5 213.5q0 145 68 217.5t184 72.5q112 0 177 -64.5t65 -188.5v-85h-313q1 -48 28.5 -75t82.5 -27q46 0 86 10.5
t83 32.5v-135q-37 -34 -55.5 -56.5t-25 -38t-6.5 -29.5zM296 434q-31 0 -51.5 -21t-23.5 -70h146q-1 43 -19 67t-52 24z" />
    <glyph glyph-name="Ecaron" unicode="&#x11a;" horiz-adv-x="510" 
d="M465 0h-395v714h395v-151h-210v-118h195v-151h-195v-141h210v-153zM181 767q-13 21 -33.5 48.5t-42.5 53.5t-39 44v14h117q22 -15 41.5 -32.5t43.5 -40.5q24 23 45 41t43 32h114v-14q-16 -18 -37 -44t-42 -53t-35 -49h-175z" />
    <glyph glyph-name="ecaron" unicode="&#x11b;" horiz-adv-x="568" 
d="M290 563q112 0 177 -64.5t65 -188.5v-85h-313q1 -48 28.5 -75t82.5 -27q46 0 86 10.5t83 32.5v-135q-39 -21 -84 -31t-108 -10q-124 0 -196.5 69.5t-72.5 213.5q0 145 68 217.5t184 72.5zM296 434q-31 0 -51.5 -21t-23.5 -70h146q-1 43 -19 67t-52 24zM200 606
q-13 21 -33.5 48.5t-42.5 53.5t-39 44v14h117q22 -15 41.5 -32.5t43.5 -40.5q24 23 45 41t43 32h114v-14q-16 -18 -37 -44t-42 -53t-35 -49h-175z" />
    <glyph glyph-name="Gcircumflex" unicode="&#x11c;" horiz-adv-x="686" 
d="M339 418h286v-385q-55 -19 -121.5 -31t-137.5 -12q-146 0 -232.5 92.5t-86.5 276.5q0 113 40.5 195t118.5 126t191 44q63 0 118.5 -13t96.5 -32l-56 -147q-71 38 -156 38q-58 0 -93.5 -28t-52 -76.5t-16.5 -111.5q0 -102 36.5 -155.5t105.5 -53.5q16 0 36 2t33 6v119
h-110v146zM463 927q22 -34 54.5 -74.5t59.5 -71.5v-14h-114q-22 14 -43 32t-45 41q-24 -23 -44 -41t-41 -32h-117v14q17 18 39 44t42.5 53.5t33.5 48.5h175z" />
    <glyph glyph-name="gcircumflex" unicode="&#x11d;" horiz-adv-x="599" 
d="M226 563q51 0 83.5 -20.5t54.5 -57.5h6l13 68h156v-536q0 -125 -68 -191t-212 -66q-60 0 -107 8t-90 28v151q48 -22 90.5 -32t97.5 -10q52 0 80.5 20.5t28.5 64.5v9q0 31 5 71h-5q-21 -36 -53 -58t-84 -22q-83 0 -133.5 74t-50.5 211q0 138 51.5 213t136.5 75zM291 418
q-70 0 -70 -146q0 -71 18 -104t54 -33q41 0 58 29.5t17 91.5v25q0 68 -16.5 102.5t-60.5 34.5zM387 766q22 -34 54.5 -74.5t59.5 -71.5v-14h-114q-22 14 -43 32t-45 41q-24 -23 -44 -41t-41 -32h-117v14q17 18 39 44t42.5 53.5t33.5 48.5h175z" />
    <glyph glyph-name="Gbreve" unicode="&#x11e;" horiz-adv-x="686" 
d="M339 418h286v-385q-55 -19 -121.5 -31t-137.5 -12q-146 0 -232.5 92.5t-86.5 276.5q0 113 40.5 195t118.5 126t191 44q63 0 118.5 -13t96.5 -32l-56 -147q-71 38 -156 38q-58 0 -93.5 -28t-52 -76.5t-16.5 -111.5q0 -102 36.5 -155.5t105.5 -53.5q16 0 36 2t33 6v119
h-110v146zM560 948q-4 -83 -53.5 -132t-131.5 -49q-86 0 -133 47.5t-49 133.5h100q8 -40 26 -53t56 -13q32 0 53.5 13.5t28.5 52.5h103z" />
    <glyph glyph-name="gbreve" unicode="&#x11f;" horiz-adv-x="599" 
d="M226 563q51 0 83.5 -20.5t54.5 -57.5h6l13 68h156v-536q0 -125 -68 -191t-212 -66q-60 0 -107 8t-90 28v151q48 -22 90.5 -32t97.5 -10q52 0 80.5 20.5t28.5 64.5v9q0 31 5 71h-5q-21 -36 -53 -58t-84 -22q-83 0 -133.5 74t-50.5 211q0 138 51.5 213t136.5 75zM291 418
q-70 0 -70 -146q0 -71 18 -104t54 -33q41 0 58 29.5t17 91.5v25q0 68 -16.5 102.5t-60.5 34.5zM483 787q-4 -83 -53.5 -132t-131.5 -49q-86 0 -133 47.5t-49 133.5h100q8 -40 26 -53t56 -13q32 0 53.5 13.5t28.5 52.5h103z" />
    <glyph glyph-name="Gdot" unicode="&#x120;" horiz-adv-x="686" 
d="M339 418h286v-385q-55 -19 -121.5 -31t-137.5 -12q-146 0 -232.5 92.5t-86.5 276.5q0 113 40.5 195t118.5 126t191 44q63 0 118.5 -13t96.5 -32l-56 -147q-71 38 -156 38q-58 0 -93.5 -28t-52 -76.5t-16.5 -111.5q0 -102 36.5 -155.5t105.5 -53.5q16 0 36 2t33 6v119
h-110v146zM379 937q42 0 69 -18.5t27 -66.5q0 -47 -27.5 -65.5t-68.5 -18.5q-43 0 -69.5 18.5t-26.5 65.5q0 48 26 66.5t70 18.5z" />
    <glyph glyph-name="gdot" unicode="&#x121;" horiz-adv-x="599" 
d="M226 563q51 0 83.5 -20.5t54.5 -57.5h6l13 68h156v-536q0 -125 -68 -191t-212 -66q-60 0 -107 8t-90 28v151q48 -22 90.5 -32t97.5 -10q52 0 80.5 20.5t28.5 64.5v9q0 31 5 71h-5q-21 -36 -53 -58t-84 -22q-83 0 -133.5 74t-50.5 211q0 138 51.5 213t136.5 75zM291 418
q-70 0 -70 -146q0 -71 18 -104t54 -33q41 0 58 29.5t17 91.5v25q0 68 -16.5 102.5t-60.5 34.5zM302 776q42 0 69 -18.5t27 -66.5q0 -47 -27.5 -65.5t-68.5 -18.5q-43 0 -69.5 18.5t-26.5 65.5q0 48 26 66.5t70 18.5z" />
    <glyph glyph-name="uni0122" unicode="&#x122;" horiz-adv-x="686" 
d="M339 418h286v-385q-55 -19 -121.5 -31t-137.5 -12q-146 0 -232.5 92.5t-86.5 276.5q0 113 40.5 195t118.5 126t191 44q63 0 118.5 -13t96.5 -32l-56 -147q-71 38 -156 38q-58 0 -93.5 -28t-52 -76.5t-16.5 -111.5q0 -102 36.5 -155.5t105.5 -53.5q16 0 36 2t33 6v119
h-110v146zM453 -61v-11q-15 -40 -32 -75.5t-43 -73.5h-112v14q5 19 9.5 46t7.5 54t4 46h166z" />
    <glyph glyph-name="uni0123" unicode="&#x123;" horiz-adv-x="599" 
d="M226 563q51 0 83.5 -20.5t54.5 -57.5h6l13 68h156v-536q0 -125 -68 -191t-212 -66q-60 0 -107 8t-90 28v151q48 -22 90.5 -32t97.5 -10q52 0 80.5 20.5t28.5 64.5v9q0 31 5 71h-5q-21 -36 -53 -58t-84 -22q-83 0 -133.5 74t-50.5 211q0 138 51.5 213t136.5 75zM291 418
q-70 0 -70 -146q0 -71 18 -104t54 -33q41 0 58 29.5t17 91.5v25q0 68 -16.5 102.5t-60.5 34.5zM386 766v-14q-6 -37 -11.5 -76t-8.5 -70h-166v11q16 37 34 72.5t41 76.5h111z" />
    <glyph glyph-name="Hcircumflex" unicode="&#x124;" horiz-adv-x="708" 
d="M638 0h-185v294h-197v-294h-186v714h186v-267h197v267h185v-714zM443 927q22 -34 54.5 -74.5t59.5 -71.5v-14h-114q-22 14 -43 32t-45 41q-24 -23 -44 -41t-41 -32h-117v14q17 18 39 44t42.5 53.5t33.5 48.5h175z" />
    <glyph glyph-name="hcircumflex" unicode="&#x125;" horiz-adv-x="618" 
d="M240 760v-119q0 -52 -2.5 -91t-6.5 -65h9q23 41 57.5 59.5t82.5 18.5q78 0 129 -49.5t51 -153.5v-360h-181v304q0 111 -58 111q-47 0 -64 -42.5t-17 -125.5v-247h-180v760h180zM241 973q22 -34 54.5 -74.5t59.5 -71.5v-14h-114q-22 14 -43 32t-45 41q-24 -23 -44 -41
t-41 -32h-117v14q17 18 39 44t42.5 53.5t33.5 48.5h175z" />
    <glyph glyph-name="Hbar" unicode="&#x126;" horiz-adv-x="719" 
d="M75 0v521h-77v114h77v79h185v-79h198v79h185v-79h77v-114h-77v-521h-185v294h-198v-294h-185zM260 447h198v74h-198v-74z" />
    <glyph glyph-name="hbar" unicode="&#x127;" horiz-adv-x="625" 
d="M247 760v-72h105v-117h-105v-15q0 -22 -3 -53t-7 -57h10q45 78 140 78q79 0 129 -50t50 -153v-321h-181v265q0 111 -57 111q-46 0 -63.5 -41t-17.5 -128v-207h-181v571h-69v117h69v72h181z" />
    <glyph glyph-name="Itilde" unicode="&#x128;" horiz-adv-x="408" 
d="M378 0h-347v103l81 34v440l-81 34v103h347v-103l-81 -34v-440l81 -34v-103zM9 765q4 75 29.5 121t81.5 46q26 0 53 -11.5t53.5 -23.5t50.5 -12q10 0 19 10t13 38h88q-4 -87 -35 -127t-75 -40q-28 0 -56.5 11.5t-55 23.5t-47.5 12q-8 0 -17.5 -9t-14.5 -39h-87z" />
    <glyph glyph-name="itilde" unicode="&#x129;" horiz-adv-x="303" 
d="M242 0h-181v553h181v-553zM-43 604q4 75 29.5 121t81.5 46q26 0 53 -11.5t53.5 -23.5t50.5 -12q10 0 19 10t13 38h88q-4 -87 -35 -127t-75 -40q-28 0 -56.5 11.5t-55 23.5t-47.5 12q-8 0 -17.5 -9t-14.5 -39h-87z" />
    <glyph glyph-name="Imacron" unicode="&#x12a;" horiz-adv-x="408" 
d="M378 0h-347v103l81 34v440l-81 34v103h347v-103l-81 -34v-440l81 -34v-103zM373 887v-114h-334v114h334z" />
    <glyph glyph-name="imacron" unicode="&#x12b;" horiz-adv-x="303" 
d="M242 0h-181v553h181v-553zM321 726v-114h-334v114h334z" />
    <glyph glyph-name="Ibreve" unicode="&#x12c;" horiz-adv-x="408" 
d="M378 0h-347v103l81 34v440l-81 34v103h347v-103l-81 -34v-440l81 -34v-103zM389 948q-4 -83 -53.5 -132t-131.5 -49q-86 0 -133 47.5t-49 133.5h100q8 -40 26 -53t56 -13q32 0 53.5 13.5t28.5 52.5h103z" />
    <glyph glyph-name="ibreve" unicode="&#x12d;" horiz-adv-x="303" 
d="M242 0h-181v553h181v-553zM337 787q-4 -83 -53.5 -132t-131.5 -49q-86 0 -133 47.5t-49 133.5h100q8 -40 26 -53t56 -13q32 0 53.5 13.5t28.5 52.5h103z" />
    <glyph glyph-name="Iogonek" unicode="&#x12e;" horiz-adv-x="408" 
d="M378 0h-347v103l81 34v440l-81 34v103h347v-103l-81 -34v-440l81 -34v-103zM293 -96q0 -35 39 -35q14 0 28 3.5t23 7.5v-106q-14 -5 -34.5 -9.5t-46.5 -4.5q-59 0 -95.5 30t-36.5 82q0 34 22 71t83 79l78 -22q-33 -32 -46.5 -53t-13.5 -43z" />
    <glyph glyph-name="iogonek" unicode="&#x12f;" horiz-adv-x="303" 
d="M152 776q42 0 69 -18.5t27 -66.5q0 -47 -27.5 -65.5t-68.5 -18.5q-43 0 -69.5 18.5t-26.5 65.5q0 48 26 66.5t70 18.5zM242 553v-553h-181v553h181zM161 -96q0 -35 39 -35q14 0 28 3.5t23 7.5v-106q-14 -5 -34.5 -9.5t-46.5 -4.5q-59 0 -95.5 30t-36.5 82q0 34 22 71
t83 79l78 -22q-33 -32 -46.5 -53t-13.5 -43z" />
    <glyph glyph-name="Idotaccent" unicode="&#x130;" horiz-adv-x="408" 
d="M378 0h-347v103l81 34v440l-81 34v103h347v-103l-81 -34v-440l81 -34v-103zM208 937q42 0 69 -18.5t27 -66.5q0 -47 -27.5 -65.5t-68.5 -18.5q-43 0 -69.5 18.5t-26.5 65.5q0 48 26 66.5t70 18.5z" />
    <glyph glyph-name="dotlessi" unicode="&#x131;" horiz-adv-x="303" 
d="M242 0h-181v553h181v-553z" />
    <glyph glyph-name="IJ" unicode="&#x132;" horiz-adv-x="738" 
d="M378 0h-347v103l81 34v440l-81 34v103h347v-103l-81 -34v-440l81 -34v-103zM429 -224q-29 0 -52 3t-41 7v148q14 -4 30 -7t35 -3q47 0 64 30t17 97v663h185v-650q0 -108 -29.5 -171t-83 -90t-125.5 -27z" />
    <glyph glyph-name="ij" unicode="&#x133;" horiz-adv-x="605" 
d="M152 776q42 0 69 -18.5t27 -66.5q0 -47 -27.5 -65.5t-68.5 -18.5q-43 0 -69.5 18.5t-26.5 65.5q0 48 26 66.5t70 18.5zM242 553v-553h-181v553h181zM359 691q0 48 26 66.5t69 18.5t69.5 -18.5t26.5 -66.5q0 -47 -27 -65.5t-69 -18.5t-68.5 18.5t-26.5 65.5zM353 -240
q-22 0 -49 3t-47 9v145q28 -9 54 -9q22 0 37 16.5t15 60.5v568h181v-598q0 -56 -20 -100t-62 -69.5t-109 -25.5z" />
    <glyph glyph-name="Jcircumflex" unicode="&#x134;" horiz-adv-x="329" 
d="M21 -224q-29 0 -52 3t-41 7v148q14 -4 30 -7t35 -3q47 0 64 30t17 97v663h185v-650q0 -108 -29.5 -171t-83 -90t-125.5 -27zM254 927q22 -34 54.5 -74.5t59.5 -71.5v-14h-114q-22 14 -43 32t-45 41q-24 -23 -44 -41t-41 -32h-117v14q17 18 39 44t42.5 53.5t33.5 48.5h175
z" />
    <glyph glyph-name="jcircumflex" unicode="&#x135;" horiz-adv-x="302" 
d="M50 -240q-22 0 -50.5 3.5t-45.5 8.5v145q28 -9 54 -9q22 0 37 16t15 59v570h181v-598q0 -54 -19.5 -98t-61.5 -70.5t-110 -26.5zM240 766q22 -34 54.5 -74.5t59.5 -71.5v-14h-114q-22 14 -43 32t-45 41q-24 -23 -44 -41t-41 -32h-117v14q17 18 39 44t42.5 53.5t33.5 48.5
h175z" />
    <glyph glyph-name="uni0136" unicode="&#x136;" horiz-adv-x="638" 
d="M641 0h-207l-128 270l-50 -31v-239h-186v714h186v-310q9 22 23 45l28 46l137 219h200l-205 -320zM430 -61v-11q-15 -40 -32 -75.5t-43 -73.5h-112v14q5 19 9.5 46t7.5 54t4 46h166z" />
    <glyph glyph-name="uni0137" unicode="&#x137;" horiz-adv-x="608" 
d="M241 760v-300q0 -35 -2.5 -75.5t-6.5 -74.5h3q3 6 11.5 20.5t20 32t21.5 31.5l114 159h198l-176 -235l186 -318h-203l-109 199l-57 -44v-155h-181v760h181zM402 -61v-11q-15 -40 -32 -75.5t-43 -73.5h-112v14q5 19 9.5 46t7.5 54t4 46h166z" />
    <glyph glyph-name="kgreenlandic" unicode="&#x138;" horiz-adv-x="608" 
d="M602 553l-180 -239l188 -314h-201l-111 197l-57 -45v-152h-181v553h181v-111q0 -40 -2 -72t-4 -58h4q10 16 23.5 39t29.5 45l111 157h199z" />
    <glyph glyph-name="Lacute" unicode="&#x139;" horiz-adv-x="526" 
d="M70 0v714h185v-562h242v-152h-427zM376 927v-10q-20 -18 -53.5 -46t-69.5 -56t-62 -48h-124v14q25 32 57 72t53 74h199z" />
    <glyph glyph-name="lacute" unicode="&#x13a;" horiz-adv-x="301" 
d="M240 0h-180v760h180v-760zM366 973v-10q-20 -18 -53.5 -46t-69.5 -56t-62 -48h-124v14q25 32 57 72t53 74h199z" />
    <glyph glyph-name="uni013B" unicode="&#x13b;" horiz-adv-x="526" 
d="M70 0v714h185v-562h242v-152h-427zM376 -61v-11q-15 -40 -32 -75.5t-43 -73.5h-112v14q5 19 9.5 46t7.5 54t4 46h166z" />
    <glyph glyph-name="uni013C" unicode="&#x13c;" horiz-adv-x="301" 
d="M240 0h-180v760h180v-760zM244 -61v-11q-15 -40 -32 -75.5t-43 -73.5h-112v14q5 19 9.5 46t7.5 54t4 46h166z" />
    <glyph glyph-name="Lcaron" unicode="&#x13d;" horiz-adv-x="526" 
d="M70 0v714h185v-562h242v-152h-427zM537 714v-11q-18 -38 -35.5 -73.5t-43.5 -75.5h-112v14q4 18 9.5 44.5t9.5 53.5t6 48h166z" />
    <glyph glyph-name="lcaron" unicode="&#x13e;" horiz-adv-x="301" 
d="M240 0h-180v760h180v-760zM463 760v-11q-18 -38 -35.5 -73.5t-43.5 -75.5h-112v14q4 18 9.5 44.5t9.5 53.5t6 48h166z" />
    <glyph glyph-name="Ldot" unicode="&#x13f;" horiz-adv-x="526" 
d="M70 0v714h185v-562h242v-152h-427zM415 479q42 0 69 -18.5t27 -66.5q0 -47 -27.5 -65.5t-68.5 -18.5q-43 0 -69.5 18.5t-26.5 65.5q0 48 26 66.5t70 18.5z" />
    <glyph glyph-name="ldot" unicode="&#x140;" horiz-adv-x="415" 
d="M240 0h-180v760h180v-760zM358 465q42 0 69 -18.5t27 -66.5q0 -47 -27.5 -65.5t-68.5 -18.5q-43 0 -69.5 18.5t-26.5 65.5q0 48 26 66.5t70 18.5z" />
    <glyph glyph-name="Lslash" unicode="&#x141;" horiz-adv-x="552" 
d="M96 0v236l-43 -26l-72 112l115 78v314h185v-192l89 59l74 -111l-163 -112v-206h242v-152h-427z" />
    <glyph glyph-name="lslash" unicode="&#x142;" horiz-adv-x="382" 
d="M102 0v211l-50 -29l-72 113l122 79v386h180v-269l46 30l74 -113l-120 -80v-328h-180z" />
    <glyph glyph-name="Nacute" unicode="&#x143;" horiz-adv-x="769" 
d="M698 0h-232l-234 481h-4q1 -15 3 -46t4 -67.5t2 -67.5v-300h-167v714h232l233 -473h3q0 13 -2 43.5t-3.5 65.5t-1.5 64v300h167v-714zM599 927v-10q-20 -18 -53.5 -46t-69.5 -56t-62 -48h-124v14q25 32 57 72t53 74h199z" />
    <glyph glyph-name="nacute" unicode="&#x144;" horiz-adv-x="618" 
d="M381 563q81 0 130 -50t49 -153v-360h-181v304q0 55 -13 83t-47 28q-47 0 -63 -41t-16 -128v-246h-180v553h138l23 -71h8q23 39 61 60t91 21zM528 766v-10q-20 -18 -53.5 -46t-69.5 -56t-62 -48h-124v14q25 32 57 72t53 74h199z" />
    <glyph glyph-name="uni0145" unicode="&#x145;" horiz-adv-x="769" 
d="M698 0h-232l-234 481h-4q1 -15 3 -46t4 -67.5t2 -67.5v-300h-167v714h232l233 -473h3q0 13 -2 43.5t-3.5 65.5t-1.5 64v300h167v-714zM477 -61v-11q-15 -40 -32 -75.5t-43 -73.5h-112v14q5 19 9.5 46t7.5 54t4 46h166z" />
    <glyph glyph-name="uni0146" unicode="&#x146;" horiz-adv-x="618" 
d="M381 563q81 0 130 -50t49 -153v-360h-181v304q0 55 -13 83t-47 28q-47 0 -63 -41t-16 -128v-246h-180v553h138l23 -71h8q23 39 61 60t91 21zM402 -61v-11q-15 -40 -32 -75.5t-43 -73.5h-112v14q5 19 9.5 46t7.5 54t4 46h166z" />
    <glyph glyph-name="Ncaron" unicode="&#x147;" horiz-adv-x="769" 
d="M698 0h-232l-234 481h-4q1 -15 3 -46t4 -67.5t2 -67.5v-300h-167v714h232l233 -473h3q0 13 -2 43.5t-3.5 65.5t-1.5 64v300h167v-714zM298 767q-13 21 -33.5 48.5t-42.5 53.5t-39 44v14h117q22 -15 41.5 -32.5t43.5 -40.5q24 23 45 41t43 32h114v-14q-16 -18 -37 -44
t-42 -53t-35 -49h-175z" />
    <glyph glyph-name="ncaron" unicode="&#x148;" horiz-adv-x="618" 
d="M381 563q81 0 130 -50t49 -153v-360h-181v304q0 55 -13 83t-47 28q-47 0 -63 -41t-16 -128v-246h-180v553h138l23 -71h8q23 39 61 60t91 21zM227 606q-13 21 -33.5 48.5t-42.5 53.5t-39 44v14h117q22 -15 41.5 -32.5t43.5 -40.5q24 23 45 41t43 32h114v-14
q-16 -18 -37 -44t-42 -53t-35 -49h-175z" />
    <glyph glyph-name="napostrophe" unicode="&#x149;" horiz-adv-x="774" 
d="M537 563q81 0 130 -50t49 -153v-360h-181v304q0 55 -13 83t-47 28q-47 0 -63 -41t-16 -128v-246h-180v553h138l23 -71h8q23 39 61 60t91 21zM208 713l6 -11q-8 -43 -20.5 -92.5t-27 -97t-30.5 -84.5h-135q9 42 17.5 94t15 103t10.5 88h164z" />
    <glyph glyph-name="Eng" unicode="&#x14a;" horiz-adv-x="769" 
d="M464 -234q-31 0 -55.5 3t-43.5 8v148q16 -4 34 -7.5t39 -3.5q50 0 73.5 22t25.5 66l-305 488h-4q3 -40 5.5 -94t2.5 -101v-295h-166v714h220l245 -389h3q-2 25 -3.5 59.5t-2.5 70t-1 64.5v195h167v-702q0 -122 -62 -184t-172 -62z" />
    <glyph glyph-name="eng" unicode="&#x14b;" horiz-adv-x="618" 
d="M371 -240q-22 0 -49 3t-47 9v145q15 -5 27 -7t26 -2q22 0 36.5 16.5t14.5 60.5v331q0 99 -58 99q-46 0 -63.5 -39t-17.5 -130v-246h-180v553h138l22 -68h11q23 41 63 59.5t88 18.5q77 0 127.5 -50t50.5 -153v-405q0 -51 -18.5 -95.5t-60 -72t-110.5 -27.5z" />
    <glyph glyph-name="Omacron" unicode="&#x14c;" horiz-adv-x="732" 
d="M685 358q0 -114 -34 -196.5t-104.5 -127t-180.5 -44.5q-162 0 -240.5 98.5t-78.5 270.5q0 171 78.5 268.5t241.5 97.5q165 0 241.5 -97.5t76.5 -269.5zM240 358q0 -101 30 -156t96 -55q68 0 97 54t29 157t-29 158t-96 55t-97 -55.5t-30 -157.5zM536 887v-114h-334v114
h334z" />
    <glyph glyph-name="omacron" unicode="&#x14d;" horiz-adv-x="593" 
d="M553 278q0 -84 -29 -149t-86.5 -102t-142.5 -37q-79 0 -137 36.5t-89 101t-31 150.5q0 130 66.5 207.5t193.5 77.5q74 0 132 -33t90.5 -96.5t32.5 -155.5zM221 277q0 -72 17.5 -110t58.5 -38q40 0 56.5 37.5t16.5 111.5q0 73 -17 109.5t-57 36.5q-75 0 -75 -147zM466 726
v-114h-334v114h334z" />
    <glyph glyph-name="Obreve" unicode="&#x14e;" horiz-adv-x="732" 
d="M685 358q0 -114 -34 -196.5t-104.5 -127t-180.5 -44.5q-162 0 -240.5 98.5t-78.5 270.5q0 171 78.5 268.5t241.5 97.5q165 0 241.5 -97.5t76.5 -269.5zM240 358q0 -101 30 -156t96 -55q68 0 97 54t29 157t-29 158t-96 55t-97 -55.5t-30 -157.5zM552 948
q-4 -83 -53.5 -132t-131.5 -49q-86 0 -133 47.5t-49 133.5h100q8 -40 26 -53t56 -13q32 0 53.5 13.5t28.5 52.5h103z" />
    <glyph glyph-name="obreve" unicode="&#x14f;" horiz-adv-x="593" 
d="M553 278q0 -84 -29 -149t-86.5 -102t-142.5 -37q-79 0 -137 36.5t-89 101t-31 150.5q0 130 66.5 207.5t193.5 77.5q74 0 132 -33t90.5 -96.5t32.5 -155.5zM221 277q0 -72 17.5 -110t58.5 -38q40 0 56.5 37.5t16.5 111.5q0 73 -17 109.5t-57 36.5q-75 0 -75 -147zM482 787
q-4 -83 -53.5 -132t-131.5 -49q-86 0 -133 47.5t-49 133.5h100q8 -40 26 -53t56 -13q32 0 53.5 13.5t28.5 52.5h103z" />
    <glyph glyph-name="Ohungarumlaut" unicode="&#x150;" horiz-adv-x="732" 
d="M685 358q0 -114 -34 -196.5t-104.5 -127t-180.5 -44.5q-162 0 -240.5 98.5t-78.5 270.5q0 171 78.5 268.5t241.5 97.5q165 0 241.5 -97.5t76.5 -269.5zM240 358q0 -101 30 -156t96 -55q68 0 97 54t29 157t-29 158t-96 55t-97 -55.5t-30 -157.5zM653 927v-10
q-7 -14 -26.5 -33.5t-44.5 -41t-50 -41.5t-44 -34h-93v14q23 38 49.5 78t40.5 68h168zM444 927v-10q-7 -14 -26 -33.5t-44 -41t-50.5 -41t-45.5 -34.5h-91v14q23 38 48.5 78t41.5 68h167z" />
    <glyph glyph-name="ohungarumlaut" unicode="&#x151;" horiz-adv-x="593" 
d="M553 278q0 -84 -29 -149t-86.5 -102t-142.5 -37q-79 0 -137 36.5t-89 101t-31 150.5q0 130 66.5 207.5t193.5 77.5q74 0 132 -33t90.5 -96.5t32.5 -155.5zM221 277q0 -72 17.5 -110t58.5 -38q40 0 56.5 37.5t16.5 111.5q0 73 -17 109.5t-57 36.5q-75 0 -75 -147zM583 766
v-10q-7 -14 -26.5 -33.5t-44.5 -41t-50 -41.5t-44 -34h-93v14q23 38 49.5 78t40.5 68h168zM374 766v-10q-7 -14 -26 -33.5t-44 -41t-50.5 -41t-45.5 -34.5h-91v14q23 38 48.5 78t41.5 68h167z" />
    <glyph glyph-name="OE" unicode="&#x152;" horiz-adv-x="881" 
d="M350 725q25 0 54.5 -3t48.5 -8h383v-151h-210v-118h194v-151h-194v-141h210v-153h-385q-19 -4 -48 -7t-53 -3q-102 0 -169 47t-100.5 130t-33.5 192t33 191.5t100 128.5t170 46zM355 571q-59 0 -87 -55.5t-28 -157.5q0 -101 28 -156t86 -55q26 0 49.5 3.5t39.5 11.5v389
q-14 10 -38 15t-50 5z" />
    <glyph glyph-name="oe" unicode="&#x153;" horiz-adv-x="901" 
d="M637 563q103 0 165 -64.5t62 -189.5v-84h-311q1 -46 29.5 -74t84.5 -28q38 0 79.5 9.5t85.5 33.5v-135q-39 -21 -82 -31t-106 -10q-52 0 -96 16t-77 49q-65 -65 -176 -65q-78 0 -135.5 35t-89.5 100t-32 153q0 133 67.5 209t192.5 76q102 0 166 -61q32 29 73.5 45
t99.5 16zM630 434q-32 0 -52.5 -20.5t-23.5 -70.5h147q0 42 -18.5 66.5t-52.5 24.5zM296 424q-40 0 -57 -37t-17 -110q0 -72 17 -110t58 -38q40 0 56.5 37.5t16.5 111.5q0 73 -17 109.5t-57 36.5z" />
    <glyph glyph-name="Racute" unicode="&#x154;" horiz-adv-x="629" 
d="M289 714q275 0 275 -211q0 -65 -29.5 -112.5t-82.5 -79.5l186 -311h-207l-137 263h-39v-263h-185v714h219zM286 569h-31v-166h29q42 0 67 20.5t25 70.5q0 36 -21.5 55.5t-68.5 19.5zM532 927v-10q-20 -18 -53.5 -46t-69.5 -56t-62 -48h-124v14q25 32 57 72t53 74h199z
" />
    <glyph glyph-name="racute" unicode="&#x155;" horiz-adv-x="435" 
d="M371 563q13 0 28 -2t26 -4l-16 -178q-10 3 -23.5 4.5t-35.5 1.5q-27 0 -52 -9t-41 -33t-16 -69v-274h-181v553h136l27 -88h9q20 38 57 68t82 30zM449 766v-10q-20 -18 -53.5 -46t-69.5 -56t-62 -48h-124v14q25 32 57 72t53 74h199z" />
    <glyph glyph-name="uni0156" unicode="&#x156;" horiz-adv-x="629" 
d="M289 714q275 0 275 -211q0 -65 -29.5 -112.5t-82.5 -79.5l186 -311h-207l-137 263h-39v-263h-185v714h219zM286 569h-31v-166h29q42 0 67 20.5t25 70.5q0 36 -21.5 55.5t-68.5 19.5zM421 -61v-11q-15 -40 -32 -75.5t-43 -73.5h-112v14q5 19 9.5 46t7.5 54t4 46h166z" />
    <glyph glyph-name="uni0157" unicode="&#x157;" horiz-adv-x="435" 
d="M371 563q13 0 28 -2t26 -4l-16 -178q-10 3 -23.5 4.5t-35.5 1.5q-27 0 -52 -9t-41 -33t-16 -69v-274h-181v553h136l27 -88h9q20 38 57 68t82 30zM248 -61v-11q-15 -40 -32 -75.5t-43 -73.5h-112v14q5 19 9.5 46t7.5 54t4 46h166z" />
    <glyph glyph-name="Rcaron" unicode="&#x158;" horiz-adv-x="629" 
d="M289 714q275 0 275 -211q0 -65 -29.5 -112.5t-82.5 -79.5l186 -311h-207l-137 263h-39v-263h-185v714h219zM286 569h-31v-166h29q42 0 67 20.5t25 70.5q0 36 -21.5 55.5t-68.5 19.5zM231 767q-13 21 -33.5 48.5t-42.5 53.5t-39 44v14h117q22 -15 41.5 -32.5t43.5 -40.5
q24 23 45 41t43 32h114v-14q-16 -18 -37 -44t-42 -53t-35 -49h-175z" />
    <glyph glyph-name="rcaron" unicode="&#x159;" horiz-adv-x="435" 
d="M371 563q13 0 28 -2t26 -4l-16 -178q-10 3 -23.5 4.5t-35.5 1.5q-27 0 -52 -9t-41 -33t-16 -69v-274h-181v553h136l27 -88h9q20 38 57 68t82 30zM148 606q-13 21 -33.5 48.5t-42.5 53.5t-39 44v14h117q22 -15 41.5 -32.5t43.5 -40.5q24 23 45 41t43 32h114v-14
q-16 -18 -37 -44t-42 -53t-35 -49h-175z" />
    <glyph glyph-name="Sacute" unicode="&#x15a;" horiz-adv-x="532" 
d="M502 217q0 -61 -29 -113t-86.5 -83t-144.5 -31q-63 0 -108.5 10t-95.5 35v172q52 -29 106 -44.5t97 -15.5q39 0 57 15t18 38q0 18 -10 31t-35 28t-68 37q-49 26 -85 53.5t-55.5 66.5t-19.5 99q0 101 67.5 155t182.5 54q60 0 112 -14.5t97 -36.5l-54 -149q-43 22 -82.5 34
t-74.5 12q-34 0 -49 -13t-15 -33q0 -17 10.5 -30.5t37.5 -29t75 -39.5q73 -37 112.5 -83t39.5 -125zM487 927v-10q-20 -18 -53.5 -46t-69.5 -56t-62 -48h-124v14q25 32 57 72t53 74h199z" />
    <glyph glyph-name="sacute" unicode="&#x15b;" horiz-adv-x="473" 
d="M438 170q0 -82 -52 -131t-165 -49q-53 0 -96.5 6.5t-87.5 24.5v153q44 -22 91.5 -33.5t81.5 -11.5q55 0 55 29q0 11 -8 20t-30.5 20.5t-66.5 30.5q-62 28 -93 67.5t-31 103.5q0 80 56.5 121.5t153.5 41.5q50 0 95 -12t92 -35l-48 -123q-35 18 -72 29.5t-63 11.5
q-42 0 -42 -24q0 -10 7 -17.5t28.5 -18t63.5 -29.5q64 -29 97.5 -67t33.5 -108zM449 766v-10q-20 -18 -53.5 -46t-69.5 -56t-62 -48h-124v14q25 32 57 72t53 74h199z" />
    <glyph glyph-name="Scircumflex" unicode="&#x15c;" horiz-adv-x="532" 
d="M502 217q0 -61 -29 -113t-86.5 -83t-144.5 -31q-63 0 -108.5 10t-95.5 35v172q52 -29 106 -44.5t97 -15.5q39 0 57 15t18 38q0 18 -10 31t-35 28t-68 37q-49 26 -85 53.5t-55.5 66.5t-19.5 99q0 101 67.5 155t182.5 54q60 0 112 -14.5t97 -36.5l-54 -149q-43 22 -82.5 34
t-74.5 12q-34 0 -49 -13t-15 -33q0 -17 10.5 -30.5t37.5 -29t75 -39.5q73 -37 112.5 -83t39.5 -125zM360 927q22 -34 54.5 -74.5t59.5 -71.5v-14h-114q-22 14 -43 32t-45 41q-24 -23 -44 -41t-41 -32h-117v14q17 18 39 44t42.5 53.5t33.5 48.5h175z" />
    <glyph glyph-name="scircumflex" unicode="&#x15d;" horiz-adv-x="473" 
d="M438 170q0 -82 -52 -131t-165 -49q-53 0 -96.5 6.5t-87.5 24.5v153q44 -22 91.5 -33.5t81.5 -11.5q55 0 55 29q0 11 -8 20t-30.5 20.5t-66.5 30.5q-62 28 -93 67.5t-31 103.5q0 80 56.5 121.5t153.5 41.5q50 0 95 -12t92 -35l-48 -123q-35 18 -72 29.5t-63 11.5
q-42 0 -42 -24q0 -10 7 -17.5t28.5 -18t63.5 -29.5q64 -29 97.5 -67t33.5 -108zM322 766q22 -34 54.5 -74.5t59.5 -71.5v-14h-114q-22 14 -43 32t-45 41q-24 -23 -44 -41t-41 -32h-117v14q17 18 39 44t42.5 53.5t33.5 48.5h175z" />
    <glyph glyph-name="Scedilla" unicode="&#x15e;" horiz-adv-x="532" 
d="M502 217q0 -61 -29 -113t-86.5 -83t-144.5 -31q-63 0 -108.5 10t-95.5 35v172q52 -29 106 -44.5t97 -15.5q39 0 57 15t18 38q0 18 -10 31t-35 28t-68 37q-49 26 -85 53.5t-55.5 66.5t-19.5 99q0 101 67.5 155t182.5 54q60 0 112 -14.5t97 -36.5l-54 -149q-43 22 -82.5 34
t-74.5 12q-34 0 -49 -13t-15 -33q0 -17 10.5 -30.5t37.5 -29t75 -39.5q73 -37 112.5 -83t39.5 -125zM373 -124q0 -53 -35.5 -84.5t-96.5 -31.5q-31 0 -56.5 4t-43.5 10v93q31 -10 61 -10q39 0 39 28q0 32 -69 41l31 74h88l-11 -31q35 -7 64 -28t29 -65z" />
    <glyph glyph-name="scedilla" unicode="&#x15f;" horiz-adv-x="473" 
d="M438 170q0 -82 -52 -131t-165 -49q-53 0 -96.5 6.5t-87.5 24.5v153q44 -22 91.5 -33.5t81.5 -11.5q55 0 55 29q0 11 -8 20t-30.5 20.5t-66.5 30.5q-62 28 -93 67.5t-31 103.5q0 80 56.5 121.5t153.5 41.5q50 0 95 -12t92 -35l-48 -123q-35 18 -72 29.5t-63 11.5
q-42 0 -42 -24q0 -10 7 -17.5t28.5 -18t63.5 -29.5q64 -29 97.5 -67t33.5 -108zM339 -124q0 -53 -35.5 -84.5t-96.5 -31.5q-31 0 -56.5 4t-43.5 10v93q31 -10 61 -10q39 0 39 28q0 32 -69 41l31 74h88l-11 -31q35 -7 64 -28t29 -65z" />
    <glyph glyph-name="Scaron" unicode="&#x160;" horiz-adv-x="532" 
d="M502 217q0 -61 -29 -113t-86.5 -83t-144.5 -31q-63 0 -108.5 10t-95.5 35v172q52 -29 106 -44.5t97 -15.5q39 0 57 15t18 38q0 18 -10 31t-35 28t-68 37q-49 26 -85 53.5t-55.5 66.5t-19.5 99q0 101 67.5 155t182.5 54q60 0 112 -14.5t97 -36.5l-54 -149q-43 22 -82.5 34
t-74.5 12q-34 0 -49 -13t-15 -33q0 -17 10.5 -30.5t37.5 -29t75 -39.5q73 -37 112.5 -83t39.5 -125zM185 767q-13 21 -33.5 48.5t-42.5 53.5t-39 44v14h117q22 -15 41.5 -32.5t43.5 -40.5q24 23 45 41t43 32h114v-14q-16 -18 -37 -44t-42 -53t-35 -49h-175z" />
    <glyph glyph-name="scaron" unicode="&#x161;" horiz-adv-x="473" 
d="M438 170q0 -82 -52 -131t-165 -49q-53 0 -96.5 6.5t-87.5 24.5v153q44 -22 91.5 -33.5t81.5 -11.5q55 0 55 29q0 11 -8 20t-30.5 20.5t-66.5 30.5q-62 28 -93 67.5t-31 103.5q0 80 56.5 121.5t153.5 41.5q50 0 95 -12t92 -35l-48 -123q-35 18 -72 29.5t-63 11.5
q-42 0 -42 -24q0 -10 7 -17.5t28.5 -18t63.5 -29.5q64 -29 97.5 -67t33.5 -108zM147 606q-13 21 -33.5 48.5t-42.5 53.5t-39 44v14h117q22 -15 41.5 -32.5t43.5 -40.5q24 23 45 41t43 32h114v-14q-16 -18 -37 -44t-42 -53t-35 -49h-175z" />
    <glyph glyph-name="uni0162" unicode="&#x162;" horiz-adv-x="543" 
d="M364 0h-184v560h-158v154h499v-154h-157v-560zM384 -124q0 -53 -35.5 -84.5t-96.5 -31.5q-31 0 -56.5 4t-43.5 10v93q31 -10 61 -10q39 0 39 28q0 32 -69 41l31 74h88l-11 -31q35 -7 64 -28t29 -65z" />
    <glyph glyph-name="uni0163" unicode="&#x163;" horiz-adv-x="421" 
d="M311 137q21 0 41 5.5t43 13.5v-135q-30 -14 -62.5 -22.5t-79.5 -8.5q-82 0 -126.5 42.5t-44.5 149.5v232h-63v81l80 53l45 116h119v-111h124v-139h-124v-223q0 -54 48 -54zM356 -124q0 -53 -35.5 -84.5t-96.5 -31.5q-31 0 -56.5 4t-43.5 10v93q31 -10 61 -10q39 0 39 28
q0 32 -69 41l31 74h88l-11 -31q35 -7 64 -28t29 -65z" />
    <glyph glyph-name="Tcaron" unicode="&#x164;" horiz-adv-x="543" 
d="M364 0h-184v560h-158v154h499v-154h-157v-560zM186 767q-13 21 -33.5 48.5t-42.5 53.5t-39 44v14h117q22 -15 41.5 -32.5t43.5 -40.5q24 23 45 41t43 32h114v-14q-16 -18 -37 -44t-42 -53t-35 -49h-175z" />
    <glyph glyph-name="tcaron" unicode="&#x165;" horiz-adv-x="421" 
d="M311 137q21 0 41 5.5t43 13.5v-135q-30 -14 -62.5 -22.5t-79.5 -8.5q-82 0 -126.5 42.5t-44.5 149.5v232h-63v81l80 53l45 116h119v-111h124v-139h-124v-223q0 -54 48 -54zM588 760v-11q-18 -38 -35.5 -73.5t-43.5 -75.5h-112v14q4 18 9.5 44.5t9.5 53.5t6 48h166z" />
    <glyph glyph-name="Tbar" unicode="&#x166;" horiz-adv-x="543" 
d="M180 0v273h-94v147h94v140h-158v154h499v-154h-157v-140h95v-147h-95v-273h-184z" />
    <glyph glyph-name="tbar" unicode="&#x167;" horiz-adv-x="434" 
d="M27 218v117h55v79h-63v81l80 53l45 116h119v-111h124v-139h-124v-79h109v-117h-109v-27q0 -54 48 -54q21 0 41 5.5t43 13.5v-135q-30 -14 -62.5 -22.5t-79.5 -8.5q-82 0 -126.5 42.5t-44.5 149.5v36h-55z" />
    <glyph glyph-name="Utilde" unicode="&#x168;" horiz-adv-x="695" 
d="M629 714v-445q0 -131 -71.5 -205t-212.5 -74q-135 0 -206.5 71t-71.5 204v449h185v-437q0 -70 24 -100t72 -30q50 0 73 30.5t23 100.5v436h185zM153 765q4 75 29.5 121t81.5 46q26 0 53 -11.5t53.5 -23.5t50.5 -12q10 0 19 10t13 38h88q-4 -87 -35 -127t-75 -40
q-28 0 -56.5 11.5t-55 23.5t-47.5 12q-8 0 -17.5 -9t-14.5 -39h-87z" />
    <glyph glyph-name="utilde" unicode="&#x169;" horiz-adv-x="618" 
d="M558 553v-553h-137l-22 69h-10q-24 -41 -63.5 -60t-88.5 -19q-78 0 -128 50t-50 153v360h181v-304q0 -55 13 -83t44 -28q50 0 65.5 42.5t15.5 119.5v253h180zM114 604q4 75 29.5 121t81.5 46q26 0 53 -11.5t53.5 -23.5t50.5 -12q10 0 19 10t13 38h88q-4 -87 -35 -127
t-75 -40q-28 0 -56.5 11.5t-55 23.5t-47.5 12q-8 0 -17.5 -9t-14.5 -39h-87z" />
    <glyph glyph-name="Umacron" unicode="&#x16a;" horiz-adv-x="695" 
d="M629 714v-445q0 -131 -71.5 -205t-212.5 -74q-135 0 -206.5 71t-71.5 204v449h185v-437q0 -70 24 -100t72 -30q50 0 73 30.5t23 100.5v436h185zM517 887v-114h-334v114h334z" />
    <glyph glyph-name="umacron" unicode="&#x16b;" horiz-adv-x="618" 
d="M558 553v-553h-137l-22 69h-10q-24 -41 -63.5 -60t-88.5 -19q-78 0 -128 50t-50 153v360h181v-304q0 -55 13 -83t44 -28q50 0 65.5 42.5t15.5 119.5v253h180zM478 726v-114h-334v114h334z" />
    <glyph glyph-name="Ubreve" unicode="&#x16c;" horiz-adv-x="695" 
d="M629 714v-445q0 -131 -71.5 -205t-212.5 -74q-135 0 -206.5 71t-71.5 204v449h185v-437q0 -70 24 -100t72 -30q50 0 73 30.5t23 100.5v436h185zM533 948q-4 -83 -53.5 -132t-131.5 -49q-86 0 -133 47.5t-49 133.5h100q8 -40 26 -53t56 -13q32 0 53.5 13.5t28.5 52.5h103z
" />
    <glyph glyph-name="ubreve" unicode="&#x16d;" horiz-adv-x="618" 
d="M558 553v-553h-137l-22 69h-10q-24 -41 -63.5 -60t-88.5 -19q-78 0 -128 50t-50 153v360h181v-304q0 -55 13 -83t44 -28q50 0 65.5 42.5t15.5 119.5v253h180zM495 787q-4 -83 -53.5 -132t-131.5 -49q-86 0 -133 47.5t-49 133.5h100q8 -40 26 -53t56 -13q32 0 53.5 13.5
t28.5 52.5h103z" />
    <glyph glyph-name="Uring" unicode="&#x16e;" horiz-adv-x="695" 
d="M629 714v-445q0 -131 -71.5 -205t-212.5 -74q-135 0 -206.5 71t-71.5 204v449h185v-437q0 -70 24 -100t72 -30q50 0 73 30.5t23 100.5v436h185zM348 765q-57 0 -92 34t-35 89q0 56 35 90t92 34q55 0 92.5 -34t37.5 -89q0 -56 -37.5 -90t-92.5 -34zM348 847q17 0 29 11.5
t12 29.5q0 19 -12 30t-29 11t-29 -11t-12 -30q0 -18 10.5 -29.5t30.5 -11.5z" />
    <glyph glyph-name="uring" unicode="&#x16f;" horiz-adv-x="618" 
d="M558 553v-553h-137l-22 69h-10q-24 -41 -63.5 -60t-88.5 -19q-78 0 -128 50t-50 153v360h181v-304q0 -55 13 -83t44 -28q50 0 65.5 42.5t15.5 119.5v253h180zM309 604q-57 0 -92 34t-35 89q0 56 35 90t92 34q55 0 92.5 -34t37.5 -89q0 -56 -37.5 -90t-92.5 -34zM309 686
q17 0 29 11.5t12 29.5q0 19 -12 30t-29 11t-29 -11t-12 -30q0 -18 10.5 -29.5t30.5 -11.5z" />
    <glyph glyph-name="Uhungarumlaut" unicode="&#x170;" horiz-adv-x="695" 
d="M629 714v-445q0 -131 -71.5 -205t-212.5 -74q-135 0 -206.5 71t-71.5 204v449h185v-437q0 -70 24 -100t72 -30q50 0 73 30.5t23 100.5v436h185zM634 927v-10q-7 -14 -26.5 -33.5t-44.5 -41t-50 -41.5t-44 -34h-93v14q23 38 49.5 78t40.5 68h168zM425 927v-10
q-7 -14 -26 -33.5t-44 -41t-50.5 -41t-45.5 -34.5h-91v14q23 38 48.5 78t41.5 68h167z" />
    <glyph glyph-name="uhungarumlaut" unicode="&#x171;" horiz-adv-x="618" 
d="M558 553v-553h-137l-22 69h-10q-24 -41 -63.5 -60t-88.5 -19q-78 0 -128 50t-50 153v360h181v-304q0 -55 13 -83t44 -28q50 0 65.5 42.5t15.5 119.5v253h180zM596 766v-10q-7 -14 -26.5 -33.5t-44.5 -41t-50 -41.5t-44 -34h-93v14q23 38 49.5 78t40.5 68h168zM387 766
v-10q-7 -14 -26 -33.5t-44 -41t-50.5 -41t-45.5 -34.5h-91v14q23 38 48.5 78t41.5 68h167z" />
    <glyph glyph-name="Uogonek" unicode="&#x172;" horiz-adv-x="695" 
d="M463 -91q0 -22 10 -30.5t26 -8.5q12 0 28.5 3t26.5 8v-108q-37 -13 -85 -13q-60 0 -95 31t-35 88q0 27 11 55t39 58q-21 -2 -44 -2q-135 0 -206.5 71t-71.5 204v449h185v-437q0 -70 24 -100t72 -30q50 0 73 30.5t23 100.5v436h185v-445q0 -145 -84 -217
q-41 -45 -61.5 -77.5t-20.5 -65.5z" />
    <glyph glyph-name="uogonek" unicode="&#x173;" horiz-adv-x="618" 
d="M558 553v-553h-137l-22 69h-10q-24 -41 -63.5 -60t-88.5 -19q-78 0 -128 50t-50 153v360h181v-304q0 -55 13 -83t44 -28q50 0 65.5 42.5t15.5 119.5v253h180zM465 -96q0 -35 39 -35q14 0 28 3.5t23 7.5v-106q-14 -5 -34.5 -9.5t-46.5 -4.5q-59 0 -95.5 30t-36.5 82
q0 34 22 71t83 79l78 -22q-33 -32 -46.5 -53t-13.5 -43z" />
    <glyph glyph-name="Wcircumflex" unicode="&#x174;" horiz-adv-x="955" 
d="M946 714l-161 -714h-216l-61 295q-4 19 -10 51t-12 68t-8 63q-2 -25 -7.5 -61t-12 -69.5t-9.5 -51.5l-62 -295h-215l-162 714h178l68 -341q4 -20 10.5 -55.5t13 -73.5t9.5 -65q5 39 13 87t17 92t15 70l63 286h163l60 -286q6 -27 15 -72t17 -92.5t12 -84.5q3 25 9 61.5
t12.5 72t10.5 59.5l69 342h181zM567 927q22 -34 54.5 -74.5t59.5 -71.5v-14h-114q-22 14 -43 32t-45 41q-24 -23 -44 -41t-41 -32h-117v14q17 18 39 44t42.5 53.5t33.5 48.5h175z" />
    <glyph glyph-name="wcircumflex" unicode="&#x175;" horiz-adv-x="846" 
d="M501 0l-52 243q-5 25 -10 55.5t-9 59.5t-7 47h-3q-2 -19 -7 -48.5t-10 -61t-11 -56.5l-50 -239h-195l-138 553h179l39 -198q7 -37 14 -89.5t9 -95.5h3q2 26 6.5 59.5t10 64.5t9.5 50l44 209h202l41 -212q8 -37 15.5 -86t11.5 -85h3q3 43 9.5 95.5t14.5 89.5l42 198h175
l-139 -553h-197zM512 766q22 -34 54.5 -74.5t59.5 -71.5v-14h-114q-22 14 -43 32t-45 41q-24 -23 -44 -41t-41 -32h-117v14q17 18 39 44t42.5 53.5t33.5 48.5h175z" />
    <glyph glyph-name="Ycircumflex" unicode="&#x176;" horiz-adv-x="613" 
d="M307 451l110 263h196l-214 -437v-277h-185v271l-214 443h198zM395 927q22 -34 54.5 -74.5t59.5 -71.5v-14h-114q-22 14 -43 32t-45 41q-24 -23 -44 -41t-41 -32h-117v14q17 18 39 44t42.5 53.5t33.5 48.5h175z" />
    <glyph glyph-name="ycircumflex" unicode="&#x177;" horiz-adv-x="566" 
d="M0 553h190l81 -289q4 -16 7 -36t4 -36h4q2 19 6 36.5t8 34.5l81 290h185l-200 -588q-36 -106 -90 -155.5t-151 -49.5q-23 0 -41.5 2.5t-33.5 5.5v147q10 -2 24 -4t28 -2q41 0 60 23.5t35 68.5l2 7zM372 766q22 -34 54.5 -74.5t59.5 -71.5v-14h-114q-22 14 -43 32t-45 41
q-24 -23 -44 -41t-41 -32h-117v14q17 18 39 44t42.5 53.5t33.5 48.5h175z" />
    <glyph glyph-name="Ydieresis" unicode="&#x178;" horiz-adv-x="613" 
d="M307 451l110 263h196l-214 -437v-277h-185v271l-214 443h198zM117 851q0 39 22.5 58t56.5 19t57 -19.5t23 -57.5t-23 -57t-57 -19t-56.5 19t-22.5 57zM336 851q0 39 22.5 58t57.5 19q34 0 57 -19.5t23 -57.5t-23 -57t-57 -19q-35 0 -57.5 19t-22.5 57z" />
    <glyph glyph-name="Zacute" unicode="&#x179;" horiz-adv-x="560" 
d="M536 0h-509v119l283 443h-277v152h496v-119l-283 -443h290v-152zM501 927v-10q-20 -18 -53.5 -46t-69.5 -56t-62 -48h-124v14q25 32 57 72t53 74h199z" />
    <glyph glyph-name="zacute" unicode="&#x17a;" horiz-adv-x="467" 
d="M445 0h-424v105l209 306h-197v142h402v-114l-200 -297h210v-142zM451 766v-10q-20 -18 -53.5 -46t-69.5 -56t-62 -48h-124v14q25 32 57 72t53 74h199z" />
    <glyph glyph-name="Zdotaccent" unicode="&#x17b;" horiz-adv-x="560" 
d="M536 0h-509v119l283 443h-277v152h496v-119l-283 -443h290v-152zM290 937q42 0 69 -18.5t27 -66.5q0 -47 -27.5 -65.5t-68.5 -18.5q-43 0 -69.5 18.5t-26.5 65.5q0 48 26 66.5t70 18.5z" />
    <glyph glyph-name="zdotaccent" unicode="&#x17c;" horiz-adv-x="467" 
d="M445 0h-424v105l209 306h-197v142h402v-114l-200 -297h210v-142zM240 776q42 0 69 -18.5t27 -66.5q0 -47 -27.5 -65.5t-68.5 -18.5q-43 0 -69.5 18.5t-26.5 65.5q0 48 26 66.5t70 18.5z" />
    <glyph glyph-name="Zcaron" unicode="&#x17d;" horiz-adv-x="560" 
d="M536 0h-509v119l283 443h-277v152h496v-119l-283 -443h290v-152zM200 767q-13 21 -33.5 48.5t-42.5 53.5t-39 44v14h117q22 -15 41.5 -32.5t43.5 -40.5q24 23 45 41t43 32h114v-14q-16 -18 -37 -44t-42 -53t-35 -49h-175z" />
    <glyph glyph-name="zcaron" unicode="&#x17e;" horiz-adv-x="467" 
d="M445 0h-424v105l209 306h-197v142h402v-114l-200 -297h210v-142zM149 606q-13 21 -33.5 48.5t-42.5 53.5t-39 44v14h117q22 -15 41.5 -32.5t43.5 -40.5q24 23 45 41t43 32h114v-14q-16 -18 -37 -44t-42 -53t-35 -49h-175z" />
    <glyph glyph-name="longs" unicode="&#x17f;" horiz-adv-x="371" 
d="M292 629q-27 0 -36 -16.5t-9 -50.5v-562h-181v559q0 82 22 126.5t63.5 62t100.5 17.5q44 0 78.5 -7t63.5 -19l-35 -124q-17 5 -32.5 9.5t-34.5 4.5z" />
    <glyph glyph-name="uni0180" unicode="&#x180;" horiz-adv-x="604" 
d="M379 -10q-53 0 -81 17.5t-51 44.5h-11l-28 -52h-143v570h-69v119h69v71h182v-71h108v-119h-108v-7q-1 -24 -2.5 -46.5t-3.5 -48.5h6q19 33 52 55t84 22q53 0 94.5 -28.5t65.5 -88.5t24 -155q0 -143 -53 -213t-135 -70zM320 138q27 0 44.5 33t17.5 104q0 65 -18 93.5
t-46 28.5q-30 0 -50 -27t-21 -87v-11q0 -69 16 -101.5t57 -32.5z" />
    <glyph glyph-name="uni0181" unicode="&#x181;" horiz-adv-x="779" 
d="M215 0v562h-24q-21 0 -31 -14.5t-10 -29.5q0 -20 3 -32t6 -19h-144q-4 7 -8 24t-4 42q0 48 18 89.5t62 66.5t121 25h234q138 0 209 -40t71 -140q0 -60 -25 -102.5t-68 -51.5v-6q30 -8 54.5 -27t39.5 -52t15 -87q0 -94 -67.5 -151t-186.5 -57h-265zM401 443h50q43 0 60 16
t17 47q0 30 -19.5 43t-62.5 13h-45v-119zM401 154h59q48 0 65 20t17 53q0 29 -17.5 49.5t-66.5 20.5h-57v-143z" />
    <glyph glyph-name="uni0182" unicode="&#x182;" horiz-adv-x="599" 
d="M70 0v714h437v-152h-252v-101h46q132 0 197.5 -59.5t65.5 -161.5q0 -113 -72 -176.5t-200 -63.5h-222zM255 150h35q90 0 90 83q0 38 -24 58.5t-64 20.5h-37v-162z" />
    <glyph glyph-name="uni0183" unicode="&#x183;" horiz-adv-x="604" 
d="M379 -10q-53 0 -81 17.5t-51 44.5h-11l-28 -52h-143v760h451v-141h-269v-47q0 -29 -2.5 -55.5t-3.5 -48.5h6q19 33 52 55t84 22q53 0 94.5 -28t65.5 -88t24 -155q0 -141 -53 -212.5t-135 -71.5zM320 138q27 0 44.5 34.5t17.5 103.5q0 65 -18 93.5t-46 28.5q-30 0 -50 -26
t-21 -85v-11q0 -67 16 -102.5t57 -35.5z" />
    <glyph glyph-name="uni0184" unicode="&#x184;" horiz-adv-x="639" 
d="M335 -15q-126 0 -195.5 52.5t-69.5 174.5v502h186v-258h58q102 0 166 -31t94.5 -84t30.5 -118q0 -108 -66 -173t-204 -65zM328 140q37 0 62.5 18.5t25.5 64.5q0 50 -35 64t-93 14h-32v-81q0 -80 72 -80z" />
    <glyph glyph-name="uni0185" unicode="&#x185;" horiz-adv-x="599" 
d="M310 -10q-115 0 -181.5 75t-66.5 206v489h182v-170q0 -34 -2 -59t-5 -43h7q18 28 51.5 51t87.5 23q50 0 90.5 -32.5t64.5 -96t24 -157.5q0 -100 -34 -163.5t-91 -93t-127 -29.5zM313 141q31 0 48 29t17 106q0 69 -18 103t-43 34q-38 0 -55.5 -28.5t-17.5 -83.5v-33
q0 -72 20 -99.5t49 -27.5z" />
    <glyph glyph-name="uni0186" unicode="&#x186;" horiz-adv-x="597" 
d="M233 -10q-50 0 -93.5 10t-83.5 30v159q40 -19 79 -32t82 -13q143 0 143 209q0 102 -34.5 159.5t-96.5 57.5q-40 0 -78.5 -11t-73.5 -31l-47 146q50 26 108 38t107 12q101 0 169 -43.5t102 -123.5t34 -190q0 -112 -35.5 -197t-106 -132.5t-175.5 -47.5z" />
    <glyph glyph-name="uni0187" unicode="&#x187;" horiz-adv-x="594" 
d="M581 887q25 0 46 -5.5t29 -10.5v-144q-8 3 -22 6.5t-30 3.5q-20 0 -31 -11.5t-11 -39.5v-24l-56 -143q-36 19 -72 34t-72 15q-58 0 -88.5 -57t-30.5 -157q0 -103 29 -155.5t96 -52.5q40 0 80 13t88 33v-161q-46 -22 -90 -31.5t-98 -9.5q-102 0 -168 44t-98 126t-32 195
q0 109 35.5 192t104 130t168.5 47q29 0 56 -6v1q0 59 24 96t62 54.5t81 17.5z" />
    <glyph glyph-name="uni0188" unicode="&#x188;" horiz-adv-x="496" 
d="M283 -10q-119 0 -183 66t-64 218q0 146 70 217.5t188 71.5q8 0 15 -0.5t13 -1.5v15q0 68 21.5 109t59.5 60t86 19q25 0 46 -6t28 -11v-140q-8 3 -21.5 6.5t-30.5 3.5q-19 0 -30.5 -11.5t-11.5 -39.5v-50l-53 -137q-32 17 -60.5 26.5t-57.5 9.5q-76 0 -76 -140
q0 -73 21 -104.5t59 -31.5q44 0 78.5 14t68.5 40v-155q-35 -26 -73 -37t-93 -11z" />
    <glyph glyph-name="uni0189" unicode="&#x189;" horiz-adv-x="680" 
d="M299 714q161 0 248 -88t87 -254q0 -123 -42.5 -205.5t-121 -124.5t-186.5 -42h-214v287h-60v145h60v282h229zM299 561h-44v-129h90v-145h-90v-133h32q80 0 117.5 52t37.5 159q0 101 -35.5 148.5t-107.5 47.5z" />
    <glyph glyph-name="uni018A" unicode="&#x18a;" horiz-adv-x="830" 
d="M215 0v559h-24q-21 0 -31 -14t-10 -31t3 -28.5t6 -18.5h-143q-3 7 -8 22t-5 37q0 50 18 93t61.5 69t120.5 26h234q105 0 182.5 -39.5t120.5 -117t43 -190.5q0 -180 -96.5 -273.5t-267.5 -93.5h-204zM401 156h31q81 0 119.5 51t38.5 154q0 105 -36.5 151.5t-106.5 46.5
h-46v-403z" />
    <glyph glyph-name="uni018B" unicode="&#x18b;" horiz-adv-x="597" 
d="M299 0q-129 0 -198 58.5t-69 171.5q0 68 31 120t91 81.5t148 29.5h40v98h-250v155h434v-714h-227zM307 150h35v162h-37q-41 0 -64.5 -21.5t-23.5 -60.5q0 -80 90 -80z" />
    <glyph glyph-name="uni018C" unicode="&#x18c;" horiz-adv-x="604" 
d="M222 -10q-82 0 -134 74t-52 212q0 86 24.5 146.5t67 93t96.5 32.5q51 0 84.5 -22.5t53.5 -54.5h6q0 3 -3 21.5t-5.5 42t-2.5 41.5v43h-270v141h452v-760h-143l-32 62h-7q-21 -31 -52 -51.5t-83 -20.5zM289 136q41 0 58 28t19 92v24q0 58 -17 88t-61 30q-31 0 -49 -31
t-18 -92q0 -71 18.5 -105t49.5 -34z" />
    <glyph glyph-name="uni018D" unicode="&#x18d;" horiz-adv-x="589" 
d="M265 -216q-62 0 -118 14t-109 42l65 135q46 -25 86 -38.5t71 -13.5q29 0 42 8t13 25q0 12 -9 23t-33 27.5t-69 43.5q-86 53 -125.5 117t-39.5 156q0 116 70 178t189 62q115 0 184 -58.5t69 -165.5q0 -80 -38.5 -137.5t-124.5 -87.5q100 -67 100 -166q0 -76 -55.5 -120
t-167.5 -44zM294 187q25 10 49.5 46t24.5 95q0 44 -18.5 70t-53.5 26t-54.5 -27t-19.5 -76q0 -44 20 -77.5t52 -56.5z" />
    <glyph glyph-name="uni018E" unicode="&#x18e;" horiz-adv-x="510" 
d="M45 0v153h210v141h-194v151h194v118h-210v151h395v-714h-395z" />
    <glyph glyph-name="uni018F" unicode="&#x18f;" horiz-adv-x="723" 
d="M328 570q-62 0 -121 -17.5t-122 -56.5v164q49 29 118.5 46.5t145.5 17.5q96 0 170 -39.5t116 -120t42 -203.5q0 -126 -40 -208.5t-112.5 -122.5t-170.5 -40q-152 0 -231.5 98t-79.5 286v38h439q-3 44 -18.5 79.5t-48.5 57t-87 21.5zM357 136q50 0 84.5 37.5t39.5 106.5
h-249q4 -66 37 -105t88 -39z" />
    <glyph glyph-name="uni0190" unicode="&#x190;" horiz-adv-x="592" 
d="M314 725q86 0 144 -20t109 -53l-73 -130q-32 22 -70 36.5t-84 14.5q-48 0 -70 -16.5t-22 -41.5q0 -22 14 -37.5t48.5 -24t96.5 -8.5h41v-148h-51q-82 0 -127.5 -18.5t-45.5 -58.5q0 -39 30 -59.5t107 -20.5q44 0 98 12t93 34v-158q-42 -18 -101 -28.5t-133 -10.5
q-100 0 -161.5 27t-90 74.5t-28.5 106.5q0 75 48.5 121t135.5 52v3q-71 11 -114 49t-43 114q0 82 64 135.5t185 53.5z" />
    <glyph glyph-name="uni0191" unicode="&#x191;" horiz-adv-x="521" 
d="M54 -251q-26 0 -50 4.5t-38 9.5v145q8 -3 23 -6.5t31 -3.5q27 0 41 18t14 63v735h390v-154h-204v-139h188v-153h-188v-311q0 -77 -26 -123t-72.5 -65.5t-108.5 -19.5z" />
    <glyph glyph-name="florin" unicode="&#x192;" horiz-adv-x="507" 
d="M326 750q38 0 74.5 -7t70.5 -19l-35 -123q-16 5 -31.5 8t-30.5 3q-22 0 -32 -15t-10 -50v-10h112v-139h-112v-437q0 -201 -174 -201q-28 0 -55.5 4t-44.5 10v141q14 -5 26 -7t27 -2q40 0 40 65v427h-68v91l71 46v16q0 107 41.5 153t130.5 46z" />
    <glyph glyph-name="uni0193" unicode="&#x193;" horiz-adv-x="676" 
d="M624 887q26 0 46.5 -5.5t29.5 -10.5v-144q-9 3 -22.5 6.5t-29.5 3.5q-20 0 -31 -11.5t-11 -39.5v-15l-59 -141q-28 16 -65.5 26.5t-77.5 10.5q-75 0 -118 -57t-43 -156q0 -60 11.5 -106.5t38.5 -73.5t72 -27q19 0 33 1.5t26 2.5v114h-93v154h276v-388q-57 -19 -117 -30
t-134 -11q-146 0 -226 94t-80 275q0 173 91.5 269t259.5 96q15 0 29 -0.5t28 -1.5v-1q0 59 24 95.5t62 53.5t80 17z" />
    <glyph glyph-name="uni0194" unicode="&#x194;" horiz-adv-x="631" 
d="M314 -240q-85 0 -127 44.5t-42 123.5q0 53 22 108.5t52 113.5l-219 564h196l87 -264q11 -34 19 -72t12 -69q7 35 15 70t20 69l95 266h196l-233 -567q31 -55 55 -110.5t24 -108.5q0 -75 -43 -121.5t-129 -46.5zM315 -118q13 0 21 11.5t8 34.5q0 22 -7 50t-22 56
q-14 -27 -20.5 -54.5t-6.5 -51.5q0 -46 27 -46z" />
    <glyph glyph-name="uni0195" unicode="&#x195;" horiz-adv-x="939" 
d="M628 -15q-134 0 -191.5 53.5t-57.5 169.5v100q0 105 -56 105q-45 0 -60.5 -43t-15.5 -125v-245h-182v760h182v-124q0 -38 -3 -75t-8 -74h10q44 76 135 76q79 0 129.5 -51t50.5 -156v-119q0 -101 64 -101q37 0 53 28t16 101v285h183v-296q0 -138 -60.5 -203.5
t-188.5 -65.5z" />
    <glyph glyph-name="uni0196" unicode="&#x196;" horiz-adv-x="404" 
d="M258 -10q-54 0 -96 18t-65.5 61t-23.5 120v525h193v-513q0 -25 13.5 -39.5t34.5 -14.5q24 0 42 5t40 14v-146q-26 -14 -62 -22t-76 -8z" />
    <glyph glyph-name="uni0197" unicode="&#x197;" horiz-adv-x="400" 
d="M377 714v-103l-83 -47v-131h84v-149h-84v-134l83 -47v-103h-353v103l83 47v134h-85v149h85v131l-83 47v103h353z" />
    <glyph glyph-name="uni0198" unicode="&#x198;" horiz-adv-x="654" 
d="M549 727q29 0 52 -6t36 -13v-147q-9 4 -21.5 7.5t-28.5 3.5q-20 0 -36.5 -11.5t-27.5 -29.5l-81 -138l208 -393h-210l-131 267l-47 -29v-238h-187v714h187v-310q10 23 23 46.5t27 47.5l35 73q29 45 57.5 80.5t63 55.5t81.5 20z" />
    <glyph glyph-name="uni0199" unicode="&#x199;" horiz-adv-x="622" 
d="M254 767q23 0 48.5 -5.5t37.5 -10.5v-142q-9 4 -23 7t-28 3q-20 0 -31 -12.5t-11 -40.5v-120q0 -32 -2.5 -64t-6.5 -62h2q12 22 27 45t31 41l116 147h201l-194 -239l203 -314h-206l-120 200l-51 -39v-161h-182v571q0 102 51.5 149t137.5 47z" />
    <glyph glyph-name="uni019A" unicode="&#x19a;" horiz-adv-x="308" 
d="M64 0v302h-60v126h60v332h180v-332h61v-126h-61v-302h-180z" />
    <glyph glyph-name="uni019B" unicode="&#x19b;" horiz-adv-x="616" 
d="M1 0l215 508l-3 9l-83 -29l-36 99l75 25q-18 20 -54 20q-14 0 -26.5 -2t-26.5 -6v135q14 3 39.5 5.5t44.5 2.5q68 0 113 -21.5t73 -72.5l79 29l36 -101l-72 -26l122 -370q14 -43 30.5 -55t40.5 -12q20 0 38 5v-138q-13 -5 -33.5 -9t-50.5 -4q-75 0 -115.5 36t-65.5 116
l-26 80q-8 23 -13 43t-7 37h-4q-9 -46 -21 -77l-82 -227h-187z" />
    <glyph glyph-name="uni019C" unicode="&#x19c;" horiz-adv-x="1002" 
d="M260 -10q-86 -1 -136.5 45t-50.5 150v529h187v-471q0 -46 13.5 -71t46.5 -25q44 1 64 38.5t20 105.5v423h187v-471q0 -47 13 -71.5t47 -24.5q47 1 66 41t19 112v414h187v-714h-147l-24 73h-8q-28 -41 -71 -62t-92 -21q-107 -1 -153 83h-8q-29 -43 -70 -63t-90 -20z" />
    <glyph glyph-name="uni019D" unicode="&#x19d;" horiz-adv-x="781" 
d="M47 -251q-25 0 -46 4.5t-35 9.5v145q9 -3 23.5 -6.5t30.5 -3.5q27 0 41 18t14 63v735h234l232 -469h3q0 4 -1 26t-2.5 53t-2.5 62.5t-1 55.5v272h169v-714h-235l-233 478h-4q0 -3 2 -24.5t3.5 -53.5t3 -66t1.5 -61v-309q0 -117 -53 -166t-144 -49z" />
    <glyph glyph-name="uni019E" unicode="&#x19e;" horiz-adv-x="618" 
d="M381 563q78 0 128.5 -50t50.5 -153v-600h-181v552q0 49 -13.5 76t-44.5 27q-47 0 -64 -41t-17 -128v-246h-180v553h138l22 -68h10q23 41 62.5 59.5t88.5 18.5z" />
    <glyph glyph-name="uni019F" unicode="&#x19f;" horiz-adv-x="740" 
d="M693 358q0 -114 -34.5 -196.5t-106 -127t-182.5 -44.5q-164 0 -243.5 98.5t-79.5 270.5q0 171 79.5 268.5t243.5 97.5q166 0 244.5 -97.5t78.5 -269.5zM370 578q-63 0 -97 -37.5t-42 -108.5h277q-8 71 -41 108.5t-97 37.5zM370 140q67 0 100.5 39.5t39.5 112.5h-281
q6 -73 40.5 -112.5t100.5 -39.5z" />
    <glyph glyph-name="Ohorn" unicode="&#x1a0;" horiz-adv-x="772" 
d="M686 358q0 -114 -34 -196.5t-105 -127t-181 -44.5q-162 0 -240.5 98.5t-78.5 270.5q0 171 78.5 268.5t242.5 97.5q159 0 239 -92q12 27 19.5 56.5t7.5 70.5h171l7 -11q-16 -97 -51 -148.5t-95 -79.5q10 -36 15 -76.5t5 -86.5zM240 358q0 -101 30 -156t96 -55q68 0 97 54
t29 157q0 104 -29 158.5t-96 54.5t-97 -55.5t-30 -157.5z" />
    <glyph glyph-name="ohorn" unicode="&#x1a1;" horiz-adv-x="672" 
d="M553 278q0 -137 -68.5 -212.5t-189.5 -75.5q-76 0 -134 34t-90.5 98.5t-32.5 155.5q0 136 69 210.5t191 74.5q53 0 101 -17.5t81 -51.5q26 10 38.5 49.5t12.5 91.5h172l6 -11q-9 -61 -27 -107t-52.5 -76.5t-92.5 -45.5q16 -51 16 -117zM222 277q0 -70 17.5 -105.5
t57.5 -35.5q39 0 56 36t17 106t-17 104.5t-57 34.5q-39 0 -56.5 -34.5t-17.5 -105.5z" />
    <glyph glyph-name="uni01A2" unicode="&#x1a2;" horiz-adv-x="1074" 
d="M681 358q0 -174 -76.5 -271t-239.5 -97q-161 0 -238 97.5t-77 271.5q0 171 77 268.5t239 97.5q76 0 133.5 -23.5t96.5 -66.5q40 42 88 65.5t112 24.5q59 0 106 -23t74 -72.5t27 -129.5v-500h-187v471q0 47 -19.5 72.5t-59.5 24.5q-31 0 -50 -8.5t-34 -20.5
q28 -75 28 -181zM245 358q0 -102 29 -156t91 -54q65 0 93 53.5t28 156.5q0 101 -26.5 156.5t-93.5 55.5q-64 0 -92.5 -54t-28.5 -158z" />
    <glyph glyph-name="uni01A3" unicode="&#x1a3;" horiz-adv-x="905" 
d="M536 278q0 -86 -29 -151t-85 -101t-137 -36q-77 0 -132.5 35t-86 99.5t-30.5 153.5q0 133 65.5 209t186.5 76q119 0 187 -86q33 46 77.5 66t99.5 20q88 0 141.5 -50t53.5 -156v-597h-182v552q0 52 -16.5 76.5t-53.5 24.5q-25 0 -42 -6t-30 -22q6 -24 9.5 -50.5t3.5 -56.5
zM222 277q0 -72 15 -106t49 -34t49 33.5t15 107.5q0 73 -14.5 105.5t-49.5 32.5q-36 0 -50 -34t-14 -105z" />
    <glyph glyph-name="uni01A4" unicode="&#x1a4;" horiz-adv-x="737" 
d="M215 0v559h-24q-21 0 -31 -14t-10 -31t3 -28.5t6 -18.5h-143q-3 7 -8 22t-5 37q0 50 18 93t61.5 69t120.5 26h249q130 0 191 -62t61 -168q0 -46 -12.5 -90.5t-42.5 -80t-80.5 -56.5t-126.5 -21h-41v-236h-186zM401 390h24q41 0 66 22.5t25 67.5q0 80 -75 80h-40v-170z
" />
    <glyph glyph-name="uni01A5" unicode="&#x1a5;" horiz-adv-x="604" 
d="M251 765q24 0 48.5 -5.5t35.5 -9.5v-143q-7 3 -21 6.5t-28 3.5q-39 0 -39 -48v-7q0 -17 -2 -34.5t-5 -42.5h7q23 37 54 57.5t80 20.5q82 0 134 -74t52 -212q0 -143 -52.5 -215t-131.5 -72q-51 0 -83 18.5t-52 46.5h-6q5 -38 5 -77v-218h-182v815q0 99 50.5 144.5
t135.5 45.5zM317 417q-38 0 -53.5 -29.5t-16.5 -94.5v-22q0 -65 16 -98t56 -33q31 0 47 33.5t16 105.5q0 138 -65 138z" />
    <glyph glyph-name="uni01A6" unicode="&#x1a6;" horiz-adv-x="637" 
d="M439 -100l-145 261h-32v-161h-187v714h187v-100h26q142 0 210 -54t68 -164q0 -70 -34.5 -115t-79.5 -74l193 -307h-206zM262 310h13q57 0 79.5 20t22.5 60q0 36 -23 53.5t-76 17.5h-16v-151z" />
    <glyph glyph-name="uni01A7" unicode="&#x1a7;" horiz-adv-x="517" 
d="M261 724q106 0 163.5 -53t57.5 -151q0 -64 -23.5 -106t-60 -69.5t-75.5 -48.5q-54 -28 -79.5 -49.5t-25.5 -47.5q0 -22 14 -35.5t51 -13.5q46 0 95.5 14.5t102.5 39.5v-165q-95 -49 -213 -49q-122 0 -178 58.5t-56 153.5q0 76 36.5 129t111.5 92q46 23 71 38.5t35 30
t10 32.5q0 17 -13 28.5t-41 11.5q-34 0 -71 -11t-83 -33l-53 150q52 26 108.5 40t115.5 14z" />
    <glyph glyph-name="uni01A8" unicode="&#x1a8;" horiz-adv-x="469" 
d="M240 563q89 0 144 -41t55 -118q0 -64 -29.5 -104t-100.5 -73q-49 -21 -69 -34t-23.5 -21t-3.5 -15q0 -29 52 -29q37 0 79 11t83 35v-146q-43 -22 -85.5 -30t-93.5 -8q-104 0 -159.5 44t-55.5 127q0 69 34.5 111t98.5 70q44 20 64 31.5t25 18t5 12.5q0 11 -11 17t-29 6
q-32 0 -63.5 -12t-68.5 -31l-47 132q49 25 99 36t100 11z" />
    <glyph glyph-name="uni01A9" unicode="&#x1a9;" horiz-adv-x="558" 
d="M33 0v146l194 229l-186 198v141h455v-151h-143q-30 0 -55.5 0.5t-49.5 4.5l181 -192l-194 -229q30 3 56 4.5t57 1.5h174v-153h-489z" />
    <glyph glyph-name="uni01AA" unicode="&#x1aa;" horiz-adv-x="415" 
d="M142 772q68 0 107.5 -24.5t56 -69t16.5 -104.5v-624q0 -20 12.5 -31t34.5 -11q24 0 45.5 5t47.5 15v-138q-26 -14 -62.5 -22t-78.5 -8q-53 0 -94 17t-64 58.5t-23 115.5v574h-3q-78 1 -112.5 37t-34.5 90q0 50 37.5 85t114.5 35zM114 674q-8 0 -14 -6.5t-6 -15.5
q0 -15 10.5 -25t32.5 -10h3v25q0 16 -7.5 24t-18.5 8z" />
    <glyph glyph-name="uni01AB" unicode="&#x1ab;" horiz-adv-x="433" 
d="M244 -240q-22 0 -46.5 3.5t-40.5 9.5v133q10 -3 21.5 -5.5t22.5 -2.5q23 0 34.5 12t11.5 43v38h-10q-39 0 -74.5 18t-57.5 59t-22 110v235h-63v82l79 55l46 113h121v-110h134v-140h-134v-219q0 -32 13.5 -44t35.5 -12q21 0 43 5.5t46 14.5v-207q0 -97 -40.5 -144
t-119.5 -47z" />
    <glyph glyph-name="uni01AC" unicode="&#x1ac;" horiz-adv-x="610" 
d="M242 0v558h-51q-21 0 -31 -14t-10 -32q0 -16 3 -27t6 -18h-143q-3 7 -8 22t-5 37q0 50 18 93t61.5 69t120.5 26h384v-156h-159v-558h-186z" />
    <glyph glyph-name="uni01AD" unicode="&#x1ad;" horiz-adv-x="433" 
d="M283 765q27 0 54.5 -5.5t41.5 -10.5v-143q-11 4 -29.5 7.5t-36.5 3.5q-47 0 -47 -49v-15h134v-140h-134v-232q0 -22 13.5 -32.5t35.5 -10.5q21 0 43 5.5t46 14.5v-137q-27 -13 -64.5 -22t-81.5 -9q-52 0 -91.5 17.5t-61.5 59.5t-22 115v231h-63v82l63 46v34
q0 99 54 144.5t146 45.5z" />
    <glyph glyph-name="uni01AE" unicode="&#x1ae;" horiz-adv-x="551" 
d="M383 -251q-97 0 -148.5 48t-51.5 160v601h-160v156h505v-156h-159v-597q0 -63 51 -63q17 0 31 3.5t23 6.5v-145q-15 -5 -40 -9.5t-51 -4.5z" />
    <glyph glyph-name="Uhorn" unicode="&#x1af;" horiz-adv-x="831" 
d="M629 714v-100q36 12 50 54.5t14 91.5h171l6 -11q-11 -71 -35.5 -122.5t-73.5 -82t-132 -38.5v-246q0 -81 -33 -141.5t-97 -94.5t-157 -34q-134 0 -204.5 71.5t-70.5 198.5v454h185v-437q0 -76 24 -103t71 -27q49 0 73 28.5t24 102.5v436h185z" />
    <glyph glyph-name="uhorn" unicode="&#x1b0;" horiz-adv-x="751" 
d="M782 634l6 -11q-10 -71 -34 -122t-71 -81.5t-125 -40.5v-379h-137l-22 69h-12q-23 -41 -63 -60t-87 -19q-78 0 -128 50t-50 153v360h181v-304q0 -55 13 -83t44 -28q47 0 63.5 41t16.5 128v246h181v-65q28 11 40.5 53.5t12.5 92.5h171z" />
    <glyph glyph-name="uni01B1" unicode="&#x1b1;" horiz-adv-x="729" 
d="M364 146q61 0 95.5 44t34.5 132q0 77 -17.5 134.5t-70.5 81.5v176h303v-157h-160q62 -32 99 -106.5t37 -168.5q0 -90 -39.5 -155.5t-111.5 -101t-170 -35.5q-94 0 -166 36t-113 102t-41 155q0 97 38.5 169.5t102.5 104.5h-165v157h306v-176q-55 -25 -73 -83.5t-18 -134.5
q0 -86 34.5 -130t94.5 -44z" />
    <glyph glyph-name="uni01B2" unicode="&#x1b2;" horiz-adv-x="695" 
d="M345 -10q-135 0 -206.5 71t-71.5 204v449h185v-437q0 -70 24 -100t72 -30q50 0 73 30.5t23 100.5v248q0 22 -12.5 31t-27.5 9q-26 0 -56 -14v148q18 10 50 17.5t66 7.5q85 0 125 -44t40 -114v-298q0 -131 -71.5 -205t-212.5 -74z" />
    <glyph glyph-name="uni01B3" unicode="&#x1b3;" horiz-adv-x="619" 
d="M87 725q67 0 104.5 -35.5t65.5 -100.5l56 -127l107 252h199l-215 -437v-277h-186v271l-94 208q-19 40 -32 59t-25 25t-27 6q-10 0 -22 -3t-19 -7v146q14 7 38.5 13.5t49.5 6.5z" />
    <glyph glyph-name="uni01B4" unicode="&#x1b4;" horiz-adv-x="617" 
d="M513 563q25 0 53.5 -5.5t43.5 -13.5v-144q-20 5 -33 5q-16 0 -30.5 -8.5t-28.5 -34.5t-31 -76l-111 -334q-32 -98 -93 -145t-151 -47q-20 0 -40 2.5t-33 4.5v149q8 -2 23 -4t26 -2q38 0 62 18t40 68l3 11l-203 546h197l68 -236q3 -14 8 -40.5t9 -55.5h3q2 17 7.5 41.5
t11.5 48.5l34 110q10 35 29 67.5t52 53.5t84 21z" />
    <glyph glyph-name="uni01B5" unicode="&#x1b5;" horiz-adv-x="540" 
d="M52 434h167l82 126h-278v154h491v-123l-102 -157h70v-148h-166l-83 -131h289v-155h-504v123l105 163h-71v148z" />
    <glyph glyph-name="uni01B6" unicode="&#x1b6;" horiz-adv-x="467" 
d="M435 553v-114l-69 -102h64v-120h-145l-50 -75h210v-142h-424v105l77 112h-61v120h143l50 74h-197v142h402z" />
    <glyph glyph-name="uni01B7" unicode="&#x1b7;" horiz-adv-x="591" 
d="M510 714v-119l-179 -170q106 -10 161 -66.5t55 -141.5q0 -67 -31.5 -118.5t-97.5 -80t-171 -28.5q-61 0 -115.5 10t-99.5 28v163q44 -23 98.5 -35t96.5 -12q75 0 103 21.5t28 59.5q0 23 -14.5 40t-51 26t-101.5 9h-58v123l141 138h-217v153h453z" />
    <glyph glyph-name="uni01B8" unicode="&#x1b8;" horiz-adv-x="572" 
d="M333 -10q-151 0 -223.5 61t-72.5 159q0 92 51.5 147t152.5 69l-172 168v120h456v-154h-212l132 -133v-126h-55q-93 0 -130 -21t-37 -56q0 -41 29.5 -62t102.5 -21q42 0 96.5 12.5t97.5 35.5v-162q-46 -18 -98.5 -27.5t-117.5 -9.5z" />
    <glyph glyph-name="uni01B9" unicode="&#x1b9;" horiz-adv-x="574" 
d="M327 -240q-145 1 -218 70.5t-74 183.5q0 97 50.5 159.5t156.5 82.5l-182 179v118h473v-142h-252l158 -159v-128h-49q-98 0 -134.5 -28.5t-36.5 -77.5q0 -45 29.5 -76t102.5 -31q44 0 96 13t94 33v-156q-41 -18 -92.5 -29.5t-121.5 -11.5z" />
    <glyph glyph-name="uni01BA" unicode="&#x1ba;" horiz-adv-x="523" 
d="M226 -240q-96 0 -155 42.5t-59 129.5q0 47 18.5 84t62 60t118.5 28q48 4 73.5 14.5t25.5 37.5q0 29 -28.5 40t-92.5 11h-69v102l130 109h-211v135h426v-114l-153 -124q48 -5 89.5 -21.5t67 -50.5t25.5 -91q0 -50 -19.5 -88t-68.5 -61t-138 -29q-54 -2 -74 -12.5
t-20 -27.5q0 -21 20.5 -29t56.5 -8q68 0 120 15t86 27v-135q-37 -17 -99 -30.5t-132 -13.5z" />
    <glyph glyph-name="uni01BB" unicode="&#x1bb;" horiz-adv-x="542" 
d="M248 762q69 0 120.5 -28t79.5 -76t28 -107q0 -35 -4.5 -64.5t-18.5 -59.5h54v-120h-132l-139 -155v-7h266v-145h-484v134l153 173h-143v120h234q22 31 26 58.5t4 56.5q0 30 -18.5 50t-47.5 20q-38 0 -66.5 -18.5t-58.5 -53.5l-85 113q22 29 53.5 53.5t75 40t103.5 15.5z
" />
    <glyph glyph-name="uni01BC" unicode="&#x1bc;" horiz-adv-x="568" 
d="M234 -10q-63 0 -114.5 11.5t-83.5 26.5v160q32 -18 83 -31t101 -13q55 0 87.5 20t32.5 67q0 44 -27 64.5t-86 20.5h-110v239h-94v159h483v-159h-219v-93h11q109 0 169.5 -55t60.5 -165q0 -76 -30.5 -133t-95 -88t-168.5 -31z" />
    <glyph glyph-name="uni01BD" unicode="&#x1bd;" horiz-adv-x="537" 
d="M225 -11q-61 0 -110 11t-76 24v148q27 -14 77 -27t105 -11t76.5 14t21.5 35q0 41 -93 41h-108v189h-81v140h443v-140h-198v-63h25q93 0 142 -40.5t49 -126.5q0 -87 -65 -140.5t-208 -53.5z" />
    <glyph glyph-name="uni01BE" unicode="&#x1be;" horiz-adv-x="480" 
d="M223 -10q-52 0 -104.5 9.5t-88.5 27.5v151q34 -20 83 -34t91 -14q34 0 49 10t15 29q0 17 -13.5 29.5t-40.5 27.5q-54 27 -77 59.5t-23 91.5v36h-89v82l95 55l47 113h120v-110h122v-140h-122v-22q0 -17 10.5 -31t42.5 -32q50 -28 78.5 -63t28.5 -97q0 -50 -22.5 -90.5
t-71.5 -64t-130 -23.5z" />
    <glyph glyph-name="uni01BF" unicode="&#x1bf;" horiz-adv-x="604" 
d="M382 563q86 0 137.5 -63t51.5 -185q0 -92 -40 -163.5t-112.5 -114.5t-171.5 -51v-226h-182v793h147l25 -67h9q21 37 53.5 57t82.5 20zM318 414q-38 0 -54.5 -29.5t-16.5 -90.5v-165q56 7 97.5 52t41.5 131q0 102 -68 102z" />
    <glyph glyph-name="uni01C0" unicode="&#x1c0;" horiz-adv-x="344" 
d="M100 0v764h144v-764h-144z" />
    <glyph glyph-name="uni01C1" unicode="&#x1c1;" horiz-adv-x="617" 
d="M100 0v764h144v-764h-144zM373 0v764h144v-764h-144z" />
    <glyph glyph-name="uni01C2" unicode="&#x1c2;" horiz-adv-x="482" 
d="M313 764v-201h132v-133h-132v-75h132v-133h-132v-222h-145v222h-130v133h130v75h-130v133h130v201h145z" />
    <glyph glyph-name="uni01C3" unicode="&#x1c3;" horiz-adv-x="283" 
d="M219 252h-154l-24 462h202zM42 81q0 49 28 71.5t72 22.5q42 0 69.5 -22.5t27.5 -71.5q0 -47 -28 -70t-69 -23q-43 0 -71.5 23t-28.5 70z" />
    <glyph glyph-name="uni01C4" unicode="&#x1c4;" horiz-adv-x="1233" 
d="M634 372q0 -123 -42.5 -205.5t-121 -124.5t-186.5 -42h-214v714h229q161 0 248 -88t87 -254zM442 365q0 101 -35.5 148.5t-107.5 47.5h-44v-407h32q80 0 117.5 52t37.5 159zM1209 0h-509v119l283 443h-277v152h496v-119l-283 -443h290v-152zM873 767q-13 21 -33.5 48.5
t-42.5 53.5t-39 44v14h117q22 -15 41.5 -32.5t43.5 -40.5q24 23 45 41t43 32h114v-14q-16 -18 -37 -44t-42 -53t-35 -49h-175z" />
    <glyph glyph-name="uni01C5" unicode="&#x1c5;" horiz-adv-x="1147" 
d="M634 372q0 -123 -42.5 -205.5t-121 -124.5t-186.5 -42h-214v714h229q161 0 248 -88t87 -254zM442 365q0 101 -35.5 148.5t-107.5 47.5h-44v-407h32q80 0 117.5 52t37.5 159zM1125 0h-424v105l209 306h-197v142h402v-114l-200 -297h210v-142zM829 606q-13 21 -33.5 48.5
t-42.5 53.5t-39 44v14h117q22 -15 41.5 -32.5t43.5 -40.5q24 23 45 41t43 32h114v-14q-16 -18 -37 -44t-42 -53t-35 -49h-175z" />
    <glyph glyph-name="uni01C6" unicode="&#x1c6;" horiz-adv-x="1066" 
d="M223 -10q-83 0 -134 74.5t-51 212.5t51.5 212t136.5 74q49 0 81 -21.5t54 -59.5h5q-3 27 -5.5 60t-2.5 61v157h181v-760h-139l-34 64h-8q-22 -34 -53 -54t-82 -20zM292 135q41 0 58 30.5t18 95.5v21q0 66 -17 99t-60 33q-31 0 -50.5 -34t-19.5 -104q0 -73 19.5 -107
t51.5 -34zM1044 0h-424v105l209 306h-197v142h402v-114l-200 -297h210v-142zM749 606q-13 21 -33.5 48.5t-42.5 53.5t-39 44v14h117q22 -15 41.5 -32.5t43.5 -40.5q24 23 45 41t43 32h114v-14q-16 -18 -37 -44t-42 -53t-35 -49h-175z" />
    <glyph glyph-name="uni01C7" unicode="&#x1c7;" horiz-adv-x="855" 
d="M70 0v714h185v-562h242v-152h-427zM547 -224q-29 0 -52 3t-41 7v148q14 -4 30 -7t35 -3q47 0 64 30t17 97v663h185v-650q0 -108 -29.5 -171t-83 -90t-125.5 -27z" />
    <glyph glyph-name="uni01C8" unicode="&#x1c8;" horiz-adv-x="828" 
d="M70 0v714h185v-562h242v-152h-427zM582 691q0 48 26 66.5t69 18.5t69.5 -18.5t26.5 -66.5q0 -47 -27 -65.5t-69 -18.5t-68.5 18.5t-26.5 65.5zM576 -240q-22 0 -49 3t-47 9v145q28 -9 54 -9q22 0 37 16.5t15 60.5v568h181v-598q0 -56 -20 -100t-62 -69.5t-109 -25.5z" />
    <glyph glyph-name="uni01C9" unicode="&#x1c9;" horiz-adv-x="603" 
d="M240 0h-180v760h180v-760zM357 691q0 48 26 66.5t69 18.5t69.5 -18.5t26.5 -66.5q0 -47 -27 -65.5t-69 -18.5t-68.5 18.5t-26.5 65.5zM351 -240q-22 0 -49 3t-47 9v145q28 -9 54 -9q22 0 37 16.5t15 60.5v568h181v-598q0 -56 -20 -100t-62 -69.5t-109 -25.5z" />
    <glyph glyph-name="uni01CA" unicode="&#x1ca;" horiz-adv-x="1098" 
d="M698 0h-232l-234 481h-4q1 -15 3 -46t4 -67.5t2 -67.5v-300h-167v714h232l233 -473h3q0 13 -2 43.5t-3.5 65.5t-1.5 64v300h167v-714zM790 -224q-29 0 -52 3t-41 7v148q14 -4 30 -7t35 -3q47 0 64 30t17 97v663h185v-650q0 -108 -29.5 -171t-83 -90t-125.5 -27z" />
    <glyph glyph-name="uni01CB" unicode="&#x1cb;" horiz-adv-x="1071" 
d="M698 0h-232l-234 481h-4q1 -15 3 -46t4 -67.5t2 -67.5v-300h-167v714h232l233 -473h3q0 13 -2 43.5t-3.5 65.5t-1.5 64v300h167v-714zM825 691q0 48 26 66.5t69 18.5t69.5 -18.5t26.5 -66.5q0 -47 -27 -65.5t-69 -18.5t-68.5 18.5t-26.5 65.5zM819 -240q-22 0 -49 3
t-47 9v145q28 -9 54 -9q22 0 37 16.5t15 60.5v568h181v-598q0 -56 -20 -100t-62 -69.5t-109 -25.5z" />
    <glyph glyph-name="uni01CC" unicode="&#x1cc;" horiz-adv-x="921" 
d="M381 563q81 0 130 -50t49 -153v-360h-181v304q0 55 -13 83t-47 28q-47 0 -63 -41t-16 -128v-246h-180v553h138l23 -71h8q23 39 61 60t91 21zM674 691q0 48 26 66.5t69 18.5t69.5 -18.5t26.5 -66.5q0 -47 -27 -65.5t-69 -18.5t-68.5 18.5t-26.5 65.5zM668 -240
q-22 0 -49 3t-47 9v145q28 -9 54 -9q22 0 37 16.5t15 60.5v568h181v-598q0 -56 -20 -100t-62 -69.5t-109 -25.5z" />
    <glyph glyph-name="uni01CD" unicode="&#x1cd;" horiz-adv-x="670" 
d="M470 0l-32 136h-204l-32 -136h-202l211 716h245l214 -716h-200zM403 289l-30 133q-5 22 -12.5 54t-14 64t-10.5 55q-4 -23 -10.5 -53.5t-13 -62t-12.5 -56.5l-31 -134h134zM249 767q-13 21 -33.5 48.5t-42.5 53.5t-39 44v14h117q22 -15 41.5 -32.5t43.5 -40.5
q24 23 45 41t43 32h114v-14q-16 -18 -37 -44t-42 -53t-35 -49h-175z" />
    <glyph glyph-name="uni01CE" unicode="&#x1ce;" horiz-adv-x="576" 
d="M310 563q97 0 152 -51t55 -149v-363h-126l-34 73h-3q-32 -43 -68.5 -63t-99.5 -20q-71 0 -112.5 48t-41.5 131q0 89 56.5 132t163.5 48l85 3v10q0 36 -16.5 52t-45.5 16q-30 0 -66 -11t-75 -30l-50 124q91 50 226 50zM337 247l-38 -2q-46 -2 -65.5 -18.5t-19.5 -47.5
q0 -29 13 -42.5t36 -13.5q31 0 52.5 22t21.5 57v45zM204 606q-13 21 -33.5 48.5t-42.5 53.5t-39 44v14h117q22 -15 41.5 -32.5t43.5 -40.5q24 23 45 41t43 32h114v-14q-16 -18 -37 -44t-42 -53t-35 -49h-175z" />
    <glyph glyph-name="uni01CF" unicode="&#x1cf;" horiz-adv-x="408" 
d="M378 0h-347v103l81 34v440l-81 34v103h347v-103l-81 -34v-440l81 -34v-103zM118 767q-13 21 -33.5 48.5t-42.5 53.5t-39 44v14h117q22 -15 41.5 -32.5t43.5 -40.5q24 23 45 41t43 32h114v-14q-16 -18 -37 -44t-42 -53t-35 -49h-175z" />
    <glyph glyph-name="uni01D0" unicode="&#x1d0;" horiz-adv-x="303" 
d="M242 0h-181v553h181v-553zM65 606q-13 21 -33.5 48.5t-42.5 53.5t-39 44v14h117q22 -15 41.5 -32.5t43.5 -40.5q24 23 45 41t43 32h114v-14q-16 -18 -37 -44t-42 -53t-35 -49h-175z" />
    <glyph glyph-name="uni01D1" unicode="&#x1d1;" horiz-adv-x="732" 
d="M685 358q0 -114 -34 -196.5t-104.5 -127t-180.5 -44.5q-162 0 -240.5 98.5t-78.5 270.5q0 171 78.5 268.5t241.5 97.5q165 0 241.5 -97.5t76.5 -269.5zM240 358q0 -101 30 -156t96 -55q68 0 97 54t29 157t-29 158t-96 55t-97 -55.5t-30 -157.5zM280 767
q-13 21 -33.5 48.5t-42.5 53.5t-39 44v14h117q22 -15 41.5 -32.5t43.5 -40.5q24 23 45 41t43 32h114v-14q-16 -18 -37 -44t-42 -53t-35 -49h-175z" />
    <glyph glyph-name="uni01D2" unicode="&#x1d2;" horiz-adv-x="593" 
d="M553 278q0 -84 -29 -149t-86.5 -102t-142.5 -37q-79 0 -137 36.5t-89 101t-31 150.5q0 130 66.5 207.5t193.5 77.5q74 0 132 -33t90.5 -96.5t32.5 -155.5zM221 277q0 -72 17.5 -110t58.5 -38q40 0 56.5 37.5t16.5 111.5q0 73 -17 109.5t-57 36.5q-75 0 -75 -147zM210 606
q-13 21 -33.5 48.5t-42.5 53.5t-39 44v14h117q22 -15 41.5 -32.5t43.5 -40.5q24 23 45 41t43 32h114v-14q-16 -18 -37 -44t-42 -53t-35 -49h-175z" />
    <glyph glyph-name="uni01D3" unicode="&#x1d3;" horiz-adv-x="695" 
d="M629 714v-445q0 -131 -71.5 -205t-212.5 -74q-135 0 -206.5 71t-71.5 204v449h185v-437q0 -70 24 -100t72 -30q50 0 73 30.5t23 100.5v436h185zM262 767q-13 21 -33.5 48.5t-42.5 53.5t-39 44v14h117q22 -15 41.5 -32.5t43.5 -40.5q24 23 45 41t43 32h114v-14
q-16 -18 -37 -44t-42 -53t-35 -49h-175z" />
    <glyph glyph-name="uni01D4" unicode="&#x1d4;" horiz-adv-x="618" 
d="M558 553v-553h-137l-22 69h-10q-24 -41 -63.5 -60t-88.5 -19q-78 0 -128 50t-50 153v360h181v-304q0 -55 13 -83t44 -28q50 0 65.5 42.5t15.5 119.5v253h180zM223 606q-13 21 -33.5 48.5t-42.5 53.5t-39 44v14h117q22 -15 41.5 -32.5t43.5 -40.5q24 23 45 41t43 32h114
v-14q-16 -18 -37 -44t-42 -53t-35 -49h-175z" />
    <glyph glyph-name="uni01D5" unicode="&#x1d5;" horiz-adv-x="695" 
d="M629 714v-445q0 -131 -71.5 -205t-212.5 -74q-135 0 -206.5 71t-71.5 204v449h185v-437q0 -70 24 -100t72 -30q50 0 73 30.5t23 100.5v436h185zM515 1029v-104h-332v104h332zM249 893q32 0 51.5 -16.5t19.5 -50.5q0 -31 -19.5 -48.5t-51.5 -17.5q-70 0 -70 66q0 67 70 67
zM446 893q32 0 51.5 -16.5t19.5 -50.5q0 -31 -19.5 -48.5t-51.5 -17.5q-33 0 -51.5 17.5t-18.5 48.5q0 34 18.5 50.5t51.5 16.5z" />
    <glyph glyph-name="uni01D6" unicode="&#x1d6;" horiz-adv-x="618" 
d="M558 553v-553h-137l-22 69h-10q-24 -41 -63.5 -60t-88.5 -19q-78 0 -128 50t-50 153v360h181v-304q0 -55 13 -83t44 -28q50 0 65.5 42.5t15.5 119.5v253h180zM476 868v-104h-332v104h332zM210 732q32 0 51.5 -16.5t19.5 -50.5q0 -31 -19.5 -48.5t-51.5 -17.5
q-70 0 -70 66q0 67 70 67zM407 732q32 0 51.5 -16.5t19.5 -50.5q0 -31 -19.5 -48.5t-51.5 -17.5q-33 0 -51.5 17.5t-18.5 48.5q0 34 18.5 50.5t51.5 16.5z" />
    <glyph glyph-name="uni01D7" unicode="&#x1d7;" horiz-adv-x="695" 
d="M629 714v-445q0 -131 -71.5 -205t-212.5 -74q-135 0 -206.5 71t-71.5 204v449h185v-437q0 -70 24 -100t72 -30q50 0 73 30.5t23 100.5v436h185zM282 904v14q23 28 42.5 62.5t36.5 68.5h189v-10q-20 -21 -45.5 -46t-52.5 -49t-50 -40h-120zM255 761q-70 0 -70 66
q0 67 70 67q31 0 51 -17t20 -50q0 -31 -20 -48.5t-51 -17.5zM444 761q-33 0 -51 17.5t-18 48.5q0 67 69 67q31 0 51 -17t20 -50q0 -31 -20 -48.5t-51 -17.5z" />
    <glyph glyph-name="uni01D8" unicode="&#x1d8;" horiz-adv-x="618" 
d="M558 553v-553h-137l-22 69h-10q-24 -41 -63.5 -60t-88.5 -19q-78 0 -128 50t-50 153v360h181v-304q0 -55 13 -83t44 -28q50 0 65.5 42.5t15.5 119.5v253h180zM243 742v14q23 28 42.5 62.5t36.5 68.5h189v-10q-20 -21 -45.5 -46t-52.5 -49t-50 -40h-120zM216 599
q-70 0 -70 66q0 67 70 67q31 0 51 -17t20 -50q0 -31 -20 -48.5t-51 -17.5zM405 599q-33 0 -51 17.5t-18 48.5q0 67 69 67q31 0 51 -17t20 -50q0 -31 -20 -48.5t-51 -17.5z" />
    <glyph glyph-name="uni01D9" unicode="&#x1d9;" horiz-adv-x="695" 
d="M629 714v-445q0 -131 -71.5 -205t-212.5 -74q-135 0 -206.5 71t-71.5 204v449h185v-437q0 -70 24 -100t72 -30q50 0 73 30.5t23 100.5v436h185zM271 910q-25 34 -49.5 63.5t-51.5 57.5v13h70q62 -27 109 -70q24 22 52 39.5t56 30.5h69v-13q-24 -26 -49.5 -56.5
t-50.5 -64.5h-155zM253 760q-70 0 -70 66q0 67 70 67q31 0 51 -16.5t20 -50.5q0 -31 -20 -48.5t-51 -17.5zM442 760q-32 0 -50.5 17.5t-18.5 48.5q0 34 18.5 50.5t50.5 16.5t51.5 -16.5t19.5 -50.5q0 -31 -19.5 -48.5t-51.5 -17.5z" />
    <glyph glyph-name="uni01DA" unicode="&#x1da;" horiz-adv-x="618" 
d="M558 553v-553h-137l-22 69h-10q-24 -41 -63.5 -60t-88.5 -19q-78 0 -128 50t-50 153v360h181v-304q0 -55 13 -83t44 -28q50 0 65.5 42.5t15.5 119.5v253h180zM232 749q-25 34 -49.5 63.5t-51.5 57.5v13h70q62 -27 109 -70q24 22 52 39.5t56 30.5h69v-13
q-24 -26 -49.5 -56.5t-50.5 -64.5h-155zM214 599q-70 0 -70 66q0 67 70 67q31 0 51 -16.5t20 -50.5q0 -31 -20 -48.5t-51 -17.5zM403 599q-32 0 -50.5 17.5t-18.5 48.5q0 34 18.5 50.5t50.5 16.5t51.5 -16.5t19.5 -50.5q0 -31 -19.5 -48.5t-51.5 -17.5z" />
    <glyph glyph-name="uni01DB" unicode="&#x1db;" horiz-adv-x="695" 
d="M629 714v-445q0 -131 -71.5 -205t-212.5 -74q-135 0 -206.5 71t-71.5 204v449h185v-437q0 -70 24 -100t72 -30q50 0 73 30.5t23 100.5v436h185zM339 1049q17 -34 36.5 -68.5t42.5 -62.5v-14h-120q-23 16 -50 40t-53 49t-45 46v10h189zM255 894q31 0 51 -17t20 -50
q0 -31 -20 -48.5t-51 -17.5q-70 0 -70 66q0 67 70 67zM444 894q31 0 51 -17t20 -50q0 -31 -20 -48.5t-51 -17.5q-33 0 -51 17.5t-18 48.5q0 67 69 67z" />
    <glyph glyph-name="uni01DC" unicode="&#x1dc;" horiz-adv-x="618" 
d="M558 553v-553h-137l-22 69h-10q-24 -41 -63.5 -60t-88.5 -19q-78 0 -128 50t-50 153v360h181v-304q0 -55 13 -83t44 -28q50 0 65.5 42.5t15.5 119.5v253h180zM299 887q17 -34 36.5 -68.5t42.5 -62.5v-14h-120q-23 16 -50 40t-53 49t-45 46v10h189zM215 732q31 0 51 -17
t20 -50q0 -31 -20 -48.5t-51 -17.5q-70 0 -70 66q0 67 70 67zM404 732q31 0 51 -17t20 -50q0 -31 -20 -48.5t-51 -17.5q-33 0 -51 17.5t-18 48.5q0 67 69 67z" />
    <glyph glyph-name="uni01DD" unicode="&#x1dd;" horiz-adv-x="568" 
d="M262 563q123 0 195.5 -69.5t72.5 -214.5t-68 -217t-184 -72q-112 0 -177 64t-65 189v85h313q-1 48 -28.5 74.5t-82.5 26.5q-46 0 -85.5 -9.5t-82.5 -32.5v135q38 19 83 30t109 11zM347 210h-146q1 -43 19.5 -67.5t52.5 -24.5q31 0 51.5 21.5t22.5 70.5z" />
    <glyph glyph-name="uni01DE" unicode="&#x1de;" horiz-adv-x="670" 
d="M470 0l-32 136h-204l-32 -136h-202l211 716h245l214 -716h-200zM403 289l-30 133q-5 22 -12.5 54t-14 64t-10.5 55q-4 -23 -10.5 -53.5t-13 -62t-12.5 -56.5l-31 -134h134zM502 1029v-104h-332v104h332zM236 893q32 0 51.5 -16.5t19.5 -50.5q0 -31 -19.5 -48.5
t-51.5 -17.5q-70 0 -70 66q0 67 70 67zM433 893q32 0 51.5 -16.5t19.5 -50.5q0 -31 -19.5 -48.5t-51.5 -17.5q-33 0 -51.5 17.5t-18.5 48.5q0 34 18.5 50.5t51.5 16.5z" />
    <glyph glyph-name="uni01DF" unicode="&#x1df;" horiz-adv-x="576" 
d="M310 563q97 0 152 -51t55 -149v-363h-126l-34 73h-3q-32 -43 -68.5 -63t-99.5 -20q-71 0 -112.5 48t-41.5 131q0 89 56.5 132t163.5 48l85 3v10q0 36 -16.5 52t-45.5 16q-30 0 -66 -11t-75 -30l-50 124q91 50 226 50zM337 247l-38 -2q-46 -2 -65.5 -18.5t-19.5 -47.5
q0 -29 13 -42.5t36 -13.5q31 0 52.5 22t21.5 57v45zM457 868v-104h-332v104h332zM191 732q32 0 51.5 -16.5t19.5 -50.5q0 -31 -19.5 -48.5t-51.5 -17.5q-70 0 -70 66q0 67 70 67zM388 732q32 0 51.5 -16.5t19.5 -50.5q0 -31 -19.5 -48.5t-51.5 -17.5q-33 0 -51.5 17.5
t-18.5 48.5q0 34 18.5 50.5t51.5 16.5z" />
    <glyph glyph-name="uni01E0" unicode="&#x1e0;" horiz-adv-x="670" 
d="M470 0l-32 136h-204l-32 -136h-202l211 716h245l214 -716h-200zM403 289l-30 133q-5 22 -12.5 54t-14 64t-10.5 55q-4 -23 -10.5 -53.5t-13 -62t-12.5 -56.5l-31 -134h134zM502 1035v-108h-331v108h331zM335 898q34 0 54.5 -17.5t20.5 -51.5q0 -31 -20.5 -49t-54.5 -18
q-35 0 -54.5 18t-19.5 49q0 34 19.5 51.5t54.5 17.5z" />
    <glyph glyph-name="uni01E1" unicode="&#x1e1;" horiz-adv-x="576" 
d="M310 563q97 0 152 -51t55 -149v-363h-126l-34 73h-3q-32 -43 -68.5 -63t-99.5 -20q-71 0 -112.5 48t-41.5 131q0 89 56.5 132t163.5 48l85 3v10q0 36 -16.5 52t-45.5 16q-30 0 -66 -11t-75 -30l-50 124q91 50 226 50zM337 247l-38 -2q-46 -2 -65.5 -18.5t-19.5 -47.5
q0 -29 13 -42.5t36 -13.5q31 0 52.5 22t21.5 57v45zM455 872v-106h-330v106h330zM289 736q32 0 51.5 -17.5t19.5 -50.5q0 -32 -19.5 -49.5t-51.5 -17.5t-51 17.5t-19 49.5q0 33 19 50.5t51 17.5z" />
    <glyph glyph-name="uni01E2" unicode="&#x1e2;" horiz-adv-x="871" 
d="M826 0h-395v136h-186l-45 -136h-205l275 714h556v-151h-211v-118h195v-151h-195v-141h211v-153zM297 291h134v267h-43zM660 888v-114h-334v114h334z" />
    <glyph glyph-name="uni01E3" unicode="&#x1e3;" horiz-adv-x="858" 
d="M594 563q103 0 165 -64.5t62 -189.5v-84h-312q1 -46 29.5 -74t85.5 -28q38 0 79.5 9.5t85.5 33.5v-135q-39 -21 -82 -31t-106 -10q-60 0 -112.5 22t-86.5 68q-29 -32 -57 -52t-63.5 -29t-84.5 -9q-72 0 -118.5 48.5t-46.5 132.5q0 91 59.5 132.5t162.5 45.5l83 3v11
q0 37 -17.5 52t-43.5 15q-63 0 -141 -40l-50 124q44 25 97.5 37t108.5 12q92 0 148 -47q31 24 67.5 35.5t87.5 11.5zM587 434q-31 0 -52.5 -20.5t-23.5 -70.5h147q0 42 -18.5 66.5t-52.5 24.5zM337 247l-37 -2q-47 -1 -66 -20t-19 -50q0 -28 13.5 -40t35.5 -12q30 0 51.5 22
t21.5 57v45zM608 726v-114h-334v114h334z" />
    <glyph glyph-name="uni01E4" unicode="&#x1e4;" horiz-adv-x="676" 
d="M362 -10q-94 0 -164.5 39t-109 118t-38.5 199q0 178 91.5 278t259.5 100q56 0 109.5 -13t94.5 -32l-56 -148q-28 16 -69.5 26t-82.5 10q-154 0 -154 -219q0 -116 33 -165t95 -49q31 0 53 7v32h-92v115h92v35h-92v121h275v-156h58v-115h-58v-142q-52 -17 -111.5 -29
t-133.5 -12z" />
    <glyph glyph-name="uni01E5" unicode="&#x1e5;" horiz-adv-x="604" 
d="M231 563q44 0 75.5 -17t58.5 -58h5l14 65h155v-537h50v-93h-57q-22 -84 -86.5 -123.5t-182.5 -39.5q-107 0 -199 33v130q50 -20 94.5 -29t93.5 -9q34 0 59 8.5t34 29.5h-125v93h137v40q0 15 1 35t3 33h-4q-25 -40 -58.5 -57t-76.5 -17q-87 0 -136.5 65.5t-49.5 185.5
q0 125 53 193.5t142 68.5zM291 413q-69 0 -69 -112q0 -110 71 -110q35 0 54 22.5t19 66.5v18q0 64 -19 89.5t-56 25.5z" />
    <glyph glyph-name="uni01E6" unicode="&#x1e6;" horiz-adv-x="686" 
d="M339 418h286v-385q-55 -19 -121.5 -31t-137.5 -12q-146 0 -232.5 92.5t-86.5 276.5q0 113 40.5 195t118.5 126t191 44q63 0 118.5 -13t96.5 -32l-56 -147q-71 38 -156 38q-58 0 -93.5 -28t-52 -76.5t-16.5 -111.5q0 -102 36.5 -155.5t105.5 -53.5q16 0 36 2t33 6v119
h-110v146zM292 768q-13 21 -33.5 48.5t-42.5 53.5t-39 44v14h117q22 -15 41.5 -32.5t43.5 -40.5q24 23 45 41t43 32h114v-14q-16 -18 -37 -44t-42 -53t-35 -49h-175z" />
    <glyph glyph-name="uni01E7" unicode="&#x1e7;" horiz-adv-x="599" 
d="M226 563q51 0 83.5 -20.5t54.5 -57.5h6l13 68h156v-536q0 -125 -68 -191t-212 -66q-60 0 -107 8t-90 28v151q48 -22 90.5 -32t97.5 -10q52 0 80.5 20.5t28.5 64.5v9q0 31 5 71h-5q-21 -36 -53 -58t-84 -22q-83 0 -133.5 74t-50.5 211q0 138 51.5 213t136.5 75zM291 418
q-70 0 -70 -146q0 -71 18 -104t54 -33q41 0 58 29.5t17 91.5v25q0 68 -16.5 102.5t-60.5 34.5zM203 606q-13 21 -33.5 48.5t-42.5 53.5t-39 44v14h117q22 -15 41.5 -32.5t43.5 -40.5q24 23 45 41t43 32h114v-14q-16 -18 -37 -44t-42 -53t-35 -49h-175z" />
    <glyph glyph-name="uni01E8" unicode="&#x1e8;" horiz-adv-x="638" 
d="M641 0h-207l-128 270l-50 -31v-239h-186v714h186v-310q9 22 23 45l28 46l137 219h200l-205 -320zM254 767q-13 21 -33.5 48.5t-42.5 53.5t-39 44v14h117q22 -15 41.5 -32.5t43.5 -40.5q24 23 45 41t43 32h114v-14q-16 -18 -37 -44t-42 -53t-35 -49h-175z" />
    <glyph glyph-name="uni01E9" unicode="&#x1e9;" horiz-adv-x="608" 
d="M241 760v-300q0 -35 -2.5 -75.5t-6.5 -74.5h3q3 6 11.5 20.5t20 32t21.5 31.5l114 159h198l-176 -235l186 -318h-203l-109 199l-57 -44v-155h-181v760h181zM115 812q-13 21 -33.5 48.5t-42.5 53.5t-39 44v14h117q22 -15 41.5 -32.5t43.5 -40.5q24 23 45 41t43 32h114v-14
q-16 -18 -37 -44t-42 -53t-35 -49h-175z" />
    <glyph glyph-name="uni01EA" unicode="&#x1ea;" horiz-adv-x="732" 
d="M685 358q0 -114 -34 -196.5t-104.5 -127t-180.5 -44.5q-162 0 -240.5 98.5t-78.5 270.5q0 171 78.5 268.5t241.5 97.5q165 0 241.5 -97.5t76.5 -269.5zM240 358q0 -101 30 -156t96 -55q68 0 97 54t29 157t-29 158t-96 55t-97 -55.5t-30 -157.5zM381 -96q0 -35 39 -35
q14 0 28 3.5t23 7.5v-106q-14 -5 -34.5 -9.5t-46.5 -4.5q-59 0 -95.5 30t-36.5 82q0 34 22 71t83 79l78 -22q-33 -32 -46.5 -53t-13.5 -43z" />
    <glyph glyph-name="uni01EB" unicode="&#x1eb;" horiz-adv-x="593" 
d="M553 278q0 -84 -29 -149t-86.5 -102t-142.5 -37q-79 0 -137 36.5t-89 101t-31 150.5q0 130 66.5 207.5t193.5 77.5q74 0 132 -33t90.5 -96.5t32.5 -155.5zM221 277q0 -72 17.5 -110t58.5 -38q40 0 56.5 37.5t16.5 111.5q0 73 -17 109.5t-57 36.5q-75 0 -75 -147zM306 -96
q0 -35 39 -35q14 0 28 3.5t23 7.5v-106q-14 -5 -34.5 -9.5t-46.5 -4.5q-59 0 -95.5 30t-36.5 82q0 34 22 71t83 79l78 -22q-33 -32 -46.5 -53t-13.5 -43z" />
    <glyph glyph-name="uni01EC" unicode="&#x1ec;" horiz-adv-x="732" 
d="M685 358q0 -114 -34 -196.5t-104.5 -127t-180.5 -44.5q-162 0 -240.5 98.5t-78.5 270.5q0 171 78.5 268.5t241.5 97.5q165 0 241.5 -97.5t76.5 -269.5zM240 358q0 -101 30 -156t96 -55q68 0 97 54t29 157t-29 158t-96 55t-97 -55.5t-30 -157.5zM538 888v-114h-334v114
h334zM380 -96q0 -35 39 -35q14 0 28 3.5t23 7.5v-106q-14 -5 -34.5 -9.5t-46.5 -4.5q-59 0 -95.5 30t-36.5 82q0 34 22 71t83 79l78 -22q-33 -32 -46.5 -53t-13.5 -43z" />
    <glyph glyph-name="uni01ED" unicode="&#x1ed;" horiz-adv-x="593" 
d="M553 278q0 -84 -29 -149t-86.5 -102t-142.5 -37q-79 0 -137 36.5t-89 101t-31 150.5q0 130 66.5 207.5t193.5 77.5q74 0 132 -33t90.5 -96.5t32.5 -155.5zM221 277q0 -72 17.5 -110t58.5 -38q40 0 56.5 37.5t16.5 111.5q0 73 -17 109.5t-57 36.5q-75 0 -75 -147zM465 726
v-114h-334v114h334zM308 -96q0 -35 39 -35q14 0 28 3.5t23 7.5v-106q-14 -5 -34.5 -9.5t-46.5 -4.5q-59 0 -95.5 30t-36.5 82q0 34 22 71t83 79l78 -22q-33 -32 -46.5 -53t-13.5 -43z" />
    <glyph glyph-name="uni01EE" unicode="&#x1ee;" horiz-adv-x="591" 
d="M510 714v-119l-179 -170q106 -10 161 -66.5t55 -141.5q0 -67 -31.5 -118.5t-97.5 -80t-171 -28.5q-61 0 -115.5 10t-99.5 28v163q44 -23 98.5 -35t96.5 -12q75 0 103 21.5t28 59.5q0 23 -14.5 40t-51 26t-101.5 9h-58v123l141 138h-217v153h453zM199 767
q-13 21 -33.5 48.5t-42.5 53.5t-39 44v14h117q22 -15 41.5 -32.5t43.5 -40.5q24 23 45 41t43 32h114v-14q-16 -18 -37 -44t-42 -53t-35 -49h-175z" />
    <glyph glyph-name="uni01EF" unicode="&#x1ef;" horiz-adv-x="557" 
d="M502 553v-114l-187 -186q97 -11 152.5 -67t55.5 -154q0 -124 -76.5 -198t-230.5 -74q-72 0 -120 11t-87 26v158q41 -19 91 -32.5t104 -13.5q71 0 103.5 30.5t32.5 80.5q0 34 -14.5 58t-51 37.5t-103.5 13.5h-56v120l161 162h-243v142h469zM185 606q-13 21 -33.5 48.5
t-42.5 53.5t-39 44v14h117q22 -15 41.5 -32.5t43.5 -40.5q24 23 45 41t43 32h114v-14q-16 -18 -37 -44t-42 -53t-35 -49h-175z" />
    <glyph glyph-name="uni01F0" unicode="&#x1f0;" horiz-adv-x="302" 
d="M50 -240q-22 0 -50.5 3.5t-45.5 8.5v145q28 -9 54 -9q22 0 37 16t15 59v570h181v-598q0 -54 -19.5 -98t-61.5 -70.5t-110 -26.5zM65 606q-13 21 -33.5 48.5t-42.5 53.5t-39 44v14h117q22 -15 41.5 -32.5t43.5 -40.5q24 23 45 41t43 32h114v-14q-16 -18 -37 -44t-42 -53
t-35 -49h-175z" />
    <glyph glyph-name="uni01F1" unicode="&#x1f1;" horiz-adv-x="1233" 
d="M634 372q0 -123 -42.5 -205.5t-121 -124.5t-186.5 -42h-214v714h229q161 0 248 -88t87 -254zM442 365q0 101 -35.5 148.5t-107.5 47.5h-44v-407h32q80 0 117.5 52t37.5 159zM1210 0h-509v119l283 443h-277v152h496v-119l-283 -443h290v-152z" />
    <glyph glyph-name="uni01F2" unicode="&#x1f2;" horiz-adv-x="1147" 
d="M634 372q0 -123 -42.5 -205.5t-121 -124.5t-186.5 -42h-214v714h229q161 0 248 -88t87 -254zM442 365q0 101 -35.5 148.5t-107.5 47.5h-44v-407h32q80 0 117.5 52t37.5 159zM1125 0h-424v105l209 306h-197v142h402v-114l-200 -297h210v-142z" />
    <glyph glyph-name="uni01F3" unicode="&#x1f3;" horiz-adv-x="1066" 
d="M223 -10q-83 0 -134 74.5t-51 212.5t51.5 212t136.5 74q49 0 81 -21.5t54 -59.5h5q-3 27 -5.5 60t-2.5 61v157h181v-760h-139l-34 64h-8q-22 -34 -53 -54t-82 -20zM292 135q41 0 58 30.5t18 95.5v21q0 66 -17 99t-60 33q-31 0 -50.5 -34t-19.5 -104q0 -73 19.5 -107
t51.5 -34zM1044 0h-424v105l209 306h-197v142h402v-114l-200 -297h210v-142z" />
    <glyph glyph-name="uni01F4" unicode="&#x1f4;" horiz-adv-x="686" 
d="M339 418h286v-385q-55 -19 -121.5 -31t-137.5 -12q-146 0 -232.5 92.5t-86.5 276.5q0 113 40.5 195t118.5 126t191 44q63 0 118.5 -13t96.5 -32l-56 -147q-71 38 -156 38q-58 0 -93.5 -28t-52 -76.5t-16.5 -111.5q0 -102 36.5 -155.5t105.5 -53.5q16 0 36 2t33 6v119
h-110v146zM601 928v-10q-20 -18 -53.5 -46t-69.5 -56t-62 -48h-124v14q25 32 57 72t53 74h199z" />
    <glyph glyph-name="uni01F5" unicode="&#x1f5;" horiz-adv-x="599" 
d="M226 563q51 0 83.5 -20.5t54.5 -57.5h6l13 68h156v-536q0 -125 -68 -191t-212 -66q-60 0 -107 8t-90 28v151q48 -22 90.5 -32t97.5 -10q52 0 80.5 20.5t28.5 64.5v9q0 31 5 71h-5q-21 -36 -53 -58t-84 -22q-83 0 -133.5 74t-50.5 211q0 138 51.5 213t136.5 75zM291 418
q-70 0 -70 -146q0 -71 18 -104t54 -33q41 0 58 29.5t17 91.5v25q0 68 -16.5 102.5t-60.5 34.5zM516 766v-10q-20 -18 -53.5 -46t-69.5 -56t-62 -48h-124v14q25 32 57 72t53 74h199z" />
    <glyph glyph-name="uni01F6" unicode="&#x1f6;" horiz-adv-x="1012" 
d="M75 0v714h187v-266h167v266h187v-470q0 -56 15 -80t54 -24t55 25t16 89v299h187v-313q0 -122 -61.5 -187.5t-195.5 -65.5q-137 0 -197 57.5t-60 173.5v74h-167v-292h-187z" />
    <glyph glyph-name="uni01F7" unicode="&#x1f7;" horiz-adv-x="669" 
d="M411 724q104 0 160 -70.5t56 -206.5q0 -105 -42.5 -194.5t-124 -154t-197.5 -94.5v-244h-188v954h148l27 -82h4q20 38 56 65t101 27zM353 568q-49 -1 -69.5 -39.5t-20.5 -117.5v-247q45 16 84.5 51.5t64 92.5t24.5 138q0 57 -19.5 89.5t-63.5 32.5z" />
    <glyph glyph-name="uni01F8" unicode="&#x1f8;" horiz-adv-x="769" 
d="M698 0h-232l-234 481h-4q1 -15 3 -46t4 -67.5t2 -67.5v-300h-167v714h232l233 -473h3q0 13 -2 43.5t-3.5 65.5t-1.5 64v300h167v-714zM377 927q14 -22 34.5 -49.5t41 -53.5t33.5 -43v-14h-124q-17 12 -42.5 32t-52.5 42t-51 42t-39 34v10h200z" />
    <glyph glyph-name="uni01F9" unicode="&#x1f9;" horiz-adv-x="618" 
d="M381 563q81 0 130 -50t49 -153v-360h-181v304q0 55 -13 83t-47 28q-47 0 -63 -41t-16 -128v-246h-180v553h138l23 -71h8q23 39 61 60t91 21zM306 766q14 -22 34.5 -49.5t41 -53.5t33.5 -43v-14h-124q-17 12 -42.5 32t-52.5 42t-51 42t-39 34v10h200z" />
    <glyph glyph-name="Aringacute" unicode="&#x1fa;" horiz-adv-x="669" 
d="M252 874v11q28 26 46.5 42.5t31.5 32.5h204v-8q-9 -8 -28 -19t-42.5 -22.5t-45 -21.5t-35.5 -15h-131zM0 0l212 679q-2 10 -3.5 20t-1.5 21q0 56 35 90t92 34q55 0 92.5 -34t37.5 -89q0 -22 -8 -43l214 -678h-200l-34 136h-202l-32 -136h-202zM334 679q17 0 29 11.5
t12 29.5q0 19 -12 30t-29 11t-29 -11t-12 -30q0 -18 10.5 -29.5t30.5 -11.5zM271 291h130l-30 119q-5 21 -12.5 50.5t-14 58.5t-9.5 50q-5 -32 -15 -77t-19 -81z" />
    <glyph glyph-name="aringacute" unicode="&#x1fb;" horiz-adv-x="576" 
d="M479 964v-6q-11 -12 -38 -31t-56 -37t-48 -28h-129v8q28 32 46.5 53t31.5 41h193zM294 836q54 0 92.5 -34t38.5 -89t-37.5 -89.5t-93.5 -34.5q-57 0 -92 33.5t-35 89.5t35 90t92 34zM294 753q-17 0 -29 -11t-12 -30q0 -18 10.5 -29.5t30.5 -11.5q17 0 29 11.5t12 29.5
q0 19 -12 30t-29 11zM310 563q97 0 152 -51t55 -149v-363h-126l-34 73h-3q-32 -43 -68.5 -63t-99.5 -20q-71 0 -112.5 48.5t-41.5 132.5q0 91 55 132.5t165 45.5l85 3v10q0 36 -16.5 52t-45.5 16q-30 0 -66 -11t-75 -30l-50 124q91 50 226 50zM337 247l-38 -2
q-46 -2 -65 -20t-19 -49q0 -28 12.5 -40.5t35.5 -12.5q31 0 52.5 22t21.5 57v45z" />
    <glyph glyph-name="AEacute" unicode="&#x1fc;" horiz-adv-x="871" 
d="M826 0h-395v136h-186l-45 -136h-205l275 714h556v-151h-211v-118h195v-151h-195v-141h211v-153zM297 291h134v267h-43zM685 927v-10q-20 -18 -53.5 -46t-69.5 -56t-62 -48h-124v14q25 32 57 72t53 74h199z" />
    <glyph glyph-name="aeacute" unicode="&#x1fd;" horiz-adv-x="858" 
d="M594 563q103 0 165 -64.5t62 -189.5v-84h-312q1 -46 29.5 -74t85.5 -28q38 0 79.5 9.5t85.5 33.5v-135q-39 -21 -82 -31t-106 -10q-60 0 -112.5 22t-86.5 68q-29 -32 -57 -52t-63.5 -29t-84.5 -9q-72 0 -118.5 48.5t-46.5 132.5q0 91 59.5 132.5t162.5 45.5l83 3v11
q0 37 -17.5 52t-43.5 15q-63 0 -141 -40l-50 124q44 25 97.5 37t108.5 12q92 0 148 -47q31 24 67.5 35.5t87.5 11.5zM587 434q-31 0 -52.5 -20.5t-23.5 -70.5h147q0 42 -18.5 66.5t-52.5 24.5zM337 247l-37 -2q-47 -1 -66 -20t-19 -50q0 -28 13.5 -40t35.5 -12q30 0 51.5 22
t21.5 57v45zM655 766v-10q-20 -18 -53.5 -46t-69.5 -56t-62 -48h-124v14q25 32 57 72t53 74h199z" />
    <glyph glyph-name="Oslashacute" unicode="&#x1fe;" horiz-adv-x="732" 
d="M685 358q0 -114 -34 -196.5t-104.5 -127t-180.5 -44.5q-79 0 -138 22l-38 -65l-88 52l41 69q-51 52 -73.5 125.5t-22.5 165.5q0 171 78.5 268.5t241.5 97.5q86 0 146 -27l34 58l88 -49l-39 -66q46 -47 67.5 -119t21.5 -164zM238 358q0 -33 2.5 -61.5t9.5 -51.5l179 309
q-27 19 -62 19q-68 0 -98.5 -56t-30.5 -159zM494 358q0 29 -2 54t-6 46l-176 -301q22 -13 56 -13q68 0 98 55.5t30 158.5zM584 927v-10q-20 -18 -53.5 -46t-69.5 -56t-62 -48h-124v14q25 32 57 72t53 74h199z" />
    <glyph glyph-name="oslashacute" unicode="&#x1ff;" horiz-adv-x="610" 
d="M571 278q0 -137 -71 -212.5t-196 -75.5q-55 0 -103 17l-37 -64l-81 46l39 67q-41 40 -62.5 95.5t-21.5 126.5q0 136 71.5 210.5t196.5 74.5q28 0 54.5 -5t49.5 -14l32 54l80 -45l-33 -57q39 -37 60.5 -92.5t21.5 -125.5zM211 277q0 -19 1 -35.5t4 -31.5l127 215
q-15 8 -38 8q-52 0 -73 -39t-21 -117zM399 278q0 17 -1 32.5t-3 28.5l-125 -213q8 -3 17 -5t19 -2q52 0 72.5 40.5t20.5 118.5zM521 766v-10q-20 -18 -53.5 -46t-69.5 -56t-62 -48h-124v14q25 32 57 72t53 74h199z" />
    <glyph glyph-name="uni0200" unicode="&#x200;" horiz-adv-x="670" 
d="M470 0l-32 136h-204l-32 -136h-202l211 716h245l214 -716h-200zM403 289l-30 133q-5 22 -12.5 54t-14 64t-10.5 55q-4 -23 -10.5 -53.5t-13 -62t-12.5 -56.5l-31 -134h134zM415 927q13 -28 34.5 -68t44.5 -78v-14h-90q-25 20 -56 48t-57 56t-35 46v10h159zM219 927
q13 -28 34.5 -68t44.5 -78v-14h-93q-16 14 -38 33.5t-44 41.5t-39 42t-24 33v10h159z" />
    <glyph glyph-name="uni0201" unicode="&#x201;" horiz-adv-x="576" 
d="M310 563q97 0 152 -51t55 -149v-363h-126l-34 73h-3q-32 -43 -68.5 -63t-99.5 -20q-71 0 -112.5 48t-41.5 131q0 89 56.5 132t163.5 48l85 3v10q0 36 -16.5 52t-45.5 16q-30 0 -66 -11t-75 -30l-50 124q91 50 226 50zM337 247l-38 -2q-46 -2 -65.5 -18.5t-19.5 -47.5
q0 -29 13 -42.5t36 -13.5q31 0 52.5 22t21.5 57v45zM370 766q13 -28 34.5 -68t44.5 -78v-14h-90q-25 20 -56 48t-57 56t-35 46v10h159zM174 766q13 -28 34.5 -68t44.5 -78v-14h-93q-16 14 -38 33.5t-44 41.5t-39 42t-24 33v10h159z" />
    <glyph glyph-name="uni0202" unicode="&#x202;" horiz-adv-x="670" 
d="M470 0l-32 136h-204l-32 -136h-202l211 716h245l214 -716h-200zM403 289l-30 133q-5 22 -12.5 54t-14 64t-10.5 55q-4 -23 -10.5 -53.5t-13 -62t-12.5 -56.5l-31 -134h134zM337 951q85 0 138 -49t55 -135h-99q-3 40 -30 51.5t-64 11.5q-22 0 -43 -5t-36 -18.5t-17 -39.5
h-100q2 54 28 95.5t69.5 65t98.5 23.5z" />
    <glyph glyph-name="uni0203" unicode="&#x203;" horiz-adv-x="576" 
d="M310 563q97 0 152 -51t55 -149v-363h-126l-34 73h-3q-32 -43 -68.5 -63t-99.5 -20q-71 0 -112.5 48t-41.5 131q0 89 56.5 132t163.5 48l85 3v10q0 36 -16.5 52t-45.5 16q-30 0 -66 -11t-75 -30l-50 124q91 50 226 50zM337 247l-38 -2q-46 -2 -65.5 -18.5t-19.5 -47.5
q0 -29 13 -42.5t36 -13.5q31 0 52.5 22t21.5 57v45zM292 790q85 0 138 -49t55 -135h-99q-3 40 -30 51.5t-64 11.5q-22 0 -43 -5t-36 -18.5t-17 -39.5h-100q2 54 28 95.5t69.5 65t98.5 23.5z" />
    <glyph glyph-name="uni0204" unicode="&#x204;" horiz-adv-x="510" 
d="M465 0h-395v714h395v-151h-210v-118h195v-151h-195v-141h210v-153zM345 927q13 -28 34.5 -68t44.5 -78v-14h-90q-25 20 -56 48t-57 56t-35 46v10h159zM149 927q13 -28 34.5 -68t44.5 -78v-14h-93q-16 14 -38 33.5t-44 41.5t-39 42t-24 33v10h159z" />
    <glyph glyph-name="uni0205" unicode="&#x205;" horiz-adv-x="568" 
d="M290 563q112 0 177 -64.5t65 -188.5v-85h-313q1 -48 28.5 -75t82.5 -27q46 0 86 10.5t83 32.5v-135q-39 -21 -84 -31t-108 -10q-124 0 -196.5 69.5t-72.5 213.5q0 145 68 217.5t184 72.5zM296 434q-31 0 -51.5 -21t-23.5 -70h146q-1 43 -19 67t-52 24zM366 766
q13 -28 34.5 -68t44.5 -78v-14h-90q-25 20 -56 48t-57 56t-35 46v10h159zM170 766q13 -28 34.5 -68t44.5 -78v-14h-93q-16 14 -38 33.5t-44 41.5t-39 42t-24 33v10h159z" />
    <glyph glyph-name="uni0206" unicode="&#x206;" horiz-adv-x="510" 
d="M465 0h-395v714h395v-151h-210v-118h195v-151h-195v-141h210v-153zM268 951q85 0 138 -49t55 -135h-99q-3 40 -30 51.5t-64 11.5q-22 0 -43 -5t-36 -18.5t-17 -39.5h-100q2 54 28 95.5t69.5 65t98.5 23.5z" />
    <glyph glyph-name="uni0207" unicode="&#x207;" horiz-adv-x="568" 
d="M290 563q112 0 177 -64.5t65 -188.5v-85h-313q1 -48 28.5 -75t82.5 -27q46 0 86 10.5t83 32.5v-135q-39 -21 -84 -31t-108 -10q-124 0 -196.5 69.5t-72.5 213.5q0 145 68 217.5t184 72.5zM296 434q-31 0 -51.5 -21t-23.5 -70h146q-1 43 -19 67t-52 24zM288 790
q85 0 138 -49t55 -135h-99q-3 40 -30 51.5t-64 11.5q-22 0 -43 -5t-36 -18.5t-17 -39.5h-100q2 54 28 95.5t69.5 65t98.5 23.5z" />
    <glyph glyph-name="uni0208" unicode="&#x208;" horiz-adv-x="408" 
d="M378 0h-347v103l81 34v440l-81 34v103h347v-103l-81 -34v-440l81 -34v-103zM284 927q13 -28 34.5 -68t44.5 -78v-14h-90q-25 20 -56 48t-57 56t-35 46v10h159zM88 927q13 -28 34.5 -68t44.5 -78v-14h-93q-16 14 -38 33.5t-44 41.5t-39 42t-24 33v10h159z" />
    <glyph glyph-name="uni0209" unicode="&#x209;" horiz-adv-x="303" 
d="M242 0h-181v553h181v-553zM231 766q13 -28 34.5 -68t44.5 -78v-14h-90q-25 20 -56 48t-57 56t-35 46v10h159zM35 766q13 -28 34.5 -68t44.5 -78v-14h-93q-16 14 -38 33.5t-44 41.5t-39 42t-24 33v10h159z" />
    <glyph glyph-name="uni020A" unicode="&#x20a;" horiz-adv-x="408" 
d="M378 0h-347v103l81 34v440l-81 34v103h347v-103l-81 -34v-440l81 -34v-103zM206 951q85 0 138 -49t55 -135h-99q-3 40 -30 51.5t-64 11.5q-22 0 -43 -5t-36 -18.5t-17 -39.5h-100q2 54 28 95.5t69.5 65t98.5 23.5z" />
    <glyph glyph-name="uni020B" unicode="&#x20b;" horiz-adv-x="303" 
d="M242 0h-181v553h181v-553zM154 790q85 0 138 -49t55 -135h-99q-3 40 -30 51.5t-64 11.5q-22 0 -43 -5t-36 -18.5t-17 -39.5h-100q2 54 28 95.5t69.5 65t98.5 23.5z" />
    <glyph glyph-name="uni020C" unicode="&#x20c;" horiz-adv-x="732" 
d="M685 358q0 -114 -34 -196.5t-104.5 -127t-180.5 -44.5q-162 0 -240.5 98.5t-78.5 270.5q0 171 78.5 268.5t241.5 97.5q165 0 241.5 -97.5t76.5 -269.5zM240 358q0 -101 30 -156t96 -55q68 0 97 54t29 157t-29 158t-96 55t-97 -55.5t-30 -157.5zM446 927q13 -28 34.5 -68
t44.5 -78v-14h-90q-25 20 -56 48t-57 56t-35 46v10h159zM250 927q13 -28 34.5 -68t44.5 -78v-14h-93q-16 14 -38 33.5t-44 41.5t-39 42t-24 33v10h159z" />
    <glyph glyph-name="uni020D" unicode="&#x20d;" horiz-adv-x="593" 
d="M553 278q0 -84 -29 -149t-86.5 -102t-142.5 -37q-79 0 -137 36.5t-89 101t-31 150.5q0 130 66.5 207.5t193.5 77.5q74 0 132 -33t90.5 -96.5t32.5 -155.5zM221 277q0 -72 17.5 -110t58.5 -38q40 0 56.5 37.5t16.5 111.5q0 73 -17 109.5t-57 36.5q-75 0 -75 -147zM376 766
q13 -28 34.5 -68t44.5 -78v-14h-90q-25 20 -56 48t-57 56t-35 46v10h159zM180 766q13 -28 34.5 -68t44.5 -78v-14h-93q-16 14 -38 33.5t-44 41.5t-39 42t-24 33v10h159z" />
    <glyph glyph-name="uni020E" unicode="&#x20e;" horiz-adv-x="732" 
d="M685 358q0 -114 -34 -196.5t-104.5 -127t-180.5 -44.5q-162 0 -240.5 98.5t-78.5 270.5q0 171 78.5 268.5t241.5 97.5q165 0 241.5 -97.5t76.5 -269.5zM240 358q0 -101 30 -156t96 -55q68 0 97 54t29 157t-29 158t-96 55t-97 -55.5t-30 -157.5zM368 951q85 0 138 -49
t55 -135h-99q-3 40 -30 51.5t-64 11.5q-22 0 -43 -5t-36 -18.5t-17 -39.5h-100q2 54 28 95.5t69.5 65t98.5 23.5z" />
    <glyph glyph-name="uni020F" unicode="&#x20f;" horiz-adv-x="593" 
d="M553 278q0 -84 -29 -149t-86.5 -102t-142.5 -37q-79 0 -137 36.5t-89 101t-31 150.5q0 130 66.5 207.5t193.5 77.5q74 0 132 -33t90.5 -96.5t32.5 -155.5zM221 277q0 -72 17.5 -110t58.5 -38q40 0 56.5 37.5t16.5 111.5q0 73 -17 109.5t-57 36.5q-75 0 -75 -147zM299 790
q85 0 138 -49t55 -135h-99q-3 40 -30 51.5t-64 11.5q-22 0 -43 -5t-36 -18.5t-17 -39.5h-100q2 54 28 95.5t69.5 65t98.5 23.5z" />
    <glyph glyph-name="uni0210" unicode="&#x210;" horiz-adv-x="629" 
d="M289 714q275 0 275 -211q0 -65 -29.5 -112.5t-82.5 -79.5l186 -311h-207l-137 263h-39v-263h-185v714h219zM286 569h-31v-166h29q42 0 67 20.5t25 70.5q0 36 -21.5 55.5t-68.5 19.5zM390 927q13 -28 34.5 -68t44.5 -78v-14h-90q-25 20 -56 48t-57 56t-35 46v10h159z
M194 927q13 -28 34.5 -68t44.5 -78v-14h-93q-16 14 -38 33.5t-44 41.5t-39 42t-24 33v10h159z" />
    <glyph glyph-name="uni0211" unicode="&#x211;" horiz-adv-x="435" 
d="M371 563q13 0 28 -2t26 -4l-16 -178q-10 3 -23.5 4.5t-35.5 1.5q-27 0 -52 -9t-41 -33t-16 -69v-274h-181v553h136l27 -88h9q20 38 57 68t82 30zM310 766q13 -28 34.5 -68t44.5 -78v-14h-90q-25 20 -56 48t-57 56t-35 46v10h159zM114 766q13 -28 34.5 -68t44.5 -78v-14
h-93q-16 14 -38 33.5t-44 41.5t-39 42t-24 33v10h159z" />
    <glyph glyph-name="uni0212" unicode="&#x212;" horiz-adv-x="629" 
d="M289 714q275 0 275 -211q0 -65 -29.5 -112.5t-82.5 -79.5l186 -311h-207l-137 263h-39v-263h-185v714h219zM286 569h-31v-166h29q42 0 67 20.5t25 70.5q0 36 -21.5 55.5t-68.5 19.5zM312 951q85 0 138 -49t55 -135h-99q-3 40 -30 51.5t-64 11.5q-22 0 -43 -5t-36 -18.5
t-17 -39.5h-100q2 54 28 95.5t69.5 65t98.5 23.5z" />
    <glyph glyph-name="uni0213" unicode="&#x213;" horiz-adv-x="435" 
d="M371 563q13 0 28 -2t26 -4l-16 -178q-10 3 -23.5 4.5t-35.5 1.5q-27 0 -52 -9t-41 -33t-16 -69v-274h-181v553h136l27 -88h9q20 38 57 68t82 30zM232 790q85 0 138 -49t55 -135h-99q-3 40 -30 51.5t-64 11.5q-22 0 -43 -5t-36 -18.5t-17 -39.5h-100q2 54 28 95.5t69.5 65
t98.5 23.5z" />
    <glyph glyph-name="uni0214" unicode="&#x214;" horiz-adv-x="695" 
d="M629 714v-445q0 -131 -71.5 -205t-212.5 -74q-135 0 -206.5 71t-71.5 204v449h185v-437q0 -70 24 -100t72 -30q50 0 73 30.5t23 100.5v436h185zM427 927q13 -28 34.5 -68t44.5 -78v-14h-90q-25 20 -56 48t-57 56t-35 46v10h159zM231 927q13 -28 34.5 -68t44.5 -78v-14
h-93q-16 14 -38 33.5t-44 41.5t-39 42t-24 33v10h159z" />
    <glyph glyph-name="uni0215" unicode="&#x215;" horiz-adv-x="618" 
d="M558 553v-553h-137l-22 69h-10q-24 -41 -63.5 -60t-88.5 -19q-78 0 -128 50t-50 153v360h181v-304q0 -55 13 -83t44 -28q50 0 65.5 42.5t15.5 119.5v253h180zM389 766q13 -28 34.5 -68t44.5 -78v-14h-90q-25 20 -56 48t-57 56t-35 46v10h159zM193 766q13 -28 34.5 -68
t44.5 -78v-14h-93q-16 14 -38 33.5t-44 41.5t-39 42t-24 33v10h159z" />
    <glyph glyph-name="uni0216" unicode="&#x216;" horiz-adv-x="695" 
d="M629 714v-445q0 -131 -71.5 -205t-212.5 -74q-135 0 -206.5 71t-71.5 204v449h185v-437q0 -70 24 -100t72 -30q50 0 73 30.5t23 100.5v436h185zM350 951q85 0 138 -49t55 -135h-99q-3 40 -30 51.5t-64 11.5q-22 0 -43 -5t-36 -18.5t-17 -39.5h-100q2 54 28 95.5t69.5 65
t98.5 23.5z" />
    <glyph glyph-name="uni0217" unicode="&#x217;" horiz-adv-x="618" 
d="M558 553v-553h-137l-22 69h-10q-24 -41 -63.5 -60t-88.5 -19q-78 0 -128 50t-50 153v360h181v-304q0 -55 13 -83t44 -28q50 0 65.5 42.5t15.5 119.5v253h180zM311 790q85 0 138 -49t55 -135h-99q-3 40 -30 51.5t-64 11.5q-22 0 -43 -5t-36 -18.5t-17 -39.5h-100
q2 54 28 95.5t69.5 65t98.5 23.5z" />
    <glyph glyph-name="uni0218" unicode="&#x218;" horiz-adv-x="532" 
d="M502 217q0 -61 -29 -113t-86.5 -83t-144.5 -31q-63 0 -108.5 10t-95.5 35v172q52 -29 106 -44.5t97 -15.5q39 0 57 15t18 38q0 18 -10 31t-35 28t-68 37q-49 26 -85 53.5t-55.5 66.5t-19.5 99q0 101 67.5 155t182.5 54q60 0 112 -14.5t97 -36.5l-54 -149q-43 22 -82.5 34
t-74.5 12q-34 0 -49 -13t-15 -33q0 -17 10.5 -30.5t37.5 -29t75 -39.5q73 -37 112.5 -83t39.5 -125zM354 -61v-11q-15 -40 -32 -75.5t-43 -73.5h-112v14q5 19 9.5 46t7.5 54t4 46h166z" />
    <glyph glyph-name="uni0219" unicode="&#x219;" horiz-adv-x="473" 
d="M438 170q0 -82 -52 -131t-165 -49q-53 0 -96.5 6.5t-87.5 24.5v153q44 -22 91.5 -33.5t81.5 -11.5q55 0 55 29q0 11 -8 20t-30.5 20.5t-66.5 30.5q-62 28 -93 67.5t-31 103.5q0 80 56.5 121.5t153.5 41.5q50 0 95 -12t92 -35l-48 -123q-35 18 -72 29.5t-63 11.5
q-42 0 -42 -24q0 -10 7 -17.5t28.5 -18t63.5 -29.5q64 -29 97.5 -67t33.5 -108zM319 -61v-11q-15 -40 -32 -75.5t-43 -73.5h-112v14q5 19 9.5 46t7.5 54t4 46h166z" />
    <glyph glyph-name="uni021A" unicode="&#x21a;" horiz-adv-x="543" 
d="M364 0h-184v560h-158v154h499v-154h-157v-560zM364 -61v-11q-15 -40 -32 -75.5t-43 -73.5h-112v14q5 19 9.5 46t7.5 54t4 46h166z" />
    <glyph glyph-name="uni021B" unicode="&#x21b;" horiz-adv-x="421" 
d="M311 137q21 0 41 5.5t43 13.5v-135q-30 -14 -62.5 -22.5t-79.5 -8.5q-82 0 -126.5 42.5t-44.5 149.5v232h-63v81l80 53l45 116h119v-111h124v-139h-124v-223q0 -54 48 -54zM336 -61v-11q-15 -40 -32 -75.5t-43 -73.5h-112v14q5 19 9.5 46t7.5 54t4 46h166z" />
    <glyph glyph-name="uni021C" unicode="&#x21c;" horiz-adv-x="592" 
d="M44 -180v164q102 23 164.5 47t95.5 49.5t44.5 54.5t11.5 64q0 32 -11 55.5t-31 41.5q-63 -24 -144 -42l-33 140q81 20 125.5 37t61.5 36t17 45q0 34 -23 46t-58 12q-38 0 -81 -15t-78 -37l-77 129q56 39 119 58t139 19q113 0 178 -50t65 -145q0 -97 -79 -161
q43 -26 71 -69.5t28 -108.5q0 -94 -53.5 -164t-165 -120t-286.5 -86z" />
    <glyph glyph-name="uni021D" unicode="&#x21d;" horiz-adv-x="504" 
d="M28 -240v154q97 19 153.5 40.5t80.5 50.5t24 69q0 53 -29 85q-54 -19 -114 -33l-32 128q97 24 135.5 46t38.5 56q0 30 -20 42.5t-54 12.5q-40 0 -76 -8.5t-65 -22.5l-51 133q48 23 98.5 35.5t108.5 12.5q110 0 169.5 -50.5t59.5 -140.5q0 -44 -18.5 -79t-51.5 -63
q40 -26 62 -65.5t22 -95.5q0 -73 -33 -123t-92.5 -84.5t-140 -57.5t-175.5 -42z" />
    <glyph glyph-name="uni021E" unicode="&#x21e;" horiz-adv-x="708" 
d="M638 0h-185v294h-197v-294h-186v714h186v-267h197v267h185v-714zM268 767q-13 21 -33.5 48.5t-42.5 53.5t-39 44v14h117q22 -15 41.5 -32.5t43.5 -40.5q24 23 45 41t43 32h114v-14q-16 -18 -37 -44t-42 -53t-35 -49h-175z" />
    <glyph glyph-name="uni021F" unicode="&#x21f;" horiz-adv-x="618" 
d="M240 760v-119q0 -52 -2.5 -91t-6.5 -65h9q23 41 57.5 59.5t82.5 18.5q78 0 129 -49.5t51 -153.5v-360h-181v304q0 111 -58 111q-47 0 -64 -42.5t-17 -125.5v-247h-180v760h180zM66 805q-13 21 -33.5 48.5t-42.5 53.5t-39 44v14h117q22 -15 41.5 -32.5t43.5 -40.5
q24 23 45 41t43 32h114v-14q-16 -18 -37 -44t-42 -53t-35 -49h-175z" />
    <glyph glyph-name="uni0220" unicode="&#x220;" horiz-adv-x="720" 
d="M441 725q58 1 105.5 -20.5t75.5 -69t28 -125.5v-750h-188v696q0 59 -21 86t-65 27q-66 -1 -90 -48.5t-24 -140.5v-380h-187v714h148l28 -80h5q33 46 82.5 68t102.5 23z" />
    <glyph glyph-name="uni0221" unicode="&#x221;" horiz-adv-x="821" 
d="M589 -107l-135 5q2 40 6.5 70.5t9.5 60.5q-19 8 -33.5 24.5t-17.5 23.5h-7q-22 -38 -64 -62.5t-108 -24.5q-95 0 -149.5 73t-54.5 215q0 139 53 212t135 73q51 0 84.5 -22.5t53.5 -54.5h6q0 4 -3 22t-5.5 41.5t-2.5 41.5v169h182v-522q0 -10 1 -20.5t4 -20.5q23 30 60 47
t83 17q67 0 101.5 -34.5t34.5 -87.5q0 -37 -17.5 -69t-59.5 -52t-117 -20h-15.5t-15.5 1q-4 -25 -6 -50t-3 -56zM289 136q41 0 58 29t19 93v24q0 65 -17 98t-61 33q-31 0 -49 -34.5t-18 -101.5q0 -71 18.5 -106t49.5 -35zM645 105q29 0 41 7t12 18q0 21 -25 21
q-18 0 -30 -13t-19 -32q4 -1 10 -1h11z" />
    <glyph glyph-name="uni0222" unicode="&#x222;" horiz-adv-x="746" 
d="M373 -10q-115 0 -187 32.5t-106 91.5t-34 138q0 60 26.5 112t91.5 84q-52 34 -69 81t-17 106v76h189v-78q0 -53 25.5 -84.5t82.5 -31.5q55 0 79 31.5t24 83.5v79h189v-75q0 -58 -17 -105.5t-67 -81.5q63 -32 90 -82.5t27 -112.5q0 -120 -79 -192t-248 -72zM372 150
q73 0 101 28t28 78q0 49 -28 77t-98 28q-71 0 -101 -28t-30 -78q0 -49 29 -77t99 -28z" />
    <glyph glyph-name="uni0223" unicode="&#x223;" horiz-adv-x="604" 
d="M300 -10q-78 0 -138 33t-93.5 93t-33.5 139q0 67 25.5 118t86.5 84q-52 29 -68 79t-16 114v112h183v-116q0 -58 11 -87t46 -29q33 0 44 29t11 84v119h183v-116q0 -60 -18 -109t-69 -79q114 -62 114 -201q0 -79 -32 -139t-92 -94t-144 -34zM302 136q81 0 81 125
q0 62 -18.5 94t-61.5 32t-62.5 -31.5t-19.5 -95.5q0 -62 19 -93t62 -31z" />
    <glyph glyph-name="uni0224" unicode="&#x224;" horiz-adv-x="560" 
d="M536 0h-509v119l283 443h-277v152h496v-119l-283 -443h290v-152zM341 -261q-28 0 -57 3t-48 9v144q17 -5 29.5 -7t27.5 -2q28 0 45.5 18t17.5 73v23h-9v152h189v-202q0 -60 -20.5 -107.5t-63.5 -75.5t-111 -28z" />
    <glyph glyph-name="uni0225" unicode="&#x225;" horiz-adv-x="462" 
d="M430 553v-120l-197 -291h214v-204q0 -99 -38.5 -142.5t-114.5 -43.5q-28 0 -51 3.5t-40 9.5v128q10 -4 21.5 -6.5t22.5 -2.5q24 0 35 13.5t11 48.5v54h-274v108l207 303h-196v142h400z" />
    <glyph glyph-name="uni0226" unicode="&#x226;" horiz-adv-x="670" 
d="M470 0l-32 136h-204l-32 -136h-202l211 716h245l214 -716h-200zM403 289l-30 133q-5 22 -12.5 54t-14 64t-10.5 55q-4 -23 -10.5 -53.5t-13 -62t-12.5 -56.5l-31 -134h134zM339 937q42 0 69 -18.5t27 -66.5q0 -47 -27.5 -65.5t-68.5 -18.5q-43 0 -69.5 18.5t-26.5 65.5
q0 48 26 66.5t70 18.5z" />
    <glyph glyph-name="uni0227" unicode="&#x227;" horiz-adv-x="576" 
d="M310 563q97 0 152 -51t55 -149v-363h-126l-34 73h-3q-32 -43 -68.5 -63t-99.5 -20q-71 0 -112.5 48t-41.5 131q0 89 56.5 132t163.5 48l85 3v10q0 36 -16.5 52t-45.5 16q-30 0 -66 -11t-75 -30l-50 124q91 50 226 50zM337 247l-38 -2q-46 -2 -65.5 -18.5t-19.5 -47.5
q0 -29 13 -42.5t36 -13.5q31 0 52.5 22t21.5 57v45zM294 776q42 0 69 -18.5t27 -66.5q0 -47 -27.5 -65.5t-68.5 -18.5q-43 0 -69.5 18.5t-26.5 65.5q0 48 26 66.5t70 18.5z" />
    <glyph glyph-name="uni0228" unicode="&#x228;" horiz-adv-x="510" 
d="M465 0h-395v714h395v-151h-210v-118h195v-151h-195v-141h210v-153zM385 -124q0 -53 -35.5 -84.5t-96.5 -31.5q-31 0 -56.5 4t-43.5 10v93q31 -10 61 -10q39 0 39 28q0 32 -69 41l31 74h88l-11 -31q35 -7 64 -28t29 -65z" />
    <glyph glyph-name="uni0229" unicode="&#x229;" horiz-adv-x="568" 
d="M290 563q112 0 177 -64.5t65 -188.5v-85h-313q1 -48 28.5 -75t82.5 -27q46 0 86 10.5t83 32.5v-135q-39 -21 -84 -31t-108 -10q-124 0 -196.5 69.5t-72.5 213.5q0 145 68 217.5t184 72.5zM296 434q-31 0 -51.5 -21t-23.5 -70h146q-1 43 -19 67t-52 24zM419 -124
q0 -53 -35.5 -84.5t-96.5 -31.5q-31 0 -56.5 4t-43.5 10v93q31 -10 61 -10q39 0 39 28q0 32 -69 41l31 74h88l-11 -31q35 -7 64 -28t29 -65z" />
    <glyph glyph-name="uni022A" unicode="&#x22a;" horiz-adv-x="732" 
d="M685 358q0 -114 -34 -196.5t-104.5 -127t-180.5 -44.5q-162 0 -240.5 98.5t-78.5 270.5q0 171 78.5 268.5t241.5 97.5q165 0 241.5 -97.5t76.5 -269.5zM240 358q0 -101 30 -156t96 -55q68 0 97 54t29 157t-29 158t-96 55t-97 -55.5t-30 -157.5zM533 1029v-104h-332v104
h332zM267 893q32 0 51.5 -16.5t19.5 -50.5q0 -31 -19.5 -48.5t-51.5 -17.5q-70 0 -70 66q0 67 70 67zM464 893q32 0 51.5 -16.5t19.5 -50.5q0 -31 -19.5 -48.5t-51.5 -17.5q-33 0 -51.5 17.5t-18.5 48.5q0 34 18.5 50.5t51.5 16.5z" />
    <glyph glyph-name="uni022B" unicode="&#x22b;" horiz-adv-x="593" 
d="M553 278q0 -84 -29 -149t-86.5 -102t-142.5 -37q-79 0 -137 36.5t-89 101t-31 150.5q0 130 66.5 207.5t193.5 77.5q74 0 132 -33t90.5 -96.5t32.5 -155.5zM221 277q0 -72 17.5 -110t58.5 -38q40 0 56.5 37.5t16.5 111.5q0 73 -17 109.5t-57 36.5q-75 0 -75 -147zM464 868
v-104h-332v104h332zM198 732q32 0 51.5 -16.5t19.5 -50.5q0 -31 -19.5 -48.5t-51.5 -17.5q-70 0 -70 66q0 67 70 67zM395 732q32 0 51.5 -16.5t19.5 -50.5q0 -31 -19.5 -48.5t-51.5 -17.5q-33 0 -51.5 17.5t-18.5 48.5q0 34 18.5 50.5t51.5 16.5z" />
    <glyph glyph-name="uni022C" unicode="&#x22c;" horiz-adv-x="732" 
d="M685 358q0 -114 -34 -196.5t-104.5 -127t-180.5 -44.5q-162 0 -240.5 98.5t-78.5 270.5q0 171 78.5 268.5t241.5 97.5q165 0 241.5 -97.5t76.5 -269.5zM240 358q0 -101 30 -156t96 -55q68 0 97 54t29 157t-29 158t-96 55t-97 -55.5t-30 -157.5zM200 923v105h332v-105
h-332zM197 766q4 47 27.5 81.5t76.5 34.5q33 0 55 -9.5t38 -19.5t34 -10q31 0 35 38h70q-5 -46 -28 -81t-78 -35q-30 0 -52 10t-38.5 19.5t-31.5 9.5q-16 0 -24.5 -8.5t-14.5 -29.5h-69z" />
    <glyph glyph-name="uni022D" unicode="&#x22d;" horiz-adv-x="593" 
d="M553 278q0 -84 -29 -149t-86.5 -102t-142.5 -37q-79 0 -137 36.5t-89 101t-31 150.5q0 130 66.5 207.5t193.5 77.5q74 0 132 -33t90.5 -96.5t32.5 -155.5zM221 277q0 -72 17.5 -110t58.5 -38q40 0 56.5 37.5t16.5 111.5q0 73 -17 109.5t-57 36.5q-75 0 -75 -147zM131 762
v105h332v-105h-332zM128 605q4 47 27.5 81.5t76.5 34.5q33 0 55 -9.5t38 -19.5t34 -10q31 0 35 38h70q-5 -46 -28 -81t-78 -35q-30 0 -52 10t-38.5 19.5t-31.5 9.5q-16 0 -24.5 -8.5t-14.5 -29.5h-69z" />
    <glyph glyph-name="uni022E" unicode="&#x22e;" horiz-adv-x="732" 
d="M685 358q0 -114 -34 -196.5t-104.5 -127t-180.5 -44.5q-162 0 -240.5 98.5t-78.5 270.5q0 171 78.5 268.5t241.5 97.5q165 0 241.5 -97.5t76.5 -269.5zM240 358q0 -101 30 -156t96 -55q68 0 97 54t29 157t-29 158t-96 55t-97 -55.5t-30 -157.5zM370 937q42 0 69 -18.5
t27 -66.5q0 -47 -27.5 -65.5t-68.5 -18.5q-43 0 -69.5 18.5t-26.5 65.5q0 48 26 66.5t70 18.5z" />
    <glyph glyph-name="uni022F" unicode="&#x22f;" horiz-adv-x="593" 
d="M553 278q0 -84 -29 -149t-86.5 -102t-142.5 -37q-79 0 -137 36.5t-89 101t-31 150.5q0 130 66.5 207.5t193.5 77.5q74 0 132 -33t90.5 -96.5t32.5 -155.5zM221 277q0 -72 17.5 -110t58.5 -38q40 0 56.5 37.5t16.5 111.5q0 73 -17 109.5t-57 36.5q-75 0 -75 -147zM301 776
q42 0 69 -18.5t27 -66.5q0 -47 -27.5 -65.5t-68.5 -18.5q-43 0 -69.5 18.5t-26.5 65.5q0 48 26 66.5t70 18.5z" />
    <glyph glyph-name="uni0230" unicode="&#x230;" horiz-adv-x="732" 
d="M685 358q0 -114 -34 -196.5t-104.5 -127t-180.5 -44.5q-162 0 -240.5 98.5t-78.5 270.5q0 171 78.5 268.5t241.5 97.5q165 0 241.5 -97.5t76.5 -269.5zM240 358q0 -101 30 -156t96 -55q68 0 97 54t29 157t-29 158t-96 55t-97 -55.5t-30 -157.5zM533 1035v-108h-331v108
h331zM366 898q34 0 54.5 -17.5t20.5 -51.5q0 -31 -20.5 -49t-54.5 -18q-35 0 -54.5 18t-19.5 49q0 34 19.5 51.5t54.5 17.5z" />
    <glyph glyph-name="uni0231" unicode="&#x231;" horiz-adv-x="593" 
d="M553 278q0 -84 -29 -149t-86.5 -102t-142.5 -37q-79 0 -137 36.5t-89 101t-31 150.5q0 130 66.5 207.5t193.5 77.5q74 0 132 -33t90.5 -96.5t32.5 -155.5zM221 277q0 -72 17.5 -110t58.5 -38q40 0 56.5 37.5t16.5 111.5q0 73 -17 109.5t-57 36.5q-75 0 -75 -147zM462 872
v-106h-330v106h330zM296 736q32 0 51.5 -17.5t19.5 -50.5q0 -32 -19.5 -49.5t-51.5 -17.5t-51 17.5t-19 49.5q0 33 19 50.5t51 17.5z" />
    <glyph glyph-name="uni0232" unicode="&#x232;" horiz-adv-x="613" 
d="M307 451l110 263h196l-214 -437v-277h-185v271l-214 443h198zM477 893v-114h-334v114h334z" />
    <glyph glyph-name="uni0233" unicode="&#x233;" horiz-adv-x="566" 
d="M0 553h190l81 -289q4 -16 7 -36t4 -36h4q2 19 6 36.5t8 34.5l81 290h185l-200 -588q-36 -106 -90 -155.5t-151 -49.5q-23 0 -41.5 2.5t-33.5 5.5v147q10 -2 24 -4t28 -2q41 0 60 23.5t35 68.5l2 7zM453 726v-114h-334v114h334z" />
    <glyph glyph-name="uni0234" unicode="&#x234;" horiz-adv-x="470" 
d="M130 -45l-100 43q27 66 57 107q-7 15 -11 36t-4 49v572h183l-1 -504q11 6 29 10t37 4q66 0 103 -37t37 -96q0 -65 -45 -107t-137 -42q-40 0 -69 7t-47 18q-8 -12 -17 -29t-15 -31zM298 100q16 0 28 9t12 24t-11 24t-28 9q-27 0 -46 -19q2 -25 13.5 -36t31.5 -11z" />
    <glyph glyph-name="uni0235" unicode="&#x235;" horiz-adv-x="751" 
d="M424 -45l-100 43q26 66 57 107q-15 30 -15 85v118q0 51 -11.5 78t-38.5 27q-42 0 -55.5 -41.5t-13.5 -126.5v-245h-182v553h139l23 -69h9q22 42 59.5 60.5t80.5 18.5q76 0 124 -49.5t48 -153.5v-102q24 14 66 14q65 0 102.5 -37t37.5 -96q0 -65 -45 -107t-138 -42
q-41 0 -69 7t-47 18q-7 -12 -16 -29t-15 -31zM591 100q17 0 28.5 9t11.5 24t-11 24t-28 9q-27 0 -46 -19q2 -25 14 -36t31 -11z" />
    <glyph glyph-name="uni0236" unicode="&#x236;" horiz-adv-x="471" 
d="M144 -45l-100 43q13 31 28 59.5t29 47.5q-15 30 -15 85v223h-63v82l78 55l47 113h120v-110h135v-140h-135v-154q11 5 29.5 9t36.5 4q65 0 102.5 -37t37.5 -96q0 -65 -45 -107t-137 -42q-40 0 -69 7t-47 18q-8 -12 -17 -29t-15 -31zM312 100q16 0 28 9t12 24t-11 24t-28 9
q-27 0 -46 -19q2 -25 13.5 -36t31.5 -11z" />
    <glyph glyph-name="uni0237" unicode="&#x237;" horiz-adv-x="302" 
d="M50 -240q-22 0 -50.5 3.5t-45.5 8.5v145q28 -9 54 -9q22 0 37 16t15 59v570h181v-598q0 -54 -19.5 -98t-61.5 -70.5t-110 -26.5z" />
    <glyph glyph-name="uni0238" unicode="&#x238;" horiz-adv-x="896" 
d="M283 -10q-77 0 -132.5 35.5t-85 100t-29.5 153.5q0 138 52 210.5t132 72.5q52 0 85 -23t52 -55h6q-2 24 -4 50.5t-2 53.5v172h182v-172q0 -29 -2.5 -55.5t-3.5 -48.5h6q19 33 52 55.5t85 22.5t93.5 -33t65.5 -96.5t24 -155.5q0 -90 -31 -154.5t-87.5 -98.5t-132.5 -34
q-104 0 -161 74q-57 -74 -164 -74zM287 138q35 0 52.5 31t17.5 112q0 71 -17 102t-54 31q-28 0 -46 -33.5t-18 -101.5q0 -76 17 -108.5t48 -32.5zM608 138q32 0 49 31t17 108q0 69 -17.5 103t-46.5 34q-36 0 -53.5 -31t-17.5 -102q0 -82 17.5 -112.5t51.5 -30.5z" />
    <glyph glyph-name="uni0239" unicode="&#x239;" horiz-adv-x="896" 
d="M612 563q117 0 182 -78t65 -211q0 -138 -51.5 -210.5t-131.5 -72.5q-52 0 -85 23t-52 55h-6q3 -29 4.5 -53t1.5 -51v-196h-182v196q0 29 2 52.5t4 51.5h-6q-19 -33 -52 -55.5t-85 -22.5t-94 33t-66 96.5t-24 155.5q0 90 31 154t87.5 98.5t133.5 34.5q104 0 161 -74
q57 74 163 74zM288 415q-32 0 -49 -31.5t-17 -107.5q0 -69 18 -103t46 -34q37 0 54 30.5t17 101.5q0 83 -17.5 113.5t-51.5 30.5zM609 415q-35 0 -52.5 -31t-17.5 -113q0 -71 17 -101.5t54 -30.5q28 0 46 33.5t18 100.5q0 77 -17.5 109.5t-47.5 32.5z" />
    <glyph glyph-name="uni023A" unicode="&#x23a;" horiz-adv-x="673" 
d="M470 0l-32 136h-90l-62 -211h-98l62 211h-16l-32 -136h-202l211 716h208l13 44h98l-43 -147l183 -613h-200zM269 289h25l62 209q-6 27 -11.5 52.5t-8.5 44.5q-4 -23 -10.5 -53.5t-13 -62t-12.5 -56.5zM403 289l-5 21l-6 -21h11z" />
    <glyph glyph-name="uni023B" unicode="&#x23b;" horiz-adv-x="594" 
d="M526 760l-17 -60q30 -11 59 -26l-53 -148q-26 14 -49 24l-116 -404q13 -2 27 -2q43 0 83 13t80 32v-159q-43 -21 -88.5 -30.5t-97.5 -9.5q-25 0 -48 3l-19 -68h-97l26 91q-86 38 -127.5 126t-41.5 213q0 109 37 192t108 130t171 47q27 0 54 -3l11 39h98zM368 570
q-62 0 -96.5 -57.5t-34.5 -158.5q0 -100 32 -152l105 368h-6z" />
    <glyph glyph-name="uni023C" unicode="&#x23c;" horiz-adv-x="496" 
d="M295 -10q-15 0 -28 1l-57 -199h-98l63 219q-66 28 -101.5 92.5t-35.5 170.5q0 140 72 214.5t195 74.5q14 0 27 -1l56 198h97l-61 -216q27 -9 52 -23l-51 -137q-23 11 -42 18l-75 -265h3q78 0 148 49v-147q-33 -23 -73 -36t-91 -13zM221 275q0 -42 9 -71l60 211
q-32 -8 -50.5 -43.5t-18.5 -96.5z" />
    <glyph glyph-name="uni023D" unicode="&#x23d;" horiz-adv-x="526" 
d="M70 0v295h-59v130h59v289h185v-289h130v-130h-130v-143h242v-152h-427z" />
    <glyph glyph-name="uni023E" unicode="&#x23e;" horiz-adv-x="551" 
d="M364 0h-173l-35 -75h-82l106 227v408h-158v154h421l21 46h82l-25 -54v-146h-68l-89 -190v-370zM364 560v-14l7 14h-7z" />
    <glyph glyph-name="uni023F" unicode="&#x23f;" horiz-adv-x="483" 
d="M333 -240q-61 0 -96 20t-55 55t-36 79q-15 43 -33.5 66t-43.5 34q-5 2 -11.5 4t-10.5 4v152q44 -22 91.5 -33.5t81.5 -11.5q56 0 56 29q0 11 -8 19.5t-31 20.5t-67 31q-62 28 -93 67.5t-31 103.5q0 80 56.5 121.5t153.5 41.5q50 0 95 -12t92 -35l-47 -123
q-35 18 -72.5 29.5t-62.5 11.5q-43 0 -43 -24q0 -10 7 -17.5t28.5 -18t63.5 -29.5q65 -29 98.5 -67t33.5 -108q0 -74 -42.5 -121.5t-133.5 -56.5q6 -6 11.5 -15t9.5 -20q16 -34 32 -48.5t42 -14.5q16 0 28 3.5t21 5.5v-130q-14 -5 -35.5 -9t-48.5 -4z" />
    <glyph glyph-name="uni0240" unicode="&#x240;" horiz-adv-x="462" 
d="M388 -240q-66 0 -104.5 22.5t-59.5 57.5t-34 74q-14 41 -33 63.5t-62 22.5h-76v108l207 303h-196v142h400v-120l-209 -305q35 -8 59.5 -29.5t39.5 -48t24 -51.5q21 -55 42 -73t41 -18q30 0 55 8v-143q-17 -7 -43.5 -10t-50.5 -3z" />
    <glyph glyph-name="uni0241" unicode="&#x241;" horiz-adv-x="482" 
d="M219 725q75 0 128.5 -28.5t82 -76.5t28.5 -109q0 -78 -36 -140.5t-130 -120.5v-250h-184v324q69 28 103.5 59.5t46 62t11.5 55.5q0 31 -21.5 51.5t-50.5 20.5q-37 0 -74 -15.5t-61 -31.5l-63 135q102 64 220 64z" />
    <glyph glyph-name="uni0242" unicode="&#x242;" horiz-adv-x="487" 
d="M219 562q75 0 127 -28t79.5 -77t27.5 -110q0 -78 -36 -138.5t-129 -114.5v-94h-181v167q69 25 103 55t45.5 60t11.5 56q0 32 -22.5 52.5t-50.5 20.5q-39 0 -73.5 -15t-58.5 -31l-63 134q103 63 220 63z" />
    <glyph glyph-name="uni0243" unicode="&#x243;" horiz-adv-x="631" 
d="M70 0v178h-61v103h61v433h234q142 0 205.5 -44.5t63.5 -130.5q0 -65 -32.5 -104t-72.5 -50v-5q32 -9 59 -28t43 -53t16 -87q0 -100 -69 -156t-187 -56h-260zM255 445h50q42 0 61 18t19 48q0 60 -83 60h-47v-126zM255 146h59q44 0 63 22.5t19 60.5q0 33 -19 57t-66 24h-56
v-29h79v-103h-79v-32z" />
    <glyph glyph-name="uni0244" unicode="&#x244;" horiz-adv-x="695" 
d="M-1 316v147h68v251h185v-251h192v251h185v-251h68v-147h-68v-47q0 -131 -71.5 -205t-212.5 -74q-135 0 -206.5 71t-71.5 204v51h-68zM252 277q0 -70 24 -100t72 -30q50 0 73 30.5t23 100.5v38h-192v-39z" />
    <glyph glyph-name="uni0245" unicode="&#x245;" horiz-adv-x="645" 
d="M431 714l214 -714h-204l-89 358q-6 28 -12.5 60t-11 60.5t-6.5 47.5q-2 -23 -6.5 -53t-10.5 -60t-12 -53l-90 -360h-203l215 714h216z" />
    <glyph glyph-name="uni0246" unicode="&#x246;" horiz-adv-x="520" 
d="M465 0h-166l-15 -75h-97l15 75h-132v714h276l9 46h98l-9 -46h21v-151h-52l-24 -118h61v-151h-91l-29 -141h135v-153zM255 445h37l23 118h-60v-118zM255 294v-31l6 31h-6z" />
    <glyph glyph-name="uni0247" unicode="&#x247;" horiz-adv-x="563" 
d="M290 563q13 0 25 -1l57 198h99l-63 -220q59 -27 91.5 -85t32.5 -145v-85h-215l-28 -97q18 -5 41 -5q46 0 86 10.5t83 32.5v-135q-39 -21 -84 -31t-108 -10q-30 0 -57 4l-58 -201h-100l67 230q-58 32 -89.5 94t-31.5 156q0 145 68 217.5t184 72.5zM221 343h30l26 89
q-23 -6 -38 -27t-18 -62zM367 343q0 22 -5 38l-11 -38h16z" />
    <glyph glyph-name="uni0248" unicode="&#x248;" horiz-adv-x="340" 
d="M26 -224q-28 0 -50.5 3t-40.5 8v156q13 -5 29 -7.5t36 -2.5q22 0 39.5 9.5t27.5 36.5t10 81v226h-78v149h78v279h186v-279h76v-149h-76v-223q0 -107 -30 -170t-83.5 -90t-123.5 -27z" />
    <glyph glyph-name="uni0249" unicode="&#x249;" horiz-adv-x="313" 
d="M59 691q0 47 27.5 66t70.5 19t69.5 -18.5t26.5 -66.5q0 -47 -27.5 -66t-68.5 -19q-43 0 -70.5 19t-27.5 66zM43 -240q-25 0 -54 3t-48 9v146q16 -4 30 -6.5t33 -2.5q26 0 43.5 15.5t17.5 61.5v237h-68v121h68v209h182v-209h67v-121h-67v-264q0 -58 -21 -102.5
t-65.5 -70.5t-117.5 -26z" />
    <glyph glyph-name="uni024A" unicode="&#x24a;" horiz-adv-x="725" 
d="M289 725q64 0 103.5 -22t64.5 -56h6l22 67h169v-760q0 -23 11.5 -34t24.5 -11q19 0 33 4t21 7v-143q-11 -6 -37 -11.5t-52 -5.5q-87 0 -137 44.5t-50 148.5v63t1 66h-9q-30 -44 -69 -68t-102 -24t-117.5 39.5t-88.5 121t-34 206.5t34.5 207t89.5 121.5t116 39.5zM350 566
q-42 0 -73.5 -53.5t-31.5 -158.5q0 -110 31.5 -158t77.5 -48q29 0 54 21t41 71t19 136q-3 99 -32 144.5t-86 45.5z" />
    <glyph glyph-name="uni024B" unicode="&#x24b;" horiz-adv-x="604" 
d="M226 563q52 0 84 -21.5t54 -56.5h6l14 68h155v-603q0 -17 9.5 -28.5t26.5 -11.5q16 0 26.5 3l24.5 7v-142q-16 -10 -44 -14t-56 -4q-65 0 -102 24t-52 67t-15 97v25q0 20 2 44t4 51h-6q-19 -34 -51.5 -56t-83.5 -22q-82 0 -134 74t-52 211q0 143 54 215.5t136 72.5z
M288 413q-66 0 -66 -140q0 -69 16.5 -103t53.5 -34q38 0 55 27.5t19 87.5v25q0 69 -17 103t-61 34z" />
    <glyph glyph-name="uni024C" unicode="&#x24c;" horiz-adv-x="637" 
d="M289 714q275 0 275 -211q0 -65 -29.5 -112.5t-82.5 -79.5l186 -311h-207l-137 263h-39v-263h-185v261h-62v149h62v304h219zM286 569h-31v-166h29q42 0 67 20.5t25 70.5q0 36 -21.5 55.5t-68.5 19.5z" />
    <glyph glyph-name="uni024D" unicode="&#x24d;" horiz-adv-x="435" 
d="M339 325v-121h-98v-204h-181v204h-62v121h62v228h136l27 -88h9q20 38 57 68t82 30q13 0 28 -2t26 -4l-16 -178q-10 3 -23.5 4.5t-35.5 1.5q-31 0 -59.5 -12t-41.5 -48h90z" />
    <glyph glyph-name="uni024E" unicode="&#x24e;" horiz-adv-x="615" 
d="M617 623v-111h-103l-115 -235v-277h-185v271l-116 241h-99v111h45l-44 91h198l38 -91h143l38 91h196l-45 -91h49zM307 451l26 61h-51z" />
    <glyph glyph-name="uni024F" unicode="&#x24f;" horiz-adv-x="571" 
d="M0 553h190l43 -152h106l42 152h185l-52 -152h48v-112h-86l-110 -324q-36 -106 -90 -155.5t-151 -49.5q-23 0 -41.5 2.5t-33.5 5.5v147q10 -2 24 -4t28 -2q41 0 60 23.5t35 68.5l2 7l-103 281h-86v112h46zM282 192h4q2 19 6 36.5t8 34.5l7 26h-43l7 -25q4 -16 7 -36t4 -36
z" />
    <glyph glyph-name="uni0250" unicode="&#x250;" horiz-adv-x="576" 
d="M266 -10q-97 0 -152 51t-55 149v363h126l34 -73h3q32 43 68.5 63t99.5 20q71 0 112.5 -48t41.5 -131q0 -89 -56.5 -132t-163.5 -48l-85 -3v-10q0 -36 16.5 -52t45.5 -16q30 0 66 11t75 30l50 -124q-91 -50 -226 -50zM239 306l38 2q46 2 65.5 18.5t19.5 47.5
q0 29 -13 42.5t-36 13.5q-31 0 -52.5 -22t-21.5 -57v-45z" />
    <glyph glyph-name="uni0251" unicode="&#x251;" horiz-adv-x="604" 
d="M224 -10q-85 0 -135.5 73.5t-50.5 211.5q0 139 52 213.5t141 74.5q49 0 78.5 -19.5t51.5 -53.5h7l20 63h151v-553h-142l-31 69h-6q-21 -36 -54 -57.5t-82 -21.5zM295 136q73 0 73 125v25q0 67 -18 97.5t-55 30.5q-35 0 -54.5 -34.5t-19.5 -106.5q0 -71 19 -104t55 -33z
" />
    <glyph glyph-name="uni0252" unicode="&#x252;" horiz-adv-x="604" 
d="M380 563q85 0 135.5 -73.5t50.5 -211.5q0 -139 -52 -213.5t-141 -74.5q-49 0 -78.5 19.5t-51.5 53.5h-7l-20 -63h-151v553h142l31 -69h6q21 36 54 57.5t82 21.5zM309 417q-73 0 -73 -125v-25q0 -67 18 -97.5t55 -30.5q35 0 54.5 34.5t19.5 106.5q0 71 -19 104t-55 33z
" />
    <glyph glyph-name="uni0253" unicode="&#x253;" horiz-adv-x="604" 
d="M249 766q26 0 52 -6t37 -10v-142q-8 3 -23 6.5t-31 3.5q-34 0 -37 -42v3q0 -24 -2 -47.5t-4 -46.5h6q19 34 52 56t84 22q53 0 94.5 -33t65.5 -96.5t24 -155.5q0 -142 -53 -215t-135 -73q-53 0 -81 17.5t-51 44.5h-11l-28 -52h-143v580q0 97 50.5 141.5t133.5 44.5z
M318 415q-36 0 -53 -29.5t-18 -99.5q0 -76 15.5 -112t57.5 -36q27 0 44.5 36t17.5 106q0 68 -18 101.5t-46 33.5z" />
    <glyph glyph-name="uni0254" unicode="&#x254;" horiz-adv-x="496" 
d="M208 563q121 0 186 -70.5t65 -211.5q0 -149 -69.5 -220t-188.5 -71q-54 0 -89.5 11t-70.5 34v156q34 -25 68.5 -38.5t78.5 -13.5q37 0 61 33.5t24 105.5q0 70 -25 103.5t-64 33.5q-29 -1 -55.5 -10t-53.5 -26l-48 141q33 20 78 31.5t103 11.5z" />
    <glyph glyph-name="uni0255" unicode="&#x255;" horiz-adv-x="521" 
d="M305 563q61 0 102 -13t73 -30l-48 -138q-31 16 -57.5 24.5t-58.5 8.5q-45 0 -69.5 -34t-24.5 -97q0 -5 0.5 -12.5t0.5 -11.5q18 13 49.5 24t74.5 11q73 0 112 -38t39 -102q0 -79 -56 -122t-144 -43q-46 0 -79.5 10t-58.5 23q-9 -17 -17 -36t-15 -39l-100 42q12 33 24 59
t26 51q-20 34 -31 76t-11 98q0 137 72 213t197 76zM323 191q-25 0 -45 -11.5t-32 -25.5q11 -19 27.5 -28.5t41.5 -9.5q21 0 37 9.5t16 28.5q0 18 -13 27.5t-32 9.5z" />
    <glyph glyph-name="uni0256" unicode="&#x256;" horiz-adv-x="604" 
d="M529 -240q-95 0 -133.5 49t-38.5 139v20q0 54 6 94h-6q-21 -31 -52 -51.5t-83 -20.5q-82 0 -133 74.5t-51 213.5t52 212t134 73q53 0 84.5 -23t50.5 -57h5q-2 30 -4 58.5t-2 55.5v163h181v-804q0 -48 39 -48q16 0 30 3.5t30 10.5v-138q-20 -10 -48.5 -17t-60.5 -7z
M293 135q38 0 56.5 31t18.5 97v23q0 65 -17 96.5t-57 31.5q-35 0 -54 -35t-19 -102q0 -73 20 -107.5t52 -34.5z" />
    <glyph glyph-name="uni0257" unicode="&#x257;" horiz-adv-x="604" 
d="M223 -10q-83 0 -134 74.5t-51 212.5t51.5 212t136.5 74q49 0 80.5 -21.5t54.5 -58.5h4q-3 22 -5 45.5t-2 44.5v19q0 90 49 135t126 45q33 0 63 -4t44 -9v-143q-10 4 -25 7t-31 3q-45 0 -45 -54v-572h-139l-34 64h-8q-22 -34 -53 -54t-82 -20zM292 135q41 0 58 30.5
t18 95.5v21q0 66 -17 99t-60 33q-31 0 -50.5 -34t-19.5 -104q0 -73 19.5 -107t51.5 -34z" />
    <glyph glyph-name="uni0258" unicode="&#x258;" horiz-adv-x="568" 
d="M278 563q-112 0 -177 -64.5t-65 -188.5v-85h313q-1 -48 -28.5 -75t-82.5 -27q-46 0 -86 10.5t-83 32.5v-135q39 -21 84 -31t108 -10q124 0 196.5 69.5t72.5 213.5q0 145 -68 217.5t-184 72.5zM272 434q31 0 51.5 -21t23.5 -70h-146q1 43 19 67t52 24z" />
    <glyph glyph-name="uni0259" unicode="&#x259;" horiz-adv-x="568" 
d="M262 563q123 0 195.5 -69.5t72.5 -214.5t-68 -217t-184 -72q-112 0 -177 64t-65 189v85h313q-1 48 -28.5 74.5t-82.5 26.5q-46 0 -85.5 -9.5t-82.5 -32.5v135q38 19 83 30t109 11zM347 210h-146q1 -43 19.5 -67.5t52.5 -24.5q31 0 51.5 21.5t22.5 70.5z" />
    <glyph glyph-name="uni025A" unicode="&#x25a;" horiz-adv-x="809" 
d="M277 -10q-119 0 -180.5 66t-61.5 187l321 93q-9 50 -38.5 70t-76.5 20q-50 0 -93.5 -13t-79.5 -33v141q32 16 84 29t116 13q99 0 165 -43.5t91 -134.5l129 35l13 -53q11 -49 22.5 -69t31.5 -20q17 0 29.5 5.5t24.5 14.5l35 -93q-16 -15 -42 -27.5t-59 -12.5
q-52 0 -84 26.5t-51 89.5l-36 -10q-4 -137 -74.5 -209t-185.5 -72zM280 121q34 0 59 24.5t25 79.5l-158 -45q6 -26 23.5 -42.5t50.5 -16.5z" />
    <glyph glyph-name="uni025B" unicode="&#x25b;" horiz-adv-x="513" 
d="M382 347v-122h-64q-65 0 -85.5 -12.5t-20.5 -36.5q0 -16 17.5 -31.5t73.5 -15.5q52 0 97.5 13t79.5 30v-143q-42 -19 -89 -29t-117 -10q-132 0 -187.5 44.5t-55.5 122.5q0 49 31.5 85t91.5 45v5q-43 12 -68 44t-25 77q0 51 29.5 84t80 49.5t114.5 16.5q55 0 101.5 -10.5
t95.5 -32.5l-54 -127q-34 17 -65.5 26t-64.5 9q-66 0 -66 -36q0 -25 22 -35t75 -10h53z" />
    <glyph glyph-name="uni025C" unicode="&#x25c;" horiz-adv-x="506" 
d="M227 563q64 0 115 -16.5t80.5 -49.5t29.5 -84q0 -45 -25.5 -77t-68.5 -44v-5q60 -9 89 -45t29 -85q0 -78 -62 -122.5t-190 -44.5q-67 0 -108.5 9t-82.5 25v143q34 -14 77.5 -26t95.5 -12q54 0 71 15.5t17 31.5q0 24 -19 36.5t-81 12.5h-64v122h53q53 0 75.5 10t22.5 35
q0 36 -66 36q-34 0 -65.5 -9t-65.5 -26l-53 127q49 23 95 33t101 10z" />
    <glyph glyph-name="uni025D" unicode="&#x25d;" horiz-adv-x="719" 
d="M227 563q77 0 134.5 -23.5t79.5 -71.5l113 33l12 -46q12 -49 22 -68.5t32 -19.5q20 0 32 6.5t24 16.5l43 -97q-22 -19 -48.5 -31t-61.5 -12q-100 0 -134 111l-39 -11q-25 -43 -78 -58v-5q60 -9 89 -45t29 -85q0 -78 -62 -122.5t-190 -44.5q-67 0 -108.5 9t-82.5 25v143
q34 -14 77.5 -26t95.5 -12q54 0 71 15.5t17 31.5q0 24 -19 36.5t-81 12.5h-64v122h53q53 0 75.5 10t22.5 35q0 36 -66 36q-34 0 -65.5 -9t-65.5 -26l-53 127q49 23 95 33t101 10z" />
    <glyph glyph-name="uni025E" unicode="&#x25e;" horiz-adv-x="616" 
d="M330 563q113 0 175.5 -38.5t62.5 -115.5q0 -50 -30 -80t-75 -40v-5q31 -4 58.5 -17.5t45 -38.5t17.5 -65q0 -81 -68.5 -127t-194.5 -46q-86 0 -150 31.5t-99.5 95t-35.5 161.5q0 93 36.5 156.5t102.5 96t155 32.5zM337 426q-117 0 -117 -149q0 -76 29 -110t82 -34
q40 0 57 13.5t17 33.5q0 23 -18.5 32t-48.5 9h-45v119h41q29 0 49 8.5t20 33.5q0 19 -15.5 31.5t-50.5 12.5z" />
    <glyph glyph-name="uni025F" unicode="&#x25f;" horiz-adv-x="313" 
d="M43 -240q-25 0 -54 3t-48 9v146q16 -4 30 -6.5t33 -2.5q26 0 43.5 15.5t17.5 61.5v236h-67v121h67v210h182v-210h67v-121h-67v-263q0 -58 -21 -102.5t-65.5 -70.5t-117.5 -26z" />
    <glyph glyph-name="uni0260" unicode="&#x260;" horiz-adv-x="604" 
d="M545 772q29 0 56 -6t38 -10v-143q-9 4 -22 7.5t-30 3.5q-22 0 -35 -14t-13 -40v-550q0 -128 -71 -194t-212 -66q-54 0 -100 7.5t-92 27.5v144q52 -23 100.5 -32.5t97.5 -9.5q45 0 70 23t25 76v7q0 16 0.5 33.5t1.5 31.5h-2q-25 -42 -58.5 -60t-76.5 -18
q-87 0 -136.5 76.5t-49.5 208.5q0 138 52 213t138 75t137 -76h5q-4 20 -7.5 43.5t-3.5 42.5v14q0 90 48 137.5t140 47.5zM288 413q-66 0 -66 -140q0 -69 16.5 -103t53.5 -34q34 0 54 25.5t20 92.5v22q0 76 -19.5 106.5t-58.5 30.5z" />
    <glyph glyph-name="uni0261" unicode="&#x261;" horiz-adv-x="599" 
d="M226 563q51 0 83.5 -20.5t54.5 -57.5h6l13 68h156v-536q0 -125 -68 -191t-212 -66q-60 0 -107 8t-90 28v151q48 -22 90.5 -32t97.5 -10q52 0 80.5 20.5t28.5 64.5v9q0 31 5 71h-5q-21 -36 -53 -58t-84 -22q-83 0 -133.5 74t-50.5 211q0 138 51.5 213t136.5 75zM291 418
q-70 0 -70 -146q0 -71 18 -104t54 -33q41 0 58 29.5t17 91.5v25q0 68 -16.5 102.5t-60.5 34.5z" />
    <glyph glyph-name="uni0262" unicode="&#x262;" horiz-adv-x="562" 
d="M319 562q51 0 95.5 -9.5t93.5 -35.5l-52 -140q-30 18 -58 27.5t-65 9.5q-44 0 -77 -32t-33 -106q0 -65 20.5 -101.5t67.5 -36.5q8 0 14.5 0.5t16.5 2.5v61h-69v121h243v-285q-33 -17 -85 -33t-116 -16q-139 0 -208 75t-69 212q0 79 29.5 144t92 103.5t159.5 38.5z" />
    <glyph glyph-name="uni0263" unicode="&#x263;" horiz-adv-x="571" 
d="M275 -240q-77 0 -118.5 43t-41.5 117q0 51 16 96t46 110l-177 426h194l64 -204q6 -20 11.5 -48.5t9.5 -52.5h4q3 25 9 49.5t14 50.5l68 205h195l-192 -436q29 -56 44.5 -103.5t15.5 -94.5q0 -68 -42.5 -113t-119.5 -45zM276 -124q23 0 23 48q0 14 -4 41t-19 58
q-16 -29 -19.5 -56.5t-3.5 -40.5q0 -50 23 -50z" />
    <glyph glyph-name="uni0264" unicode="&#x264;" horiz-adv-x="563" 
d="M482 560q22 0 43 -4t34 -10v-139q-7 1 -11.5 1.5t-11.5 0.5q-28 0 -49 -12.5t-52 -54.5l-47 -61q27 -31 47.5 -65t20.5 -81q0 -68 -47 -108t-127 -40q-79 0 -124 39.5t-45 109.5q0 46 17.5 81t40.5 62l-44 64q-28 41 -47.5 55t-44.5 14q-7 0 -15 -1t-16 -3v138
q13 5 33.5 9.5t42.5 4.5q55 0 84.5 -19t54.5 -54l25 -37q10 -14 20.5 -32t18.5 -32h4q7 14 17 31.5t20 31.5l24 35q26 40 57 58t77 18zM285 198q-16 -20 -21 -35t-5 -31q0 -15 6.5 -25t19.5 -10q15 0 21.5 10.5t6.5 23.5q0 17 -6 32t-22 35z" />
    <glyph glyph-name="uni0265" unicode="&#x265;" horiz-adv-x="618" 
d="M378 -207v119q0 52 2.5 91t6.5 65h-9q-23 -41 -57.5 -59.5t-82.5 -18.5q-78 0 -129 49.5t-51 153.5v360h181v-304q0 -111 58 -111q47 0 64 42.5t17 125.5v247h180v-760h-180z" />
    <glyph glyph-name="uni0266" unicode="&#x266;" horiz-adv-x="618" 
d="M60 0v571q0 99 50 146t136 47q26 0 52 -4t37 -9v-135q-8 3 -19.5 5.5t-27.5 2.5q-21 0 -34.5 -12.5t-13.5 -38.5v-27q0 -24 -2.5 -42t-6.5 -34h9q23 42 57.5 60t82.5 18q78 0 129 -50t51 -153v-345h-181v290q0 111 -58 111q-47 0 -64 -43t-17 -126v-232h-180z" />
    <glyph glyph-name="uni0267" unicode="&#x267;" horiz-adv-x="627" 
d="M246 764q26 0 52 -4t37 -9v-135q-8 3 -19.5 5.5t-27.5 2.5q-21 0 -34.5 -12.5t-13.5 -38.5v-27q0 -25 -2.5 -43.5t-6.5 -32.5h9q23 42 57.5 60t82.5 18q78 0 129 -50t51 -153v-388q0 -59 -18 -103t-58.5 -69t-108.5 -25q-28 0 -57 5t-50 14v143q16 -7 29.5 -10t31.5 -3
q20 0 35 14t15 57v310q0 111 -58 111q-47 0 -64 -43t-17 -126v-232h-180v571q0 99 50 146t136 47z" />
    <glyph glyph-name="uni0268" unicode="&#x268;" horiz-adv-x="303" 
d="M152 776q42 0 69 -18.5t27 -66.5q0 -47 -27.5 -65.5t-68.5 -18.5q-43 0 -69.5 18.5t-26.5 65.5q0 48 26 66.5t70 18.5zM306 343v-119h-64v-224h-181v224h-64v119h64v210h181v-210h64z" />
    <glyph glyph-name="iotaLatin" unicode="&#x269;" horiz-adv-x="398" 
d="M240 553v-367q0 -28 14.5 -39t35.5 -11q24 0 44 5t45 16v-136q-27 -14 -61 -22.5t-77 -8.5q-55 0 -95.5 17.5t-63 59t-22.5 112.5v374h180z" />
    <glyph glyph-name="uni026A" unicode="&#x26a;" horiz-adv-x="374" 
d="M360 553v-90l-82 -46v-281l82 -46v-90h-347v90l83 46v281l-83 46v90h347z" />
    <glyph glyph-name="uni026B" unicode="&#x26b;" horiz-adv-x="494" 
d="M156 0v328q-4 1 -7 1h-6q-32 0 -35 -45h-92q1 75 31.5 120.5t88.5 45.5q5 0 10 -0.5t10 -1.5v312h183v-355h13q16 0 24 12.5t11 34.5h91q0 -90 -36 -128.5t-86 -38.5q-4 0 -8 0.5t-9 0.5v-286h-183z" />
    <glyph glyph-name="uni026C" unicode="&#x26c;" horiz-adv-x="428" 
d="M154 0v277h-33q-47 0 -76 17.5t-42 45.5t-13 60q0 56 31.5 89.5t86.5 33.5q13 0 24.5 -3.5t21.5 -8.5v249h183v-387h93v-96h-93v-277h-183zM129 373h25v18q0 26 -10 33t-20 7q-30 0 -30 -29q0 -17 10.5 -23t24.5 -6z" />
    <glyph glyph-name="uni026D" unicode="&#x26d;" horiz-adv-x="314" 
d="M237 -240q-96 0 -134 50t-38 138v812h182v-810q0 -19 10.5 -30.5t28.5 -11.5q17 0 30.5 3.5t29.5 10.5v-139q-20 -13 -49 -18t-60 -5z" />
    <glyph glyph-name="uni026E" unicode="&#x26e;" horiz-adv-x="758" 
d="M417 -240q-72 0 -120 11t-87 26v158q40 -19 90.5 -32.5t104.5 -13.5q71 0 103.5 30.5t32.5 80.5q0 34 -14.5 58t-51 37.5t-103.5 13.5h-56v120l161 162h-230v-411h-182v760h182v-207h456v-114l-187 -186q98 -11 153 -67t55 -154q0 -124 -76 -198t-231 -74z" />
    <glyph glyph-name="uni026F" unicode="&#x26f;" horiz-adv-x="923" 
d="M237 -10q-87 0 -132.5 49t-45.5 154v360h180v-303q0 -61 15 -86.5t44 -25.5q42 0 57.5 39.5t15.5 115.5v260h180v-303q0 -59 14 -85.5t43 -26.5q43 0 59 42.5t16 128.5v244h180v-553h-138l-24 68h-7q-19 -35 -58.5 -56.5t-95.5 -21.5t-92 20.5t-56 55.5h-8
q-23 -36 -60.5 -56t-86.5 -20z" />
    <glyph glyph-name="uni0270" unicode="&#x270;" horiz-adv-x="940" 
d="M692 -240l1 230q0 17 2.5 40.5t5.5 39.5h-7q-23 -41 -58.5 -60.5t-79.5 -19.5q-54 0 -93 18t-62 56h-15q-22 -39 -63 -56.5t-82 -17.5q-89 0 -133.5 48.5t-44.5 154.5v360h183v-306q0 -107 56 -107q42 0 59 39.5t17 113.5v260h182v-302q0 -111 56 -111q45 0 60.5 43
t15.5 126v244h183v-793h-183z" />
    <glyph glyph-name="uni0271" unicode="&#x271;" horiz-adv-x="940" 
d="M699 563q88 0 132.5 -49t44.5 -154v-410q0 -85 -41.5 -137.5t-140.5 -52.5q-29 0 -58.5 5t-49.5 15v142q17 -7 30.5 -10t29.5 -3q19 0 33.5 12t14.5 50v335q0 52 -14 79.5t-43 27.5q-41 0 -58 -39.5t-17 -113.5v-260h-183v302q0 111 -55 111q-45 0 -61 -43.5t-16 -125.5
v-244h-182v553h139l23 -69h9q22 41 62.5 60t84.5 19q55 0 94 -18t61 -56h16q22 38 62.5 56t82.5 18z" />
    <glyph glyph-name="uni0272" unicode="&#x272;" horiz-adv-x="629" 
d="M384 563q81 0 131.5 -49.5t50.5 -153.5v-360h-183v308q0 51 -12.5 78t-44.5 27q-47 0 -63 -41.5t-16 -126.5v-295q0 -56 -16.5 -99t-55.5 -67t-104 -24q-29 0 -57 5t-47 18v139q16 -7 28.5 -10.5t28.5 -3.5q19 0 30 11t11 30v604h139l23 -69h9q24 42 64 60.5t84 18.5z
" />
    <glyph glyph-name="uni0273" unicode="&#x273;" horiz-adv-x="629" 
d="M566 -48q0 -44 43 -44q17 0 29.5 3.5t28.5 10.5v-139q-20 -13 -48.5 -18t-60.5 -5q-97 0 -136 49.5t-39 141.5v357q0 51 -12.5 78t-44.5 27q-47 0 -63 -41.5t-16 -126.5v-245h-182v553h139l23 -69h9q24 42 64 60.5t84 18.5q81 0 131.5 -49.5t50.5 -153.5v-408z" />
    <glyph glyph-name="uni0274" unicode="&#x274;" horiz-adv-x="684" 
d="M63 0v553h209l185 -342q-4 43 -6 82t-2 78v182h172v-553h-210l-182 338q3 -39 4.5 -81t1.5 -81v-176h-172z" />
    <glyph glyph-name="uni0275" unicode="&#x275;" horiz-adv-x="602" 
d="M563 278q0 -137 -70 -212.5t-194 -75.5q-77 0 -136 34t-92 98.5t-33 155.5q0 136 70 210.5t194 74.5q77 0 136 -34t92 -97.5t33 -153.5zM300 429q-79 0 -88 -101h177q-3 44 -24 72.5t-65 28.5zM301 124q79 0 87 96h-175q5 -41 25.5 -68.5t62.5 -27.5z" />
    <glyph glyph-name="uni0276" unicode="&#x276;" horiz-adv-x="803" 
d="M271 561q39 0 66 -7.5t46 -21.5v19h367v-134h-206v-74h192v-130h-192v-79h206v-134h-367v18q-37 -26 -111 -26q-72 0 -125 36t-82 100t-29 149q0 131 61 207.5t174 76.5zM297 423q-40 0 -58 -35.5t-18 -111.5q0 -147 75 -147q43 0 59.5 38t16.5 110q0 76 -17 111t-58 35z
" />
    <glyph glyph-name="omegaclosed" unicode="&#x277;" horiz-adv-x="818" 
d="M411 561q115 0 196.5 -38t125 -109.5t43.5 -170.5q0 -116 -55 -184.5t-156 -68.5q-67 0 -103.5 30t-50.5 74h-5q-16 -46 -52.5 -75t-104.5 -29q-97 0 -153 69t-56 184q0 94 44.5 165.5t128 112t198.5 40.5zM408 411q-102 0 -148 -47.5t-46 -122.5q0 -47 14 -74.5
t42 -27.5q34 0 44.5 24.5t10.5 74.5v96h167v-99q0 -49 9 -72t43 -24q29 0 44 27t15 73q0 47 -20 86.5t-63 62.5t-112 23z" />
    <glyph glyph-name="uni0278" unicode="&#x278;" horiz-adv-x="810" 
d="M492 760v-207q93 -8 155.5 -45.5t93.5 -97t31 -134.5q0 -115 -69.5 -189.5t-210.5 -86.5v-240h-171v240q-92 9 -155 46.5t-95.5 96.5t-32.5 133q0 118 67 192.5t214 84.5v207h173zM319 414q-27 -2 -50 -20.5t-37 -49t-14 -68.5q0 -59 28.5 -97.5t72.5 -39.5v275zM492 414
v-275q44 1 72 39.5t28 97.5q0 58 -29 97t-71 41z" />
    <glyph glyph-name="uni0279" unicode="&#x279;" horiz-adv-x="435" 
d="M64 -10q-13 0 -28 2t-26 4l16 178q10 -3 23.5 -4.5t35.5 -1.5q27 0 52 9t41 33t16 69v274h181v-553h-136l-27 88h-9q-20 -38 -57 -68t-82 -30z" />
    <glyph glyph-name="uni027A" unicode="&#x27a;" horiz-adv-x="435" 
d="M63 -10q-13 0 -28 2t-25 4l15 178q10 -3 23.5 -4.5t36.5 -1.5q27 0 52 9t41 33t16 69v481h180v-760h-135l-28 88h-8q-19 -38 -57 -68t-83 -30z" />
    <glyph glyph-name="uni027B" unicode="&#x27b;" horiz-adv-x="443" 
d="M369 -240q-96 0 -134.5 50.5t-38.5 143.5v24q0 38 2.5 61t6.5 45h-7q-20 -35 -55.5 -64.5t-83.5 -29.5q-10 0 -22 1t-20 3l12 179q13 -5 46 -5q29 0 57 9t46 33t18 69v274h182v-596q0 -22 10 -35.5t32 -13.5q18 0 31 4t30 11v-140q-21 -12 -50.5 -17.5t-61.5 -5.5z" />
    <glyph glyph-name="uni027C" unicode="&#x27c;" horiz-adv-x="435" 
d="M371 563q13 0 28 -2t26 -4l-16 -178q-10 3 -23.5 4.5t-35.5 1.5q-27 0 -52 -9t-41 -33t-16 -69v-514h-181v793h136l27 -88h9q20 38 57 68t82 30z" />
    <glyph glyph-name="uni027D" unicode="&#x27d;" horiz-adv-x="443" 
d="M378 563q10 0 25.5 -1.5t23.5 -2.5l-13 -179q-8 2 -20.5 3t-26.5 1q-29 0 -57 -9t-45.5 -32.5t-17.5 -68.5v-325q0 -19 10.5 -30t28.5 -11t31 3.5t29 10.5v-139q-20 -13 -49 -18t-60 -5q-95 0 -133.5 50t-38.5 138v605h137l28 -89h8q12 24 32.5 46.5t48 37.5t59.5 15z
" />
    <glyph glyph-name="uni027E" unicode="&#x27e;" horiz-adv-x="401" 
d="M273 565q32 0 57.5 -3t51.5 -9l-18 -155q-14 4 -26 5.5t-29 1.5q-38 0 -50 -22t-12 -56v-327h-183v335q0 112 47 171t162 59z" />
    <glyph glyph-name="uni027F" unicode="&#x27f;" horiz-adv-x="401" 
d="M127 565q115 0 162 -59t47 -171v-575h-182v567q0 34 -12.5 56t-50.5 22q-17 0 -29 -1.5t-25 -5.5l-19 155q26 6 51.5 9t57.5 3z" />
    <glyph glyph-name="uni0280" unicode="&#x280;" horiz-adv-x="587" 
d="M72 0v551h251q101 0 160.5 -42t59.5 -128q0 -57 -25 -95t-70 -61l140 -225h-197l-102 194h-35v-194h-182zM254 316h46q28 0 46 14t18 45q0 22 -13 36.5t-41 14.5h-56v-110z" />
    <glyph glyph-name="uni0281" unicode="&#x281;" horiz-adv-x="587" 
d="M72 553v-551h251q101 0 160.5 42t59.5 128q0 57 -25 95t-70 61l140 225h-197l-102 -194h-35v194h-182zM254 237h46q28 0 46 -14t18 -45q0 -22 -13 -36.5t-41 -14.5h-56v110z" />
    <glyph glyph-name="uni0282" unicode="&#x282;" horiz-adv-x="483" 
d="M449 170q0 -82 -52.5 -131t-165.5 -49q-11 0 -20 0.5t-19 1.5v-72q0 -27 12.5 -31t22.5 -4t18.5 2t19.5 5v-118q-15 -6 -37 -10t-46 -4q-71 0 -103 39.5t-32 111.5v263q44 -22 91.5 -33.5t81.5 -11.5q56 0 56 29q0 11 -8 20t-31 20.5t-67 30.5q-62 28 -93 67.5t-31 103.5
q0 80 56.5 121.5t153.5 41.5q50 0 95 -12t92 -35l-47 -123q-35 18 -72.5 29.5t-62.5 11.5q-43 0 -43 -24q0 -10 7 -17.5t28.5 -18t63.5 -29.5q65 -29 98.5 -67t33.5 -108z" />
    <glyph glyph-name="uni0283" unicode="&#x283;" horiz-adv-x="313" 
d="M248 768q29 0 56.5 -6t38.5 -10v-142q-8 3 -22.5 6.5t-30.5 3.5q-19 0 -30.5 -12t-11.5 -34v-624q0 -56 -17 -99t-55.5 -67t-104.5 -24q-29 0 -56.5 5t-47.5 18v139q17 -7 29 -10.5t29 -3.5q19 0 30 11t11 30v631q0 96 46 142t136 46z" />
    <glyph glyph-name="uni0284" unicode="&#x284;" horiz-adv-x="313" 
d="M71 -240q-29 0 -56.5 5t-47.5 18v139q17 -7 29 -10.5t29 -3.5q19 0 30 11t11 30v289h-66v133h66v209q0 96 46 142t136 46q29 0 56.5 -6t38.5 -10v-142q-8 3 -22.5 6.5t-30.5 3.5q-19 0 -30.5 -12t-11.5 -34v-203h67v-133h-67v-288q0 -56 -17 -99t-55.5 -67t-104.5 -24z
" />
    <glyph glyph-name="uni0285" unicode="&#x285;" horiz-adv-x="325" 
d="M254 -240q-66 0 -105 23.5t-55.5 65.5t-16.5 99v419q0 23 -11 35t-30 12q-17 0 -31 -4t-23 -7v142q12 5 39 10.5t56 5.5q183 0 183 -190v-422q0 -19 10.5 -30t29.5 -11q17 0 29.5 3.5t28.5 10.5v-139q-20 -13 -47.5 -18t-56.5 -5z" />
    <glyph glyph-name="uni0286" unicode="&#x286;" horiz-adv-x="320" 
d="M67 -240q-83 0 -119 37.5t-36 92.5q0 50 34 84.5t110 34.5h14v571q0 96 46 142t136 46q29 0 56.5 -6t38.5 -10v-142q-8 3 -22.5 6.5t-31.5 3.5q-19 0 -30 -12t-11 -34v-565h57v-93h-58q-5 -67 -49 -111.5t-135 -44.5zM41 -144q13 0 21 9t8 29v22h-16q-39 0 -39 -32
q0 -14 7.5 -21t18.5 -7z" />
    <glyph glyph-name="uni0287" unicode="&#x287;" horiz-adv-x="421" 
d="M110 416q-21 0 -41 -5.5t-43 -13.5v135q30 14 62.5 22.5t79.5 8.5q82 0 126.5 -42.5t44.5 -149.5v-232h63v-81l-80 -53l-45 -116h-119v111h-124v139h124v223q0 54 -48 54z" />
    <glyph glyph-name="uni0288" unicode="&#x288;" horiz-adv-x="433" 
d="M315 -92q21 0 43 5.5t46 14.5v-137q-27 -13 -64.5 -22t-81.5 -9q-52 0 -91.5 17.5t-61.5 59.5t-22 115v461h-63v82l79 55l46 113h121v-110h134v-140h-134v-462q0 -22 13.5 -32.5t35.5 -10.5z" />
    <glyph glyph-name="uni0289" unicode="&#x289;" horiz-adv-x="618" 
d="M0 234v121h59v198h181v-198h138v198h180v-198h65v-121h-65v-234h-137l-22 69h-10q-24 -41 -63.5 -60t-88.5 -19q-78 0 -128 50t-50 153v41h-59zM297 138q38 0 55.5 25t22.5 71h-135q2 -48 15.5 -72t41.5 -24z" />
    <glyph glyph-name="uni028A" unicode="&#x28a;" horiz-adv-x="630" 
d="M314 -11q-88 0 -147.5 32.5t-90 88.5t-30.5 127q0 67 24 110t49 67h-91v139h261v-133q-37 -19 -54 -60t-17 -101q0 -63 26 -95t71 -32q46 0 71.5 31.5t25.5 95.5q0 125 -70 161v133h260v-139h-87q28 -24 48.5 -68t20.5 -105q0 -73 -30.5 -130t-90 -89.5t-149.5 -32.5z
" />
    <glyph glyph-name="uni028B" unicode="&#x28b;" horiz-adv-x="648" 
d="M431 561q93 0 130 -51.5t37 -137.5v-126q0 -70 -24 -128.5t-82.5 -93t-162.5 -34.5q-79 0 -131 20t-81.5 55t-41.5 81.5t-12 99.5v307h183v-298q0 -62 20 -88.5t69 -26.5q43 0 61.5 26.5t18.5 88.5v116q0 18 -9.5 30.5t-28.5 12.5q-17 0 -27.5 -3t-23.5 -8v140
q20 9 49 13.5t56 4.5z" />
    <glyph glyph-name="uni028C" unicode="&#x28c;" horiz-adv-x="567" 
d="M375 553l191 -553h-187l-80 306q-4 13 -7.5 34.5t-4.5 42.5h-3q-1 -20 -4.5 -40t-7.5 -36l-84 -307h-187l191 553h183z" />
    <glyph glyph-name="uni028D" unicode="&#x28d;" horiz-adv-x="846" 
d="M345 553l52 -243q5 -25 10 -55.5t9 -59.5t7 -47h3q2 19 7 48.5t10 61t11 56.5l50 239h195l138 -553h-179l-39 198q-7 37 -14 89.5t-9 95.5h-3q-2 -26 -6.5 -59.5t-10 -64.5t-9.5 -50l-44 -209h-202l-41 212q-8 37 -15.5 86t-11.5 85h-3q-3 -43 -9.5 -95.5t-14.5 -89.5
l-42 -198h-175l139 553h197z" />
    <glyph glyph-name="uni028E" unicode="&#x28e;" horiz-adv-x="566" 
d="M566 0h-190l-81 289q-4 16 -7 36t-4 36h-4q-2 -19 -6 -36.5t-8 -34.5l-81 -290h-185l200 588q36 106 90 155.5t151 49.5q23 0 41.5 -2.5t33.5 -5.5v-147q-10 2 -24 4t-28 2q-41 0 -60 -23.5t-35 -68.5l-2 -7z" />
    <glyph glyph-name="uni028F" unicode="&#x28f;" horiz-adv-x="562" 
d="M564 553l-192 -335v-218h-182v218l-192 335h203l82 -162l77 162h204z" />
    <glyph glyph-name="uni0290" unicode="&#x290;" horiz-adv-x="462" 
d="M434 -240q-64 0 -102 36.5t-38 118.5v85h-275v108l207 303h-196v142h400v-120l-197 -291h208v-209q0 -26 10.5 -36.5t29.5 -10.5q12 0 22.5 2t19.5 4v-118q-17 -7 -40.5 -10.5t-48.5 -3.5z" />
    <glyph glyph-name="uni0291" unicode="&#x291;" horiz-adv-x="589" 
d="M281 -88l-92 30q6 15 12 29.5t11 28.5h-193v108l207 303h-196v142h403v-113l-202 -298h39q37 74 79.5 107.5t101.5 33.5q61 0 94 -32.5t33 -93.5q0 -58 -29 -92.5t-75 -49.5t-99 -15h-61q-9 -22 -16.5 -43t-16.5 -45zM377 142h37q20 0 33 6.5t13 19.5q0 24 -27 24
q-35 0 -56 -50z" />
    <glyph glyph-name="uni0292" unicode="&#x292;" horiz-adv-x="557" 
d="M502 553v-114l-187 -186q97 -11 152.5 -67t55.5 -154q0 -124 -76.5 -198t-230.5 -74q-72 0 -120 11t-87 26v158q41 -19 91 -32.5t104 -13.5q71 0 103.5 30.5t32.5 80.5q0 34 -14.5 58t-51 37.5t-103.5 13.5h-56v120l161 162h-243v142h469z" />
    <glyph glyph-name="uni0293" unicode="&#x293;" horiz-adv-x="574" 
d="M218 -240q-95 0 -153 44t-58 122q0 70 46 108.5t125 38.5q57 0 99 -20.5t74 -51.5q1 6 2.5 14.5t1.5 17.5q0 30 -16.5 56.5t-54.5 43t-102 16.5h-46v123l149 139h-241v142h471v-118l-185 -165q98 -13 152 -75.5t54 -163.5q0 -55 -20 -93t-39 -58q12 -11 24.5 -24.5
t23.5 -27.5l-88 -72q-7 9 -19 24t-19 23q-29 -18 -75.5 -30.5t-105.5 -12.5zM215 -111q52 0 80 23q-54 55 -110 55q-49 0 -49 -35q0 -20 22.5 -31.5t56.5 -11.5z" />
    <glyph glyph-name="uni0294" unicode="&#x294;" horiz-adv-x="481" 
d="M219 765q75 0 127.5 -28.5t80.5 -76.5t28 -108q0 -78 -35 -140t-129 -120v-292h-184v365q69 29 104 60t47 61t12 56q0 31 -22 51.5t-51 20.5q-37 0 -74 -15t-61 -31l-63 134q103 63 220 63z" />
    <glyph glyph-name="uni0295" unicode="&#x295;" horiz-adv-x="481" 
d="M262 765q-75 0 -127.5 -28.5t-80.5 -76.5t-28 -108q0 -78 35 -140t129 -120v-292h184v365q-69 29 -104 60t-47 61t-12 56q0 31 22 51.5t51 20.5q37 0 74 -15t61 -31l63 134q-103 63 -220 63z" />
    <glyph glyph-name="glottalturned" unicode="&#x296;" horiz-adv-x="481" 
d="M209 -10q-115 0 -210 64l63 134q24 -16 61 -31.5t74 -15.5q29 0 51 20.5t22 52.5q0 26 -12 56t-47 61t-104 60v370h184v-297q94 -55 129 -116.5t35 -138.5q0 -61 -29.5 -110.5t-84.5 -79t-132 -29.5z" />
    <glyph glyph-name="uni0297" unicode="&#x297;" horiz-adv-x="496" 
d="M289 -240q-125 0 -189 94t-64 298q0 208 72 309.5t195 101.5q61 0 99.5 -12t65.5 -26l-51 -142q-24 13 -43.5 22.5t-49.5 9.5q-55 0 -78.5 -68.5t-23.5 -193.5t25 -184t81 -59q37 0 64.5 13t56.5 35v-155q-64 -43 -160 -43z" />
    <glyph glyph-name="uni0298" unicode="&#x298;" horiz-adv-x="732" 
d="M685 358q0 -114 -34 -196.5t-104.5 -127t-180.5 -44.5q-162 0 -240.5 98.5t-78.5 270.5q0 171 78.5 268.5t241.5 97.5q165 0 241.5 -97.5t76.5 -269.5zM240 358q0 -101 30 -156t96 -55q68 0 97 54t29 157t-29 158t-96 55t-97 -55.5t-30 -157.5zM277.648 357
q0 49 25.6162 71.5t64.2646 22.5q37.749 0 62.0176 -22.5q24.2676 -22.5 24.2676 -71.5q0 -47 -24.7178 -70q-24.7168 -23 -61.5674 -23q-38.6484 0 -64.2646 23t-25.6162 70z" />
    <glyph glyph-name="uni0299" unicode="&#x299;" horiz-adv-x="588" 
d="M540 410q0 -45 -25.5 -78t-75.5 -42v-4q55 -7 85.5 -41t30.5 -87q0 -46 -22 -81.5t-74 -56t-141 -20.5h-258v553h259q114 0 167.5 -36.5t53.5 -106.5zM360 385q0 45 -50 45h-70v-86h66q27 0 40.5 12t13.5 29zM372 177q0 23 -14 36t-48 13h-70v-103h69q33 0 48 14.5
t15 39.5z" />
    <glyph glyph-name="uni029A" unicode="&#x29a;" horiz-adv-x="616" 
d="M284 563q146 0 220.5 -74.5t74.5 -209.5q0 -144 -79 -216.5t-217 -72.5q-130 0 -190.5 46t-60.5 123q0 39 17 64.5t44 40t58 19.5v5q-44 10 -73.5 41t-29.5 80q0 70 58.5 112t177.5 42zM286 428q-34 0 -51 -12.5t-17 -31.5q0 -24 19 -34t59 -10h30v-118h-29
q-43 0 -62 -10t-19 -32t19 -35.5t51 -13.5t58 12.5t40.5 44t14.5 87.5q0 76 -27 114.5t-86 38.5z" />
    </font>
</defs>
</svg>
